{
.appVersion = "1348";
DisplayStrings = (
"*short/space term/space memory/space eh?*\012minimum",
"¤©"
);
date = "2018-09-07 19:17:26 +0000";
designer = "Mirko Velimirovic";
familyName = "Lunakhod Mikro";
fontMaster = (
{
ascender = 12;
capHeight = 11;
custom = micro;
descender = -4;
id = "F9C0524F-BD24-452A-96F1-149BC18AF880";
xHeight = 8;
}
);
glyphs = (
{
glyphname = A;
lastChange = "2018-09-27 22:33:41 +0000";
layers = (
{
layerId = "F9C0524F-BD24-452A-96F1-149BC18AF880";
paths = (
{
closed = 1;
nodes = (
"0 0 LINE",
"1 0 LINE",
"1 3 LINE",
"0 3 LINE"
);
},
{
closed = 1;
nodes = (
"1 3 LINE",
"2 3 LINE",
"2 7 LINE",
"1 7 LINE"
);
},
{
closed = 1;
nodes = (
"7 0 LINE",
"8 0 LINE",
"8 3 LINE",
"7 3 LINE"
);
},
{
closed = 1;
nodes = (
"6 3 LINE",
"7 3 LINE",
"7 7 LINE",
"6 7 LINE"
);
},
{
closed = 1;
nodes = (
"5 7 LINE",
"6 7 LINE",
"6 10 LINE",
"5 10 LINE"
);
},
{
closed = 1;
nodes = (
"3 10 LINE",
"5 10 LINE",
"5 11 LINE",
"3 11 LINE"
);
},
{
closed = 1;
nodes = (
"2 7 LINE",
"3 7 LINE",
"3 10 LINE",
"2 10 LINE"
);
},
{
closed = 1;
nodes = (
"2 3 LINE",
"6 3 LINE",
"6 4 LINE",
"2 4 LINE"
);
}
);
width = 8;
}
);
unicode = 0041;
},
{
glyphname = Aacute;
lastChange = "2018-09-28 18:28:41 +0000";
layers = (
{
components = (
{
name = acute;
transform = "{1, 0, 0, 1, 2, 3}";
}
);
layerId = "F9C0524F-BD24-452A-96F1-149BC18AF880";
paths = (
{
closed = 1;
nodes = (
"0 0 LINE",
"1 0 LINE",
"1 3 LINE",
"0 3 LINE"
);
},
{
closed = 1;
nodes = (
"1 3 LINE",
"2 3 LINE",
"2 7 LINE",
"1 7 LINE"
);
},
{
closed = 1;
nodes = (
"7 0 LINE",
"8 0 LINE",
"8 3 LINE",
"7 3 LINE"
);
},
{
closed = 1;
nodes = (
"6 3 LINE",
"7 3 LINE",
"7 7 LINE",
"6 7 LINE"
);
},
{
closed = 1;
nodes = (
"5 7 LINE",
"6 7 LINE",
"6 10 LINE",
"5 10 LINE"
);
},
{
closed = 1;
nodes = (
"3 10 LINE",
"5 10 LINE",
"5 11 LINE",
"3 11 LINE"
);
},
{
closed = 1;
nodes = (
"2 7 LINE",
"3 7 LINE",
"3 10 LINE",
"2 10 LINE"
);
},
{
closed = 1;
nodes = (
"2 3 LINE",
"6 3 LINE",
"6 4 LINE",
"2 4 LINE"
);
}
);
width = 8;
}
);
unicode = 00C1;
},
{
glyphname = Adieresis;
lastChange = "2018-09-28 02:04:43 +0000";
layers = (
{
layerId = "F9C0524F-BD24-452A-96F1-149BC18AF880";
paths = (
{
closed = 1;
nodes = (
"0 0 LINE",
"1 0 LINE",
"1 3 LINE",
"0 3 LINE"
);
},
{
closed = 1;
nodes = (
"1 3 LINE",
"2 3 LINE",
"2 7 LINE",
"1 7 LINE"
);
},
{
closed = 1;
nodes = (
"7 0 LINE",
"8 0 LINE",
"8 3 LINE",
"7 3 LINE"
);
},
{
closed = 1;
nodes = (
"6 3 LINE",
"7 3 LINE",
"7 7 LINE",
"6 7 LINE"
);
},
{
closed = 1;
nodes = (
"5 7 LINE",
"6 7 LINE",
"6 10 LINE",
"5 10 LINE"
);
},
{
closed = 1;
nodes = (
"3 10 LINE",
"5 10 LINE",
"5 11 LINE",
"3 11 LINE"
);
},
{
closed = 1;
nodes = (
"2 7 LINE",
"3 7 LINE",
"3 10 LINE",
"2 10 LINE"
);
},
{
closed = 1;
nodes = (
"2 3 LINE",
"6 3 LINE",
"6 4 LINE",
"2 4 LINE"
);
},
{
closed = 1;
nodes = (
"1 11 LINE",
"2 11 LINE",
"2 12 LINE",
"1 12 LINE"
);
},
{
closed = 1;
nodes = (
"6 11 LINE",
"7 11 LINE",
"7 12 LINE",
"6 12 LINE"
);
}
);
width = 8;
}
);
unicode = 00C4;
},
{
glyphname = Agrave;
lastChange = "2018-09-28 19:43:14 +0000";
layers = (
{
layerId = "F9C0524F-BD24-452A-96F1-149BC18AF880";
paths = (
{
closed = 1;
nodes = (
"2 14 LINE",
"3 14 LINE",
"3 15 LINE",
"2 15 LINE"
);
},
{
closed = 1;
nodes = (
"3 13 LINE",
"4 13 LINE",
"4 14 LINE",
"3 14 LINE"
);
},
{
closed = 1;
nodes = (
"4 12 LINE",
"5 12 LINE",
"5 13 LINE",
"4 13 LINE"
);
},
{
closed = 1;
nodes = (
"0 0 LINE",
"1 0 LINE",
"1 3 LINE",
"0 3 LINE"
);
},
{
closed = 1;
nodes = (
"1 3 LINE",
"2 3 LINE",
"2 7 LINE",
"1 7 LINE"
);
},
{
closed = 1;
nodes = (
"7 0 LINE",
"8 0 LINE",
"8 3 LINE",
"7 3 LINE"
);
},
{
closed = 1;
nodes = (
"6 3 LINE",
"7 3 LINE",
"7 7 LINE",
"6 7 LINE"
);
},
{
closed = 1;
nodes = (
"5 7 LINE",
"6 7 LINE",
"6 10 LINE",
"5 10 LINE"
);
},
{
closed = 1;
nodes = (
"3 10 LINE",
"5 10 LINE",
"5 11 LINE",
"3 11 LINE"
);
},
{
closed = 1;
nodes = (
"2 7 LINE",
"3 7 LINE",
"3 10 LINE",
"2 10 LINE"
);
},
{
closed = 1;
nodes = (
"2 3 LINE",
"6 3 LINE",
"6 4 LINE",
"2 4 LINE"
);
}
);
width = 8;
}
);
unicode = 00C0;
},
{
glyphname = Aring;
lastChange = "2018-09-28 02:05:44 +0000";
layers = (
{
layerId = "F9C0524F-BD24-452A-96F1-149BC18AF880";
paths = (
{
closed = 1;
nodes = (
"0 0 LINE",
"1 0 LINE",
"1 3 LINE",
"0 3 LINE"
);
},
{
closed = 1;
nodes = (
"1 3 LINE",
"2 3 LINE",
"2 7 LINE",
"1 7 LINE"
);
},
{
closed = 1;
nodes = (
"7 0 LINE",
"8 0 LINE",
"8 3 LINE",
"7 3 LINE"
);
},
{
closed = 1;
nodes = (
"6 3 LINE",
"7 3 LINE",
"7 7 LINE",
"6 7 LINE"
);
},
{
closed = 1;
nodes = (
"5 7 LINE",
"6 7 LINE",
"6 10 LINE",
"5 10 LINE"
);
},
{
closed = 1;
nodes = (
"3 10 LINE",
"5 10 LINE",
"5 11 LINE",
"3 11 LINE"
);
},
{
closed = 1;
nodes = (
"2 7 LINE",
"3 7 LINE",
"3 10 LINE",
"2 10 LINE"
);
},
{
closed = 1;
nodes = (
"2 3 LINE",
"6 3 LINE",
"6 4 LINE",
"2 4 LINE"
);
},
{
closed = 1;
nodes = (
"2 11 LINE",
"3 11 LINE",
"3 12 LINE",
"2 12 LINE"
);
},
{
closed = 1;
nodes = (
"5 11 LINE",
"6 11 LINE",
"6 12 LINE",
"5 12 LINE"
);
},
{
closed = 1;
nodes = (
"3 12 LINE",
"5 12 LINE",
"5 13 LINE",
"3 13 LINE"
);
}
);
width = 9;
}
);
unicode = 00C5;
},
{
glyphname = Atilde;
lastChange = "2018-09-28 19:43:49 +0000";
layers = (
{
layerId = "F9C0524F-BD24-452A-96F1-149BC18AF880";
paths = (
{
closed = 1;
nodes = (
"2 12 LINE",
"3 12 LINE",
"3 13 LINE",
"2 13 LINE"
);
},
{
closed = 1;
nodes = (
"3 13 LINE",
"5 13 LINE",
"5 14 LINE",
"3 14 LINE"
);
},
{
closed = 1;
nodes = (
"5 12 LINE",
"6 12 LINE",
"6 13 LINE",
"5 13 LINE"
);
},
{
closed = 1;
nodes = (
"6 13 LINE",
"7 13 LINE",
"7 14 LINE",
"6 14 LINE"
);
},
{
closed = 1;
nodes = (
"0 0 LINE",
"1 0 LINE",
"1 3 LINE",
"0 3 LINE"
);
},
{
closed = 1;
nodes = (
"1 3 LINE",
"2 3 LINE",
"2 7 LINE",
"1 7 LINE"
);
},
{
closed = 1;
nodes = (
"7 0 LINE",
"8 0 LINE",
"8 3 LINE",
"7 3 LINE"
);
},
{
closed = 1;
nodes = (
"6 3 LINE",
"7 3 LINE",
"7 7 LINE",
"6 7 LINE"
);
},
{
closed = 1;
nodes = (
"5 7 LINE",
"6 7 LINE",
"6 10 LINE",
"5 10 LINE"
);
},
{
closed = 1;
nodes = (
"3 10 LINE",
"5 10 LINE",
"5 11 LINE",
"3 11 LINE"
);
},
{
closed = 1;
nodes = (
"2 7 LINE",
"3 7 LINE",
"3 10 LINE",
"2 10 LINE"
);
},
{
closed = 1;
nodes = (
"2 3 LINE",
"6 3 LINE",
"6 4 LINE",
"2 4 LINE"
);
}
);
width = 8;
}
);
unicode = 00C3;
},
{
glyphname = AE;
lastChange = "2018-09-28 19:05:28 +0000";
layers = (
{
layerId = "F9C0524F-BD24-452A-96F1-149BC18AF880";
paths = (
{
closed = 1;
nodes = (
"2 0 LINE",
"2 3 LINE",
"1 3 LINE",
"1 0 LINE"
);
},
{
closed = 1;
nodes = (
"3 3 LINE",
"3 5 LINE",
"6 5 LINE",
"6 1 LINE",
"7 1 LINE",
"7 5 LINE",
"9 5 LINE",
"9 6 LINE",
"7 6 LINE",
"7 10 LINE",
"6 10 LINE",
"6 6 LINE",
"3 6 LINE",
"3 7 LINE",
"2 7 LINE",
"2 3 LINE"
);
},
{
closed = 1;
nodes = (
"4 7 LINE",
"4 10 LINE",
"3 10 LINE",
"3 7 LINE"
);
},
{
closed = 1;
nodes = (
"6 10 LINE",
"6 11 LINE",
"4 11 LINE",
"4 10 LINE"
);
},
{
closed = 1;
nodes = (
"10 0 LINE",
"10 1 LINE",
"7 1 LINE",
"7 0 LINE"
);
},
{
closed = 1;
nodes = (
"10 10 LINE",
"10 11 LINE",
"7 11 LINE",
"7 10 LINE"
);
}
);
width = 11;
}
);
unicode = 00C6;
},
{
glyphname = B;
lastChange = "2018-09-27 22:33:45 +0000";
layers = (
{
layerId = "F9C0524F-BD24-452A-96F1-149BC18AF880";
paths = (
{
closed = 1;
nodes = (
"1 0 LINE",
"2 0 LINE",
"2 10 LINE",
"1 10 LINE"
);
},
{
closed = 1;
nodes = (
"6 0 LINE",
"6 1 LINE",
"2 1 LINE",
"2 0 LINE"
);
},
{
closed = 1;
nodes = (
"7 1 LINE",
"7 5 LINE",
"6 5 LINE",
"6 1 LINE"
);
},
{
closed = 1;
nodes = (
"6 5 LINE",
"6 6 LINE",
"2 6 LINE",
"2 5 LINE"
);
},
{
closed = 1;
nodes = (
"7 6 LINE",
"7 10 LINE",
"6 10 LINE",
"6 6 LINE"
);
},
{
closed = 1;
nodes = (
"6 10 LINE",
"6 11 LINE",
"2 11 LINE",
"2 10 LINE"
);
}
);
width = 8;
}
);
unicode = 0042;
},
{
glyphname = C;
lastChange = "2018-09-27 22:37:55 +0000";
layers = (
{
layerId = "F9C0524F-BD24-452A-96F1-149BC18AF880";
paths = (
{
closed = 1;
nodes = (
"1 1 LINE",
"2 1 LINE",
"2 10 LINE",
"1 10 LINE"
);
},
{
closed = 1;
nodes = (
"2 0 LINE",
"7 0 LINE",
"7 1 LINE",
"2 1 LINE"
);
},
{
closed = 1;
nodes = (
"2 10 LINE",
"7 10 LINE",
"7 11 LINE",
"2 11 LINE"
);
}
);
width = 8;
}
);
unicode = 0043;
},
{
glyphname = Ccedilla;
lastChange = "2018-09-28 17:01:32 +0000";
layers = (
{
layerId = "F9C0524F-BD24-452A-96F1-149BC18AF880";
paths = (
{
closed = 1;
nodes = (
"1 1 LINE",
"2 1 LINE",
"2 10 LINE",
"1 10 LINE"
);
},
{
closed = 1;
nodes = (
"2 0 LINE",
"7 0 LINE",
"7 1 LINE",
"2 1 LINE"
);
},
{
closed = 1;
nodes = (
"2 10 LINE",
"7 10 LINE",
"7 11 LINE",
"2 11 LINE"
);
},
{
closed = 1;
nodes = (
"5 -2 LINE",
"6 -2 LINE",
"6 -1 LINE",
"5 -1 LINE"
);
},
{
closed = 1;
nodes = (
"4 -1 LINE",
"5 -1 LINE",
"5 0 LINE",
"4 0 LINE"
);
},
{
closed = 1;
nodes = (
"3 -3 LINE",
"5 -3 LINE",
"5 -2 LINE",
"3 -2 LINE"
);
}
);
width = 8;
}
);
unicode = 00C7;
},
{
glyphname = D;
lastChange = "2018-09-27 22:38:13 +0000";
layers = (
{
layerId = "F9C0524F-BD24-452A-96F1-149BC18AF880";
paths = (
{
closed = 1;
nodes = (
"6 10 LINE",
"6 1 LINE",
"7 1 LINE",
"7 10 LINE"
);
},
{
closed = 1;
nodes = (
"1 1 LINE",
"1 0 LINE",
"6 0 LINE",
"6 1 LINE"
);
},
{
closed = 1;
nodes = (
"1 11 LINE",
"1 10 LINE",
"6 10 LINE",
"6 11 LINE"
);
},
{
closed = 1;
nodes = (
"1 1 LINE",
"2 1 LINE",
"2 10 LINE",
"1 10 LINE"
);
}
);
width = 8;
}
);
unicode = 0044;
},
{
glyphname = Eth;
lastChange = "2018-09-28 15:16:29 +0000";
layers = (
{
layerId = "F9C0524F-BD24-452A-96F1-149BC18AF880";
paths = (
{
closed = 1;
nodes = (
"6 10 LINE",
"6 1 LINE",
"7 1 LINE",
"7 10 LINE"
);
},
{
closed = 1;
nodes = (
"1 1 LINE",
"1 0 LINE",
"6 0 LINE",
"6 1 LINE"
);
},
{
closed = 1;
nodes = (
"1 11 LINE",
"1 10 LINE",
"6 10 LINE",
"6 11 LINE"
);
},
{
closed = 1;
nodes = (
"1 1 LINE",
"2 1 LINE",
"2 10 LINE",
"1 10 LINE"
);
},
{
closed = 1;
nodes = (
"0 5 LINE",
"1 5 LINE",
"1 6 LINE",
"0 6 LINE"
);
},
{
closed = 1;
nodes = (
"2 6 LINE",
"4 6 LINE",
"4 7 LINE",
"2 7 LINE"
);
}
);
width = 8;
}
);
unicode = 00D0;
},
{
glyphname = E;
lastChange = "2018-09-27 22:37:14 +0000";
layers = (
{
layerId = "F9C0524F-BD24-452A-96F1-149BC18AF880";
paths = (
{
closed = 1;
nodes = (
"1 1 LINE",
"2 1 LINE",
"2 10 LINE",
"1 10 LINE"
);
},
{
closed = 1;
nodes = (
"2 0 LINE",
"7 0 LINE",
"7 1 LINE",
"2 1 LINE"
);
},
{
closed = 1;
nodes = (
"2 5 LINE",
"6 5 LINE",
"6 6 LINE",
"2 6 LINE"
);
},
{
closed = 1;
nodes = (
"2 10 LINE",
"7 10 LINE",
"7 11 LINE",
"2 11 LINE"
);
}
);
width = 8;
}
);
unicode = 0045;
},
{
glyphname = Eacute;
lastChange = "2018-09-28 18:13:22 +0000";
layers = (
{
layerId = "F9C0524F-BD24-452A-96F1-149BC18AF880";
paths = (
{
closed = 1;
nodes = (
"5 15 LINE",
"5 14 LINE",
"6 14 LINE",
"6 15 LINE"
);
},
{
closed = 1;
nodes = (
"4 14 LINE",
"4 13 LINE",
"5 13 LINE",
"5 14 LINE"
);
},
{
closed = 1;
nodes = (
"3 13 LINE",
"3 12 LINE",
"4 12 LINE",
"4 13 LINE"
);
},
{
closed = 1;
nodes = (
"1 1 LINE",
"2 1 LINE",
"2 10 LINE",
"1 10 LINE"
);
},
{
closed = 1;
nodes = (
"2 0 LINE",
"7 0 LINE",
"7 1 LINE",
"2 1 LINE"
);
},
{
closed = 1;
nodes = (
"2 5 LINE",
"6 5 LINE",
"6 6 LINE",
"2 6 LINE"
);
},
{
closed = 1;
nodes = (
"2 10 LINE",
"7 10 LINE",
"7 11 LINE",
"2 11 LINE"
);
}
);
width = 8;
}
);
unicode = 00C9;
},
{
glyphname = Edieresis;
lastChange = "2018-09-28 18:28:31 +0000";
layers = (
{
components = (
{
name = dieresis;
transform = "{1, 0, 0, 1, 2, 3}";
}
);
layerId = "F9C0524F-BD24-452A-96F1-149BC18AF880";
paths = (
{
closed = 1;
nodes = (
"1 1 LINE",
"2 1 LINE",
"2 10 LINE",
"1 10 LINE"
);
},
{
closed = 1;
nodes = (
"2 0 LINE",
"7 0 LINE",
"7 1 LINE",
"2 1 LINE"
);
},
{
closed = 1;
nodes = (
"2 5 LINE",
"6 5 LINE",
"6 6 LINE",
"2 6 LINE"
);
},
{
closed = 1;
nodes = (
"2 10 LINE",
"7 10 LINE",
"7 11 LINE",
"2 11 LINE"
);
}
);
width = 8;
}
);
unicode = 00CB;
},
{
glyphname = Egrave;
lastChange = "2018-09-28 18:30:43 +0000";
layers = (
{
components = (
{
name = grave;
transform = "{1, 0, 0, 1, 1, 3}";
}
);
layerId = "F9C0524F-BD24-452A-96F1-149BC18AF880";
paths = (
{
closed = 1;
nodes = (
"1 1 LINE",
"2 1 LINE",
"2 10 LINE",
"1 10 LINE"
);
},
{
closed = 1;
nodes = (
"2 0 LINE",
"7 0 LINE",
"7 1 LINE",
"2 1 LINE"
);
},
{
closed = 1;
nodes = (
"2 5 LINE",
"6 5 LINE",
"6 6 LINE",
"2 6 LINE"
);
},
{
closed = 1;
nodes = (
"2 10 LINE",
"7 10 LINE",
"7 11 LINE",
"2 11 LINE"
);
}
);
width = 8;
}
);
unicode = 00C8;
},
{
glyphname = F;
lastChange = "2018-09-28 15:01:46 +0000";
layers = (
{
layerId = "F9C0524F-BD24-452A-96F1-149BC18AF880";
paths = (
{
closed = 1;
nodes = (
"1 0 LINE",
"2 0 LINE",
"2 10 LINE",
"1 10 LINE"
);
},
{
closed = 1;
nodes = (
"2 5 LINE",
"6 5 LINE",
"6 6 LINE",
"2 6 LINE"
);
},
{
closed = 1;
nodes = (
"2 10 LINE",
"7 10 LINE",
"7 11 LINE",
"2 11 LINE"
);
}
);
width = 7;
}
);
unicode = 0046;
},
{
glyphname = G;
lastChange = "2018-09-27 22:39:03 +0000";
layers = (
{
layerId = "F9C0524F-BD24-452A-96F1-149BC18AF880";
paths = (
{
closed = 1;
nodes = (
"1 1 LINE",
"2 1 LINE",
"2 10 LINE",
"1 10 LINE"
);
},
{
closed = 1;
nodes = (
"2 0 LINE",
"6 0 LINE",
"6 1 LINE",
"2 1 LINE"
);
},
{
closed = 1;
nodes = (
"2 10 LINE",
"7 10 LINE",
"7 11 LINE",
"2 11 LINE"
);
},
{
closed = 1;
nodes = (
"6 5 LINE",
"6 1 LINE",
"7 1 LINE",
"7 5 LINE"
);
},
{
closed = 1;
nodes = (
"4 6 LINE",
"4 5 LINE",
"6 5 LINE",
"6 6 LINE"
);
}
);
width = 8;
}
);
unicode = 0047;
},
{
glyphname = H;
lastChange = "2018-09-27 22:37:29 +0000";
layers = (
{
layerId = "F9C0524F-BD24-452A-96F1-149BC18AF880";
paths = (
{
closed = 1;
nodes = (
"1 0 LINE",
"2 0 LINE",
"2 11 LINE",
"1 11 LINE"
);
},
{
closed = 1;
nodes = (
"7 0 LINE",
"8 0 LINE",
"8 11 LINE",
"7 11 LINE"
);
},
{
closed = 1;
nodes = (
"2 5 LINE",
"5 5 LINE",
"5 6 LINE",
"2 6 LINE"
);
},
{
closed = 1;
nodes = (
"5 6 LINE",
"7 6 LINE",
"7 7 LINE",
"5 7 LINE"
);
}
);
width = 9;
}
);
unicode = 0048;
},
{
glyphname = Hbar;
lastChange = "2018-09-28 20:42:49 +0000";
layers = (
{
layerId = "F9C0524F-BD24-452A-96F1-149BC18AF880";
paths = (
{
closed = 1;
nodes = (
"1 0 LINE",
"2 0 LINE",
"2 11 LINE",
"1 11 LINE"
);
},
{
closed = 1;
nodes = (
"7 0 LINE",
"8 0 LINE",
"8 11 LINE",
"7 11 LINE"
);
},
{
closed = 1;
nodes = (
"2 7 LINE",
"5 7 LINE",
"5 8 LINE",
"2 8 LINE"
);
},
{
closed = 1;
nodes = (
"5 8 LINE",
"7 8 LINE",
"7 9 LINE",
"5 9 LINE"
);
},
{
closed = 1;
nodes = (
"2 4 LINE",
"5 4 LINE",
"5 5 LINE",
"2 5 LINE"
);
},
{
closed = 1;
nodes = (
"5 5 LINE",
"7 5 LINE",
"7 6 LINE",
"5 6 LINE"
);
}
);
width = 9;
}
);
unicode = 0126;
},
{
glyphname = I;
lastChange = "2018-09-27 22:39:37 +0000";
layers = (
{
layerId = "F9C0524F-BD24-452A-96F1-149BC18AF880";
paths = (
{
closed = 1;
nodes = (
"2 0 LINE",
"3 0 LINE",
"3 11 LINE",
"2 11 LINE"
);
},
{
closed = 1;
nodes = (
"1 10 LINE",
"4 10 LINE",
"4 11 LINE",
"1 11 LINE"
);
},
{
closed = 1;
nodes = (
"1 0 LINE",
"4 0 LINE",
"4 1 LINE",
"1 1 LINE"
);
}
);
width = 5;
}
);
unicode = 0049;
},
{
glyphname = Iacute;
lastChange = "2018-09-28 18:29:32 +0000";
layers = (
{
components = (
{
name = acute;
transform = "{1, 0, 0, 1, 1, 3}";
}
);
layerId = "F9C0524F-BD24-452A-96F1-149BC18AF880";
paths = (
{
closed = 1;
nodes = (
"2 0 LINE",
"3 0 LINE",
"3 11 LINE",
"2 11 LINE"
);
},
{
closed = 1;
nodes = (
"1 10 LINE",
"4 10 LINE",
"4 11 LINE",
"1 11 LINE"
);
},
{
closed = 1;
nodes = (
"1 0 LINE",
"4 0 LINE",
"4 1 LINE",
"1 1 LINE"
);
}
);
width = 5;
}
);
unicode = 00CD;
},
{
glyphname = Idieresis;
lastChange = "2018-09-28 18:30:00 +0000";
layers = (
{
layerId = "F9C0524F-BD24-452A-96F1-149BC18AF880";
paths = (
{
closed = 1;
nodes = (
"2 0 LINE",
"3 0 LINE",
"3 11 LINE",
"2 11 LINE"
);
},
{
closed = 1;
nodes = (
"1 10 LINE",
"4 10 LINE",
"4 11 LINE",
"1 11 LINE"
);
},
{
closed = 1;
nodes = (
"1 0 LINE",
"4 0 LINE",
"4 1 LINE",
"1 1 LINE"
);
},
{
closed = 1;
nodes = (
"1 12 LINE",
"2 12 LINE",
"2 13 LINE",
"1 13 LINE"
);
},
{
closed = 1;
nodes = (
"3 12 LINE",
"4 12 LINE",
"4 13 LINE",
"3 13 LINE"
);
}
);
width = 5;
}
);
unicode = 00CF;
},
{
glyphname = Igrave;
lastChange = "2018-09-28 18:30:14 +0000";
layers = (
{
components = (
{
name = grave;
transform = "{1, 0, 0, 1, 0, 3}";
}
);
layerId = "F9C0524F-BD24-452A-96F1-149BC18AF880";
paths = (
{
closed = 1;
nodes = (
"2 0 LINE",
"3 0 LINE",
"3 11 LINE",
"2 11 LINE"
);
},
{
closed = 1;
nodes = (
"1 10 LINE",
"4 10 LINE",
"4 11 LINE",
"1 11 LINE"
);
},
{
closed = 1;
nodes = (
"1 0 LINE",
"4 0 LINE",
"4 1 LINE",
"1 1 LINE"
);
}
);
width = 5;
}
);
unicode = 00CC;
},
{
glyphname = Imacron;
lastChange = "2018-09-28 20:31:37 +0000";
layers = (
{
components = (
{
name = I;
}
);
layerId = "F9C0524F-BD24-452A-96F1-149BC18AF880";
paths = (
{
closed = 1;
nodes = (
"1 12 LINE",
"4 12 LINE",
"4 13 LINE",
"1 13 LINE"
);
}
);
width = 5;
}
);
unicode = 012A;
},
{
glyphname = J;
lastChange = "2018-09-27 22:40:00 +0000";
layers = (
{
layerId = "F9C0524F-BD24-452A-96F1-149BC18AF880";
paths = (
{
closed = 1;
nodes = (
"5 10 LINE",
"5 1 LINE",
"6 1 LINE",
"6 10 LINE"
);
},
{
closed = 1;
nodes = (
"2 1 LINE",
"2 0 LINE",
"5 0 LINE",
"5 1 LINE"
);
},
{
closed = 1;
nodes = (
"3 11 LINE",
"3 10 LINE",
"5 10 LINE",
"5 11 LINE"
);
},
{
closed = 1;
nodes = (
"1 1 LINE",
"2 1 LINE",
"2 5 LINE",
"1 5 LINE"
);
}
);
width = 7;
}
);
unicode = 004A;
},
{
glyphname = K;
lastChange = "2018-09-28 00:24:42 +0000";
layers = (
{
layerId = "F9C0524F-BD24-452A-96F1-149BC18AF880";
paths = (
{
closed = 1;
nodes = (
"1 0 LINE",
"2 0 LINE",
"2 11 LINE",
"1 11 LINE"
);
},
{
closed = 1;
nodes = (
"2 5 LINE",
"3 5 LINE",
"3 6 LINE",
"2 6 LINE"
);
},
{
closed = 1;
nodes = (
"4 7 LINE",
"5 7 LINE",
"5 8 LINE",
"4 8 LINE"
);
},
{
closed = 1;
nodes = (
"4 3 LINE",
"5 3 LINE",
"5 4 LINE",
"4 4 LINE"
);
},
{
closed = 1;
nodes = (
"5 8 LINE",
"6 8 LINE",
"6 9 LINE",
"5 9 LINE"
);
},
{
closed = 1;
nodes = (
"5 2 LINE",
"6 2 LINE",
"6 3 LINE",
"5 3 LINE"
);
},
{
closed = 1;
nodes = (
"6 9 LINE",
"7 9 LINE",
"7 11 LINE",
"6 11 LINE"
);
},
{
closed = 1;
nodes = (
"6 0 LINE",
"7 0 LINE",
"7 2 LINE",
"6 2 LINE"
);
},
{
closed = 1;
nodes = (
"3 6 LINE",
"4 6 LINE",
"4 7 LINE",
"3 7 LINE"
);
},
{
closed = 1;
nodes = (
"3 4 LINE",
"4 4 LINE",
"4 5 LINE",
"3 5 LINE"
);
}
);
width = 8;
}
);
unicode = 004B;
},
{
glyphname = L;
lastChange = "2018-09-28 00:25:23 +0000";
layers = (
{
layerId = "F9C0524F-BD24-452A-96F1-149BC18AF880";
paths = (
{
closed = 1;
nodes = (
"1 1 LINE",
"2 1 LINE",
"2 11 LINE",
"1 11 LINE"
);
},
{
closed = 1;
nodes = (
"2 0 LINE",
"6 0 LINE",
"6 1 LINE",
"2 1 LINE"
);
}
);
width = 7;
}
);
unicode = 004C;
},
{
glyphname = Lslash;
lastChange = "2018-09-28 15:08:08 +0000";
layers = (
{
layerId = "F9C0524F-BD24-452A-96F1-149BC18AF880";
paths = (
{
closed = 1;
nodes = (
"1 1 LINE",
"2 1 LINE",
"2 11 LINE",
"1 11 LINE"
);
},
{
closed = 1;
nodes = (
"2 0 LINE",
"6 0 LINE",
"6 1 LINE",
"2 1 LINE"
);
},
{
closed = 1;
nodes = (
"2 6 LINE",
"4 6 LINE",
"4 7 LINE",
"2 7 LINE"
);
},
{
closed = 1;
nodes = (
"0 5 LINE",
"1 5 LINE",
"1 6 LINE",
"0 6 LINE"
);
}
);
width = 7;
}
);
unicode = 0141;
},
{
glyphname = M;
lastChange = "2018-09-27 22:36:34 +0000";
layers = (
{
layerId = "F9C0524F-BD24-452A-96F1-149BC18AF880";
paths = (
{
closed = 1;
nodes = (
"1 0 LINE",
"2 0 LINE",
"2 10 LINE",
"1 10 LINE"
);
},
{
closed = 1;
nodes = (
"4 3 LINE",
"5 3 LINE",
"5 7 LINE",
"4 7 LINE"
);
},
{
closed = 1;
nodes = (
"3 7 LINE",
"4 7 LINE",
"4 10 LINE",
"3 10 LINE"
);
},
{
closed = 1;
nodes = (
"2 10 LINE",
"3 10 LINE",
"3 11 LINE",
"2 11 LINE"
);
},
{
closed = 1;
nodes = (
"5 0 LINE",
"6 0 LINE",
"6 3 LINE",
"5 3 LINE"
);
},
{
closed = 1;
nodes = (
"6 3 LINE",
"7 3 LINE",
"7 7 LINE",
"6 7 LINE"
);
},
{
closed = 1;
nodes = (
"9 0 LINE",
"10 0 LINE",
"10 10 LINE",
"9 10 LINE"
);
},
{
closed = 1;
nodes = (
"8 10 LINE",
"9 10 LINE",
"9 11 LINE",
"8 11 LINE"
);
},
{
closed = 1;
nodes = (
"7 7 LINE",
"8 7 LINE",
"8 10 LINE",
"7 10 LINE"
);
}
);
width = 11;
}
);
unicode = 004D;
},
{
glyphname = N;
lastChange = "2018-09-28 15:02:26 +0000";
layers = (
{
layerId = "F9C0524F-BD24-452A-96F1-149BC18AF880";
paths = (
{
closed = 1;
nodes = (
"1 0 LINE",
"2 0 LINE",
"2 10 LINE",
"1 10 LINE"
);
},
{
closed = 1;
nodes = (
"3 6 LINE",
"4 6 LINE",
"4 10 LINE",
"3 10 LINE"
);
},
{
closed = 1;
nodes = (
"2 10 LINE",
"3 10 LINE",
"3 11 LINE",
"2 11 LINE"
);
},
{
closed = 1;
nodes = (
"4 1 LINE",
"5 1 LINE",
"5 6 LINE",
"4 6 LINE"
);
},
{
closed = 1;
nodes = (
"6 0 LINE",
"7 0 LINE",
"7 11 LINE",
"6 11 LINE"
);
},
{
closed = 1;
nodes = (
"5 0 LINE",
"6 0 LINE",
"6 1 LINE",
"5 1 LINE"
);
}
);
width = 8;
}
);
unicode = 004E;
},
{
glyphname = Eng;
lastChange = "2018-09-28 20:33:11 +0000";
layers = (
{
layerId = "F9C0524F-BD24-452A-96F1-149BC18AF880";
paths = (
{
closed = 1;
nodes = (
"2 0 LINE",
"2 10 LINE",
"1 10 LINE",
"1 0 LINE"
);
},
{
closed = 1;
nodes = (
"3 10 LINE",
"3 11 LINE",
"2 11 LINE",
"2 10 LINE"
);
},
{
closed = 1;
nodes = (
"4 6 LINE",
"4 10 LINE",
"3 10 LINE",
"3 6 LINE"
);
},
{
closed = 1;
nodes = (
"5 -3 LINE",
"5 -2 LINE",
"4 -2 LINE",
"4 -3 LINE"
);
},
{
closed = 1;
nodes = (
"5 1 LINE",
"5 6 LINE",
"4 6 LINE",
"4 1 LINE"
);
},
{
closed = 1;
nodes = (
"6 -4 LINE",
"6 -3 LINE",
"5 -3 LINE",
"5 -4 LINE"
);
},
{
closed = 1;
nodes = (
"6 0 LINE",
"6 -3 LINE",
"7 -3 LINE",
"7 11 LINE",
"6 11 LINE",
"6 1 LINE",
"5 1 LINE",
"5 0 LINE"
);
}
);
width = 8;
}
);
unicode = 014A;
},
{
glyphname = O;
lastChange = "2018-09-28 00:29:45 +0000";
layers = (
{
layerId = "F9C0524F-BD24-452A-96F1-149BC18AF880";
paths = (
{
closed = 1;
nodes = (
"3 10 LINE",
"5 10 LINE",
"5 11 LINE",
"3 11 LINE"
);
},
{
closed = 1;
nodes = (
"2 9 LINE",
"3 9 LINE",
"3 10 LINE",
"2 10 LINE"
);
},
{
closed = 1;
nodes = (
"5 9 LINE",
"6 9 LINE",
"6 10 LINE",
"5 10 LINE"
);
},
{
closed = 1;
nodes = (
"1 2 LINE",
"2 2 LINE",
"2 9 LINE",
"1 9 LINE"
);
},
{
closed = 1;
nodes = (
"6 2 LINE",
"7 2 LINE",
"7 9 LINE",
"6 9 LINE"
);
},
{
closed = 1;
nodes = (
"5 0 LINE",
"5 1 LINE",
"3 1 LINE",
"3 0 LINE"
);
},
{
closed = 1;
nodes = (
"3 1 LINE",
"3 2 LINE",
"2 2 LINE",
"2 1 LINE"
);
},
{
closed = 1;
nodes = (
"6 1 LINE",
"6 2 LINE",
"5 2 LINE",
"5 1 LINE"
);
}
);
width = 8;
}
);
unicode = 004F;
},
{
glyphname = Oacute;
lastChange = "2018-09-28 18:31:14 +0000";
layers = (
{
components = (
{
name = acute;
transform = "{1, 0, 0, 1, 2, 3}";
}
);
layerId = "F9C0524F-BD24-452A-96F1-149BC18AF880";
paths = (
{
closed = 1;
nodes = (
"3 10 LINE",
"5 10 LINE",
"5 11 LINE",
"3 11 LINE"
);
},
{
closed = 1;
nodes = (
"2 9 LINE",
"3 9 LINE",
"3 10 LINE",
"2 10 LINE"
);
},
{
closed = 1;
nodes = (
"5 9 LINE",
"6 9 LINE",
"6 10 LINE",
"5 10 LINE"
);
},
{
closed = 1;
nodes = (
"1 2 LINE",
"2 2 LINE",
"2 9 LINE",
"1 9 LINE"
);
},
{
closed = 1;
nodes = (
"6 2 LINE",
"7 2 LINE",
"7 9 LINE",
"6 9 LINE"
);
},
{
closed = 1;
nodes = (
"5 0 LINE",
"5 1 LINE",
"3 1 LINE",
"3 0 LINE"
);
},
{
closed = 1;
nodes = (
"3 1 LINE",
"3 2 LINE",
"2 2 LINE",
"2 1 LINE"
);
},
{
closed = 1;
nodes = (
"6 1 LINE",
"6 2 LINE",
"5 2 LINE",
"5 1 LINE"
);
}
);
width = 8;
}
);
unicode = 00D3;
},
{
glyphname = Odieresis;
lastChange = "2018-09-28 18:14:29 +0000";
layers = (
{
components = (
{
name = O;
}
);
layerId = "F9C0524F-BD24-452A-96F1-149BC18AF880";
paths = (
{
closed = 1;
nodes = (
"1 11 LINE",
"2 11 LINE",
"2 12 LINE",
"1 12 LINE"
);
},
{
closed = 1;
nodes = (
"6 11 LINE",
"7 11 LINE",
"7 12 LINE",
"6 12 LINE"
);
}
);
width = 8;
}
);
unicode = 00D6;
},
{
glyphname = Ograve;
lastChange = "2018-09-28 18:31:29 +0000";
layers = (
{
components = (
{
name = grave;
transform = "{1, 0, 0, 1, 1, 3}";
}
);
layerId = "F9C0524F-BD24-452A-96F1-149BC18AF880";
paths = (
{
closed = 1;
nodes = (
"3 10 LINE",
"5 10 LINE",
"5 11 LINE",
"3 11 LINE"
);
},
{
closed = 1;
nodes = (
"2 9 LINE",
"3 9 LINE",
"3 10 LINE",
"2 10 LINE"
);
},
{
closed = 1;
nodes = (
"5 9 LINE",
"6 9 LINE",
"6 10 LINE",
"5 10 LINE"
);
},
{
closed = 1;
nodes = (
"1 2 LINE",
"2 2 LINE",
"2 9 LINE",
"1 9 LINE"
);
},
{
closed = 1;
nodes = (
"6 2 LINE",
"7 2 LINE",
"7 9 LINE",
"6 9 LINE"
);
},
{
closed = 1;
nodes = (
"5 0 LINE",
"5 1 LINE",
"3 1 LINE",
"3 0 LINE"
);
},
{
closed = 1;
nodes = (
"3 1 LINE",
"3 2 LINE",
"2 2 LINE",
"2 1 LINE"
);
},
{
closed = 1;
nodes = (
"6 1 LINE",
"6 2 LINE",
"5 2 LINE",
"5 1 LINE"
);
}
);
width = 8;
}
);
unicode = 00D2;
},
{
glyphname = Oslash;
lastChange = "2018-09-28 19:07:21 +0000";
layers = (
{
components = (
{
name = O;
}
);
layerId = "F9C0524F-BD24-452A-96F1-149BC18AF880";
paths = (
{
closed = 1;
nodes = (
"1 0 LINE",
"2 0 LINE",
"2 1 LINE",
"1 1 LINE"
);
},
{
closed = 1;
nodes = (
"3 2 LINE",
"4 2 LINE",
"4 6 LINE",
"3 6 LINE"
);
},
{
closed = 1;
nodes = (
"4 6 LINE",
"5 6 LINE",
"5 9 LINE",
"4 9 LINE"
);
},
{
closed = 1;
nodes = (
"6 10 LINE",
"7 10 LINE",
"7 11 LINE",
"6 11 LINE"
);
}
);
width = 8;
}
);
unicode = 00D8;
},
{
glyphname = Otilde;
lastChange = "2018-09-28 19:44:25 +0000";
layers = (
{
layerId = "F9C0524F-BD24-452A-96F1-149BC18AF880";
paths = (
{
closed = 1;
nodes = (
"2 12 LINE",
"3 12 LINE",
"3 13 LINE",
"2 13 LINE"
);
},
{
closed = 1;
nodes = (
"3 13 LINE",
"5 13 LINE",
"5 14 LINE",
"3 14 LINE"
);
},
{
closed = 1;
nodes = (
"5 12 LINE",
"6 12 LINE",
"6 13 LINE",
"5 13 LINE"
);
},
{
closed = 1;
nodes = (
"6 13 LINE",
"7 13 LINE",
"7 14 LINE",
"6 14 LINE"
);
},
{
closed = 1;
nodes = (
"3 10 LINE",
"5 10 LINE",
"5 11 LINE",
"3 11 LINE"
);
},
{
closed = 1;
nodes = (
"2 9 LINE",
"3 9 LINE",
"3 10 LINE",
"2 10 LINE"
);
},
{
closed = 1;
nodes = (
"5 9 LINE",
"6 9 LINE",
"6 10 LINE",
"5 10 LINE"
);
},
{
closed = 1;
nodes = (
"1 2 LINE",
"2 2 LINE",
"2 9 LINE",
"1 9 LINE"
);
},
{
closed = 1;
nodes = (
"6 2 LINE",
"7 2 LINE",
"7 9 LINE",
"6 9 LINE"
);
},
{
closed = 1;
nodes = (
"5 0 LINE",
"5 1 LINE",
"3 1 LINE",
"3 0 LINE"
);
},
{
closed = 1;
nodes = (
"3 1 LINE",
"3 2 LINE",
"2 2 LINE",
"2 1 LINE"
);
},
{
closed = 1;
nodes = (
"6 1 LINE",
"6 2 LINE",
"5 2 LINE",
"5 1 LINE"
);
}
);
width = 8;
}
);
unicode = 00D5;
},
{
glyphname = OE;
lastChange = "2018-09-28 19:45:27 +0000";
layers = (
{
layerId = "F9C0524F-BD24-452A-96F1-149BC18AF880";
paths = (
{
closed = 1;
nodes = (
"4 1 LINE",
"5 1 LINE",
"5 10 LINE",
"4 10 LINE"
);
},
{
closed = 1;
nodes = (
"5 0 LINE",
"8 0 LINE",
"8 1 LINE",
"5 1 LINE"
);
},
{
closed = 1;
nodes = (
"5 5 LINE",
"7 5 LINE",
"7 6 LINE",
"5 6 LINE"
);
},
{
closed = 1;
nodes = (
"5 10 LINE",
"8 10 LINE",
"8 11 LINE",
"5 11 LINE"
);
},
{
closed = 1;
nodes = (
"3 10 LINE",
"4 10 LINE",
"4 11 LINE",
"3 11 LINE"
);
},
{
closed = 1;
nodes = (
"2 9 LINE",
"3 9 LINE",
"3 10 LINE",
"2 10 LINE"
);
},
{
closed = 1;
nodes = (
"1 2 LINE",
"2 2 LINE",
"2 9 LINE",
"1 9 LINE"
);
},
{
closed = 1;
nodes = (
"4 0 LINE",
"4 1 LINE",
"3 1 LINE",
"3 0 LINE"
);
},
{
closed = 1;
nodes = (
"3 1 LINE",
"3 2 LINE",
"2 2 LINE",
"2 1 LINE"
);
}
);
width = 9;
}
);
unicode = 0152;
},
{
glyphname = P;
lastChange = "2018-09-28 00:30:45 +0000";
layers = (
{
layerId = "F9C0524F-BD24-452A-96F1-149BC18AF880";
paths = (
{
closed = 1;
nodes = (
"1 0 LINE",
"2 0 LINE",
"2 10 LINE",
"1 10 LINE"
);
},
{
closed = 1;
nodes = (
"6 5 LINE",
"6 6 LINE",
"2 6 LINE",
"2 5 LINE"
);
},
{
closed = 1;
nodes = (
"7 6 LINE",
"7 10 LINE",
"6 10 LINE",
"6 6 LINE"
);
},
{
closed = 1;
nodes = (
"6 10 LINE",
"6 11 LINE",
"2 11 LINE",
"2 10 LINE"
);
}
);
width = 8;
}
);
unicode = 0050;
},
{
glyphname = Thorn;
lastChange = "2018-09-28 18:27:30 +0000";
layers = (
{
layerId = "F9C0524F-BD24-452A-96F1-149BC18AF880";
paths = (
{
closed = 1;
nodes = (
"1 0 LINE",
"2 0 LINE",
"2 10 LINE",
"1 10 LINE"
);
},
{
closed = 1;
nodes = (
"6 2 LINE",
"6 3 LINE",
"2 3 LINE",
"2 2 LINE"
);
},
{
closed = 1;
nodes = (
"7 3 LINE",
"7 7 LINE",
"6 7 LINE",
"6 3 LINE"
);
},
{
closed = 1;
nodes = (
"6 7 LINE",
"6 8 LINE",
"2 8 LINE",
"2 7 LINE"
);
}
);
width = 8;
}
);
unicode = 00DE;
},
{
glyphname = Q;
lastChange = "2018-09-28 00:33:02 +0000";
layers = (
{
layerId = "F9C0524F-BD24-452A-96F1-149BC18AF880";
paths = (
{
closed = 1;
nodes = (
"3 10 LINE",
"5 10 LINE",
"5 11 LINE",
"3 11 LINE"
);
},
{
closed = 1;
nodes = (
"2 9 LINE",
"3 9 LINE",
"3 10 LINE",
"2 10 LINE"
);
},
{
closed = 1;
nodes = (
"5 9 LINE",
"6 9 LINE",
"6 10 LINE",
"5 10 LINE"
);
},
{
closed = 1;
nodes = (
"1 2 LINE",
"2 2 LINE",
"2 9 LINE",
"1 9 LINE"
);
},
{
closed = 1;
nodes = (
"6 2 LINE",
"7 2 LINE",
"7 9 LINE",
"6 9 LINE"
);
},
{
closed = 1;
nodes = (
"5 0 LINE",
"5 1 LINE",
"3 1 LINE",
"3 0 LINE"
);
},
{
closed = 1;
nodes = (
"3 1 LINE",
"3 2 LINE",
"2 2 LINE",
"2 1 LINE"
);
},
{
closed = 1;
nodes = (
"6 1 LINE",
"6 2 LINE",
"5 2 LINE",
"5 1 LINE"
);
},
{
closed = 1;
nodes = (
"6 -2 LINE",
"6 0 LINE",
"5 0 LINE",
"5 -2 LINE"
);
},
{
closed = 1;
nodes = (
"5 1 LINE",
"5 3 LINE",
"4 3 LINE",
"4 1 LINE"
);
}
);
width = 8;
}
);
unicode = 0051;
},
{
glyphname = R;
lastChange = "2018-09-28 19:14:27 +0000";
layers = (
{
layerId = "F9C0524F-BD24-452A-96F1-149BC18AF880";
paths = (
{
closed = 1;
nodes = (
"1 0 LINE",
"2 0 LINE",
"2 10 LINE",
"1 10 LINE"
);
},
{
closed = 1;
nodes = (
"5 5 LINE",
"5 6 LINE",
"2 6 LINE",
"2 5 LINE"
);
},
{
closed = 1;
nodes = (
"7 7 LINE",
"7 10 LINE",
"6 10 LINE",
"6 7 LINE"
);
},
{
closed = 1;
nodes = (
"6 10 LINE",
"6 11 LINE",
"1 11 LINE",
"1 10 LINE"
);
},
{
closed = 1;
nodes = (
"6 1 LINE",
"7 1 LINE",
"7 3 LINE",
"6 3 LINE"
);
},
{
closed = 1;
nodes = (
"7 0 LINE",
"8 0 LINE",
"8 1 LINE",
"7 1 LINE"
);
},
{
closed = 1;
nodes = (
"5 3 LINE",
"6 3 LINE",
"6 5 LINE",
"5 5 LINE"
);
},
{
closed = 1;
nodes = (
"5 6 LINE",
"6 6 LINE",
"6 7 LINE",
"5 7 LINE"
);
}
);
width = 8;
}
);
unicode = 0052;
},
{
glyphname = S;
lastChange = "2018-09-28 00:34:52 +0000";
layers = (
{
layerId = "F9C0524F-BD24-452A-96F1-149BC18AF880";
paths = (
{
closed = 1;
nodes = (
"5 6 LINE",
"3 6 LINE",
"3 5 LINE",
"5 5 LINE"
);
},
{
closed = 1;
nodes = (
"2 10 LINE",
"1 10 LINE",
"1 7 LINE",
"2 7 LINE"
);
},
{
closed = 1;
nodes = (
"6 11 LINE",
"2 11 LINE",
"2 10 LINE",
"6 10 LINE"
);
},
{
closed = 1;
nodes = (
"2 7 LINE",
"2 6 LINE",
"3 6 LINE",
"3 7 LINE"
);
},
{
closed = 1;
nodes = (
"6 1 LINE",
"7 1 LINE",
"7 4 LINE",
"6 4 LINE"
);
},
{
closed = 1;
nodes = (
"1 0 LINE",
"6 0 LINE",
"6 1 LINE",
"1 1 LINE"
);
},
{
closed = 1;
nodes = (
"6 4 LINE",
"6 5 LINE",
"5 5 LINE",
"5 4 LINE"
);
},
{
closed = 1;
nodes = (
"6 10 LINE",
"6 9 LINE",
"7 9 LINE",
"7 10 LINE"
);
}
);
width = 8;
}
);
unicode = 0053;
},
{
glyphname = Scaron;
lastChange = "2018-09-28 18:27:00 +0000";
layers = (
{
components = (
{
name = caron;
transform = "{1, 0, 0, 1, 1, 3}";
}
);
layerId = "F9C0524F-BD24-452A-96F1-149BC18AF880";
paths = (
{
closed = 1;
nodes = (
"5 6 LINE",
"3 6 LINE",
"3 5 LINE",
"5 5 LINE"
);
},
{
closed = 1;
nodes = (
"2 10 LINE",
"1 10 LINE",
"1 7 LINE",
"2 7 LINE"
);
},
{
closed = 1;
nodes = (
"6 11 LINE",
"2 11 LINE",
"2 10 LINE",
"6 10 LINE"
);
},
{
closed = 1;
nodes = (
"2 7 LINE",
"2 6 LINE",
"3 6 LINE",
"3 7 LINE"
);
},
{
closed = 1;
nodes = (
"6 1 LINE",
"7 1 LINE",
"7 4 LINE",
"6 4 LINE"
);
},
{
closed = 1;
nodes = (
"1 0 LINE",
"6 0 LINE",
"6 1 LINE",
"1 1 LINE"
);
},
{
closed = 1;
nodes = (
"6 4 LINE",
"6 5 LINE",
"5 5 LINE",
"5 4 LINE"
);
},
{
closed = 1;
nodes = (
"6 10 LINE",
"6 9 LINE",
"7 9 LINE",
"7 10 LINE"
);
}
);
width = 8;
}
);
unicode = 0160;
},
{
glyphname = T;
lastChange = "2018-09-28 00:35:38 +0000";
layers = (
{
layerId = "F9C0524F-BD24-452A-96F1-149BC18AF880";
paths = (
{
closed = 1;
nodes = (
"7 11 LINE",
"0 11 LINE",
"0 10 LINE",
"7 10 LINE"
);
},
{
closed = 1;
nodes = (
"3 0 LINE",
"4 0 LINE",
"4 10 LINE",
"3 10 LINE"
);
}
);
width = 7;
}
);
unicode = 0054;
},
{
glyphname = Tbar;
lastChange = "2018-09-28 20:39:20 +0000";
layers = (
{
components = (
{
name = T;
}
);
layerId = "F9C0524F-BD24-452A-96F1-149BC18AF880";
paths = (
{
closed = 1;
nodes = (
"1 6 LINE",
"6 6 LINE",
"6 7 LINE",
"1 7 LINE"
);
}
);
width = 7;
}
);
unicode = 0166;
},
{
glyphname = U;
lastChange = "2018-09-28 00:36:19 +0000";
layers = (
{
layerId = "F9C0524F-BD24-452A-96F1-149BC18AF880";
paths = (
{
closed = 1;
nodes = (
"1 2 LINE",
"2 2 LINE",
"2 11 LINE",
"1 11 LINE"
);
},
{
closed = 1;
nodes = (
"6 2 LINE",
"7 2 LINE",
"7 11 LINE",
"6 11 LINE"
);
},
{
closed = 1;
nodes = (
"5 0 LINE",
"5 1 LINE",
"3 1 LINE",
"3 0 LINE"
);
},
{
closed = 1;
nodes = (
"3 1 LINE",
"3 2 LINE",
"2 2 LINE",
"2 1 LINE"
);
},
{
closed = 1;
nodes = (
"6 1 LINE",
"6 2 LINE",
"5 2 LINE",
"5 1 LINE"
);
}
);
width = 8;
}
);
unicode = 0055;
},
{
glyphname = Uacute;
lastChange = "2018-09-28 20:18:57 +0000";
layers = (
{
components = (
{
name = acute;
transform = "{1, 0, 0, 1, 2, 3}";
}
);
layerId = "F9C0524F-BD24-452A-96F1-149BC18AF880";
paths = (
{
closed = 1;
nodes = (
"1 2 LINE",
"2 2 LINE",
"2 11 LINE",
"1 11 LINE"
);
},
{
closed = 1;
nodes = (
"6 2 LINE",
"7 2 LINE",
"7 11 LINE",
"6 11 LINE"
);
},
{
closed = 1;
nodes = (
"5 0 LINE",
"5 1 LINE",
"3 1 LINE",
"3 0 LINE"
);
},
{
closed = 1;
nodes = (
"3 1 LINE",
"3 2 LINE",
"2 2 LINE",
"2 1 LINE"
);
},
{
closed = 1;
nodes = (
"6 1 LINE",
"6 2 LINE",
"5 2 LINE",
"5 1 LINE"
);
}
);
width = 8;
}
);
unicode = 00DA;
},
{
glyphname = Udieresis;
lastChange = "2018-09-28 18:15:20 +0000";
layers = (
{
components = (
{
name = U;
}
);
layerId = "F9C0524F-BD24-452A-96F1-149BC18AF880";
paths = (
{
closed = 1;
nodes = (
"2 12 LINE",
"3 12 LINE",
"3 13 LINE",
"2 13 LINE"
);
},
{
closed = 1;
nodes = (
"5 12 LINE",
"6 12 LINE",
"6 13 LINE",
"5 13 LINE"
);
}
);
width = 8;
}
);
unicode = 00DC;
},
{
glyphname = Ugrave;
lastChange = "2018-09-28 20:18:52 +0000";
layers = (
{
components = (
{
name = grave;
transform = "{1, 0, 0, 1, 1, 3}";
}
);
layerId = "F9C0524F-BD24-452A-96F1-149BC18AF880";
paths = (
{
closed = 1;
nodes = (
"1 2 LINE",
"2 2 LINE",
"2 11 LINE",
"1 11 LINE"
);
},
{
closed = 1;
nodes = (
"6 2 LINE",
"7 2 LINE",
"7 11 LINE",
"6 11 LINE"
);
},
{
closed = 1;
nodes = (
"5 0 LINE",
"5 1 LINE",
"3 1 LINE",
"3 0 LINE"
);
},
{
closed = 1;
nodes = (
"3 1 LINE",
"3 2 LINE",
"2 2 LINE",
"2 1 LINE"
);
},
{
closed = 1;
nodes = (
"6 1 LINE",
"6 2 LINE",
"5 2 LINE",
"5 1 LINE"
);
}
);
width = 8;
}
);
unicode = 00D9;
},
{
glyphname = Uring;
lastChange = "2018-09-28 20:35:03 +0000";
layers = (
{
components = (
{
name = U;
}
);
layerId = "F9C0524F-BD24-452A-96F1-149BC18AF880";
paths = (
{
closed = 1;
nodes = (
"2 11 LINE",
"3 11 LINE",
"3 13 LINE",
"2 13 LINE"
);
},
{
closed = 1;
nodes = (
"3 10 LINE",
"5 10 LINE",
"5 11 LINE",
"3 11 LINE"
);
},
{
closed = 1;
nodes = (
"5 11 LINE",
"6 11 LINE",
"6 13 LINE",
"5 13 LINE"
);
},
{
closed = 1;
nodes = (
"3 13 LINE",
"5 13 LINE",
"5 14 LINE",
"3 14 LINE"
);
}
);
width = 8;
}
);
unicode = 016E;
},
{
glyphname = V;
lastChange = "2018-09-28 00:39:50 +0000";
layers = (
{
layerId = "F9C0524F-BD24-452A-96F1-149BC18AF880";
paths = (
{
closed = 1;
nodes = (
"1 6 LINE",
"2 6 LINE",
"2 11 LINE",
"1 11 LINE"
);
},
{
closed = 1;
nodes = (
"5 6 LINE",
"6 6 LINE",
"6 11 LINE",
"5 11 LINE"
);
},
{
closed = 1;
nodes = (
"4 0 LINE",
"4 1 LINE",
"3 1 LINE",
"3 0 LINE"
);
},
{
closed = 1;
nodes = (
"3 1 LINE",
"3 6 LINE",
"2 6 LINE",
"2 1 LINE"
);
},
{
closed = 1;
nodes = (
"5 1 LINE",
"5 6 LINE",
"4 6 LINE",
"4 1 LINE"
);
}
);
width = 7;
}
);
unicode = 0056;
},
{
glyphname = W;
lastChange = "2018-09-28 00:40:26 +0000";
layers = (
{
layerId = "F9C0524F-BD24-452A-96F1-149BC18AF880";
paths = (
{
closed = 1;
nodes = (
"1 6 LINE",
"2 6 LINE",
"2 11 LINE",
"1 11 LINE"
);
},
{
closed = 1;
nodes = (
"5 5 LINE",
"6 5 LINE",
"6 11 LINE",
"5 11 LINE"
);
},
{
closed = 1;
nodes = (
"4 0 LINE",
"4 1 LINE",
"3 1 LINE",
"3 0 LINE"
);
},
{
closed = 1;
nodes = (
"3 1 LINE",
"3 6 LINE",
"2 6 LINE",
"2 1 LINE"
);
},
{
closed = 1;
nodes = (
"5 1 LINE",
"5 5 LINE",
"4 5 LINE",
"4 1 LINE"
);
},
{
closed = 1;
nodes = (
"9 6 LINE",
"10 6 LINE",
"10 11 LINE",
"9 11 LINE"
);
},
{
closed = 1;
nodes = (
"8 0 LINE",
"8 1 LINE",
"7 1 LINE",
"7 0 LINE"
);
},
{
closed = 1;
nodes = (
"7 1 LINE",
"7 5 LINE",
"6 5 LINE",
"6 1 LINE"
);
},
{
closed = 1;
nodes = (
"9 1 LINE",
"9 6 LINE",
"8 6 LINE",
"8 1 LINE"
);
}
);
width = 11;
}
);
unicode = 0057;
},
{
glyphname = X;
lastChange = "2018-09-28 00:41:32 +0000";
layers = (
{
layerId = "F9C0524F-BD24-452A-96F1-149BC18AF880";
paths = (
{
closed = 1;
nodes = (
"1 9 LINE",
"2 9 LINE",
"2 11 LINE",
"1 11 LINE"
);
},
{
closed = 1;
nodes = (
"5 9 LINE",
"6 9 LINE",
"6 11 LINE",
"5 11 LINE"
);
},
{
closed = 1;
nodes = (
"4 4 LINE",
"4 7 LINE",
"3 7 LINE",
"3 4 LINE"
);
},
{
closed = 1;
nodes = (
"3 7 LINE",
"3 9 LINE",
"2 9 LINE",
"2 7 LINE"
);
},
{
closed = 1;
nodes = (
"5 7 LINE",
"5 9 LINE",
"4 9 LINE",
"4 7 LINE"
);
},
{
closed = 1;
nodes = (
"2 0 LINE",
"2 2 LINE",
"1 2 LINE",
"1 0 LINE"
);
},
{
closed = 1;
nodes = (
"6 0 LINE",
"6 2 LINE",
"5 2 LINE",
"5 0 LINE"
);
},
{
closed = 1;
nodes = (
"2 2 LINE",
"3 2 LINE",
"3 4 LINE",
"2 4 LINE"
);
},
{
closed = 1;
nodes = (
"4 2 LINE",
"5 2 LINE",
"5 4 LINE",
"4 4 LINE"
);
}
);
width = 7;
}
);
unicode = 0058;
},
{
glyphname = Y;
lastChange = "2018-09-28 00:42:04 +0000";
layers = (
{
layerId = "F9C0524F-BD24-452A-96F1-149BC18AF880";
paths = (
{
closed = 1;
nodes = (
"1 8 LINE",
"2 8 LINE",
"2 11 LINE",
"1 11 LINE"
);
},
{
closed = 1;
nodes = (
"5 8 LINE",
"6 8 LINE",
"6 11 LINE",
"5 11 LINE"
);
},
{
closed = 1;
nodes = (
"4 0 LINE",
"4 5 LINE",
"3 5 LINE",
"3 0 LINE"
);
},
{
closed = 1;
nodes = (
"3 5 LINE",
"3 8 LINE",
"2 8 LINE",
"2 5 LINE"
);
},
{
closed = 1;
nodes = (
"5 5 LINE",
"5 8 LINE",
"4 8 LINE",
"4 5 LINE"
);
}
);
width = 7;
}
);
unicode = 0059;
},
{
glyphname = Yacute;
lastChange = "2018-09-28 16:55:11 +0000";
layers = (
{
layerId = "F9C0524F-BD24-452A-96F1-149BC18AF880";
paths = (
{
closed = 1;
nodes = (
"1 8 LINE",
"2 8 LINE",
"2 11 LINE",
"1 11 LINE"
);
},
{
closed = 1;
nodes = (
"5 8 LINE",
"6 8 LINE",
"6 11 LINE",
"5 11 LINE"
);
},
{
closed = 1;
nodes = (
"4 0 LINE",
"4 5 LINE",
"3 5 LINE",
"3 0 LINE"
);
},
{
closed = 1;
nodes = (
"3 5 LINE",
"3 8 LINE",
"2 8 LINE",
"2 5 LINE"
);
},
{
closed = 1;
nodes = (
"5 5 LINE",
"5 8 LINE",
"4 8 LINE",
"4 5 LINE"
);
},
{
closed = 1;
nodes = (
"3 12 LINE",
"3 9 LINE",
"4 9 LINE",
"4 12 LINE"
);
}
);
width = 7;
}
);
unicode = 00DD;
},
{
glyphname = Ydieresis;
lastChange = "2018-09-28 19:00:59 +0000";
layers = (
{
layerId = "F9C0524F-BD24-452A-96F1-149BC18AF880";
paths = (
{
closed = 1;
nodes = (
"2 12 LINE",
"3 12 LINE",
"3 13 LINE",
"2 13 LINE"
);
},
{
closed = 1;
nodes = (
"4 12 LINE",
"5 12 LINE",
"5 13 LINE",
"4 13 LINE"
);
},
{
closed = 1;
nodes = (
"1 8 LINE",
"2 8 LINE",
"2 11 LINE",
"1 11 LINE"
);
},
{
closed = 1;
nodes = (
"5 8 LINE",
"6 8 LINE",
"6 11 LINE",
"5 11 LINE"
);
},
{
closed = 1;
nodes = (
"4 0 LINE",
"4 5 LINE",
"3 5 LINE",
"3 0 LINE"
);
},
{
closed = 1;
nodes = (
"3 5 LINE",
"3 8 LINE",
"2 8 LINE",
"2 5 LINE"
);
},
{
closed = 1;
nodes = (
"5 5 LINE",
"5 8 LINE",
"4 8 LINE",
"4 5 LINE"
);
}
);
width = 7;
}
);
unicode = 0178;
},
{
glyphname = Z;
lastChange = "2018-09-28 00:43:40 +0000";
layers = (
{
layerId = "F9C0524F-BD24-452A-96F1-149BC18AF880";
paths = (
{
closed = 1;
nodes = (
"4 6 LINE",
"6 6 LINE",
"6 5 LINE",
"4 5 LINE"
);
},
{
closed = 1;
nodes = (
"3 6 LINE",
"4 6 LINE",
"4 8 LINE",
"3 8 LINE"
);
},
{
closed = 1;
nodes = (
"5 9 LINE",
"6 9 LINE",
"6 10 LINE",
"5 10 LINE"
);
},
{
closed = 1;
nodes = (
"1 10 LINE",
"7 10 LINE",
"7 11 LINE",
"1 11 LINE"
);
},
{
closed = 1;
nodes = (
"6 1 LINE",
"7 1 LINE",
"7 5 LINE",
"6 5 LINE"
);
},
{
closed = 1;
nodes = (
"5 0 LINE",
"6 0 LINE",
"6 1 LINE",
"5 1 LINE"
);
},
{
closed = 1;
nodes = (
"3 -1 LINE",
"5 -1 LINE",
"5 0 LINE",
"3 0 LINE"
);
},
{
closed = 1;
nodes = (
"2 0 LINE",
"3 0 LINE",
"3 1 LINE",
"2 1 LINE"
);
},
{
closed = 1;
nodes = (
"4 8 LINE",
"5 8 LINE",
"5 9 LINE",
"4 9 LINE"
);
},
{
closed = 1;
nodes = (
"1 1 LINE",
"2 1 LINE",
"2 2 LINE",
"1 2 LINE"
);
}
);
width = 8;
}
);
unicode = 005A;
},
{
glyphname = a;
lastChange = "2018-09-27 22:04:02 +0000";
layers = (
{
layerId = "F9C0524F-BD24-452A-96F1-149BC18AF880";
paths = (
{
closed = 1;
nodes = (
"2 7 LINE",
"5 7 LINE",
"5 8 LINE",
"2 8 LINE"
);
},
{
closed = 1;
nodes = (
"5 1 LINE",
"6 1 LINE",
"6 7 LINE",
"5 7 LINE"
);
},
{
closed = 1;
nodes = (
"2 3 LINE",
"4 3 LINE",
"4 4 LINE",
"2 4 LINE"
);
},
{
closed = 1;
nodes = (
"1 1 LINE",
"2 1 LINE",
"2 3 LINE",
"1 3 LINE"
);
},
{
closed = 1;
nodes = (
"2 0 LINE",
"5 0 LINE",
"5 1 LINE",
"2 1 LINE"
);
},
{
closed = 1;
nodes = (
"4 4 LINE",
"5 4 LINE",
"5 5 LINE",
"4 5 LINE"
);
},
{
closed = 1;
nodes = (
"6 0 LINE",
"7 0 LINE",
"7 1 LINE",
"6 1 LINE"
);
},
{
closed = 1;
nodes = (
"1 6 LINE",
"2 6 LINE",
"2 7 LINE",
"1 7 LINE"
);
}
);
width = 7;
}
);
unicode = 0061;
},
{
glyphname = abreve;
lastChange = "2018-09-28 20:29:45 +0000";
layers = (
{
components = (
{
name = a;
}
);
layerId = "F9C0524F-BD24-452A-96F1-149BC18AF880";
paths = (
{
closed = 1;
nodes = (
"1 10 LINE",
"2 10 LINE",
"2 11 LINE",
"1 11 LINE"
);
},
{
closed = 1;
nodes = (
"2 9 LINE",
"5 9 LINE",
"5 10 LINE",
"2 10 LINE"
);
},
{
closed = 1;
nodes = (
"5 10 LINE",
"6 10 LINE",
"6 11 LINE",
"5 11 LINE"
);
}
);
width = 7;
}
);
unicode = 0103;
},
{
glyphname = agrave;
lastChange = "2018-09-28 18:24:58 +0000";
layers = (
{
layerId = "F9C0524F-BD24-452A-96F1-149BC18AF880";
paths = (
{
closed = 1;
nodes = (
"2 7 LINE",
"5 7 LINE",
"5 8 LINE",
"2 8 LINE"
);
},
{
closed = 1;
nodes = (
"5 1 LINE",
"6 1 LINE",
"6 7 LINE",
"5 7 LINE"
);
},
{
closed = 1;
nodes = (
"2 3 LINE",
"4 3 LINE",
"4 4 LINE",
"2 4 LINE"
);
},
{
closed = 1;
nodes = (
"1 1 LINE",
"2 1 LINE",
"2 3 LINE",
"1 3 LINE"
);
},
{
closed = 1;
nodes = (
"2 0 LINE",
"5 0 LINE",
"5 1 LINE",
"2 1 LINE"
);
},
{
closed = 1;
nodes = (
"4 4 LINE",
"5 4 LINE",
"5 5 LINE",
"4 5 LINE"
);
},
{
closed = 1;
nodes = (
"6 0 LINE",
"7 0 LINE",
"7 1 LINE",
"6 1 LINE"
);
},
{
closed = 1;
nodes = (
"1 6 LINE",
"2 6 LINE",
"2 7 LINE",
"1 7 LINE"
);
},
{
closed = 1;
nodes = (
"1 11 LINE",
"2 11 LINE",
"2 12 LINE",
"1 12 LINE"
);
},
{
closed = 1;
nodes = (
"2 10 LINE",
"3 10 LINE",
"3 11 LINE",
"2 11 LINE"
);
},
{
closed = 1;
nodes = (
"3 9 LINE",
"4 9 LINE",
"4 10 LINE",
"3 10 LINE"
);
}
);
width = 7;
}
);
unicode = 00E0;
},
{
glyphname = amacron;
lastChange = "2018-09-28 20:29:24 +0000";
layers = (
{
components = (
{
name = a;
}
);
layerId = "F9C0524F-BD24-452A-96F1-149BC18AF880";
paths = (
{
closed = 1;
nodes = (
"2 9 LINE",
"5 9 LINE",
"5 10 LINE",
"2 10 LINE"
);
}
);
width = 7;
}
);
unicode = 0101;
},
{
glyphname = aring;
lastChange = "2018-09-28 18:18:51 +0000";
layers = (
{
layerId = "F9C0524F-BD24-452A-96F1-149BC18AF880";
paths = (
{
closed = 1;
nodes = (
"2 1 LINE",
"2 3 LINE",
"1 3 LINE",
"1 1 LINE"
);
},
{
closed = 1;
nodes = (
"2 6 LINE",
"2 7 LINE",
"1 7 LINE",
"1 6 LINE"
);
},
{
closed = 1;
nodes = (
"5 0 LINE",
"5 1 LINE",
"2 1 LINE",
"2 0 LINE"
);
},
{
closed = 1;
nodes = (
"4 3 LINE",
"4 4 LINE",
"2 4 LINE",
"2 3 LINE"
);
},
{
closed = 1;
nodes = (
"5 7 LINE",
"5 9 LINE",
"4 9 LINE",
"4 8 LINE",
"3 8 LINE",
"3 9 LINE",
"2 9 LINE",
"2 7 LINE"
);
},
{
closed = 1;
nodes = (
"4 9 LINE",
"4 10 LINE",
"3 10 LINE",
"3 9 LINE"
);
},
{
closed = 1;
nodes = (
"5 4 LINE",
"5 1 LINE",
"6 1 LINE",
"6 7 LINE",
"5 7 LINE",
"5 5 LINE",
"4 5 LINE",
"4 4 LINE"
);
},
{
closed = 1;
nodes = (
"7 0 LINE",
"7 1 LINE",
"6 1 LINE",
"6 0 LINE"
);
}
);
width = 7;
}
);
unicode = 00E5;
},
{
glyphname = ae;
lastChange = "2018-09-28 19:48:50 +0000";
layers = (
{
layerId = "F9C0524F-BD24-452A-96F1-149BC18AF880";
paths = (
{
closed = 1;
nodes = (
"2 1 LINE",
"2 3 LINE",
"1 3 LINE",
"1 1 LINE"
);
},
{
closed = 1;
nodes = (
"2 6 LINE",
"2 7 LINE",
"1 7 LINE",
"1 6 LINE"
);
},
{
closed = 1;
nodes = (
"4 0 LINE",
"4 1 LINE",
"2 1 LINE",
"2 0 LINE"
);
},
{
closed = 1;
nodes = (
"3 3 LINE",
"3 4 LINE",
"2 4 LINE",
"2 3 LINE"
);
},
{
closed = 1;
nodes = (
"4 7 LINE",
"4 8 LINE",
"2 8 LINE",
"2 7 LINE"
);
},
{
closed = 1;
nodes = (
"4 4 LINE",
"4 1 LINE",
"6 1 LINE",
"6 2 LINE",
"5 2 LINE",
"5 3 LINE",
"6 3 LINE",
"6 4 LINE",
"5 4 LINE",
"5 6 LINE",
"6 6 LINE",
"6 7 LINE",
"4 7 LINE",
"4 5 LINE",
"3 5 LINE",
"3 4 LINE"
);
},
{
closed = 1;
nodes = (
"8 0 LINE",
"8 1 LINE",
"6 1 LINE",
"6 0 LINE"
);
},
{
closed = 1;
nodes = (
"7 7 LINE",
"7 8 LINE",
"6 8 LINE",
"6 7 LINE"
);
},
{
closed = 1;
nodes = (
"7 4 LINE",
"7 5 LINE",
"6 5 LINE",
"6 4 LINE"
);
},
{
closed = 1;
nodes = (
"8 5 LINE",
"8 7 LINE",
"7 7 LINE",
"7 5 LINE"
);
}
);
width = 9;
}
);
unicode = 00E6;
},
{
glyphname = b;
lastChange = "2018-09-27 22:02:55 +0000";
layers = (
{
layerId = "F9C0524F-BD24-452A-96F1-149BC18AF880";
paths = (
{
closed = 1;
nodes = (
"1 1 LINE",
"2 1 LINE",
"2 12 LINE",
"1 12 LINE"
);
},
{
closed = 1;
nodes = (
"2 6 LINE",
"3 6 LINE",
"3 7 LINE",
"2 7 LINE"
);
},
{
closed = 1;
nodes = (
"3 7 LINE",
"5 7 LINE",
"5 8 LINE",
"3 8 LINE"
);
},
{
closed = 1;
nodes = (
"5 1 LINE",
"6 1 LINE",
"6 7 LINE",
"5 7 LINE"
);
},
{
closed = 1;
nodes = (
"1 0 LINE",
"5 0 LINE",
"5 1 LINE",
"1 1 LINE"
);
}
);
width = 7;
}
);
unicode = 0062;
},
{
glyphname = c;
lastChange = "2018-09-27 22:23:35 +0000";
layers = (
{
layerId = "F9C0524F-BD24-452A-96F1-149BC18AF880";
paths = (
{
closed = 1;
nodes = (
"2 6 LINE",
"3 6 LINE",
"3 7 LINE",
"2 7 LINE"
);
},
{
closed = 1;
nodes = (
"3 7 LINE",
"5 7 LINE",
"5 8 LINE",
"3 8 LINE"
);
},
{
closed = 1;
nodes = (
"5 4 LINE",
"6 4 LINE",
"6 7 LINE",
"5 7 LINE"
);
},
{
closed = 1;
nodes = (
"1 2 LINE",
"2 2 LINE",
"2 6 LINE",
"1 6 LINE"
);
},
{
closed = 1;
nodes = (
"3 1 LINE",
"3 2 LINE",
"2 2 LINE",
"2 1 LINE"
);
},
{
closed = 1;
nodes = (
"5 0 LINE",
"5 1 LINE",
"3 1 LINE",
"3 0 LINE"
);
},
{
closed = 1;
nodes = (
"6 1 LINE",
"6 2 LINE",
"5 2 LINE",
"5 1 LINE"
);
}
);
width = 7;
}
);
unicode = 0063;
},
{
glyphname = ccedilla;
lastChange = "2018-09-28 18:19:59 +0000";
layers = (
{
layerId = "F9C0524F-BD24-452A-96F1-149BC18AF880";
paths = (
{
closed = 1;
nodes = (
"2 2 LINE",
"2 6 LINE",
"1 6 LINE",
"1 2 LINE"
);
},
{
closed = 1;
nodes = (
"4 -3 LINE",
"4 -2 LINE",
"2 -2 LINE",
"2 -3 LINE"
);
},
{
closed = 1;
nodes = (
"3 1 LINE",
"3 2 LINE",
"2 2 LINE",
"2 1 LINE"
);
},
{
closed = 1;
nodes = (
"3 6 LINE",
"3 7 LINE",
"2 7 LINE",
"2 6 LINE"
);
},
{
closed = 1;
nodes = (
"4 -1 LINE",
"4 0 LINE",
"5 0 LINE",
"5 1 LINE",
"3 1 LINE",
"3 -1 LINE"
);
},
{
closed = 1;
nodes = (
"5 7 LINE",
"5 8 LINE",
"3 8 LINE",
"3 7 LINE"
);
},
{
closed = 1;
nodes = (
"5 -2 LINE",
"5 -1 LINE",
"4 -1 LINE",
"4 -2 LINE"
);
},
{
closed = 1;
nodes = (
"6 1 LINE",
"6 2 LINE",
"5 2 LINE",
"5 1 LINE"
);
},
{
closed = 1;
nodes = (
"6 4 LINE",
"6 7 LINE",
"5 7 LINE",
"5 4 LINE"
);
}
);
width = 7;
}
);
unicode = 00E7;
},
{
glyphname = d;
lastChange = "2018-09-27 22:06:03 +0000";
layers = (
{
layerId = "F9C0524F-BD24-452A-96F1-149BC18AF880";
paths = (
{
closed = 1;
nodes = (
"5 12 LINE",
"5 1 LINE",
"6 1 LINE",
"6 12 LINE"
);
},
{
closed = 1;
nodes = (
"4 7 LINE",
"4 6 LINE",
"5 6 LINE",
"5 7 LINE"
);
},
{
closed = 1;
nodes = (
"2 8 LINE",
"2 7 LINE",
"4 7 LINE",
"4 8 LINE"
);
},
{
closed = 1;
nodes = (
"1 7 LINE",
"1 1 LINE",
"2 1 LINE",
"2 7 LINE"
);
},
{
closed = 1;
nodes = (
"2 1 LINE",
"2 0 LINE",
"6 0 LINE",
"6 1 LINE"
);
}
);
width = 7;
}
);
unicode = 0064;
},
{
glyphname = eth;
lastChange = "2018-09-28 15:07:24 +0000";
layers = (
{
layerId = "F9C0524F-BD24-452A-96F1-149BC18AF880";
paths = (
{
closed = 1;
nodes = (
"1 12 LINE",
"1 11 LINE",
"3 11 LINE",
"3 12 LINE"
);
},
{
closed = 1;
nodes = (
"4 6 LINE",
"3 6 LINE",
"3 5 LINE",
"4 5 LINE"
);
},
{
closed = 1;
nodes = (
"4 5 LINE",
"4 4 LINE",
"5 4 LINE",
"5 5 LINE"
);
},
{
closed = 1;
nodes = (
"4 1 LINE",
"3 1 LINE",
"3 0 LINE",
"4 0 LINE"
);
},
{
closed = 1;
nodes = (
"3 2 LINE",
"2 2 LINE",
"2 1 LINE",
"3 1 LINE"
);
},
{
closed = 1;
nodes = (
"2 4 LINE",
"1 4 LINE",
"1 2 LINE",
"2 2 LINE"
);
},
{
closed = 1;
nodes = (
"2 5 LINE",
"2 4 LINE",
"3 4 LINE",
"3 5 LINE"
);
},
{
closed = 1;
nodes = (
"5 2 LINE",
"4 2 LINE",
"4 1 LINE",
"5 1 LINE"
);
},
{
closed = 1;
nodes = (
"6 7 LINE",
"5 7 LINE",
"5 2 LINE",
"6 2 LINE"
);
},
{
closed = 1;
nodes = (
"4 10 LINE",
"4 7 LINE",
"5 7 LINE",
"5 10 LINE"
);
},
{
closed = 1;
nodes = (
"3 10 LINE",
"4 10 LINE",
"4 11 LINE",
"3 11 LINE"
);
},
{
closed = 1;
nodes = (
"2 8 LINE",
"4 8 LINE",
"4 9 LINE",
"2 9 LINE"
);
},
{
closed = 1;
nodes = (
"5 8 LINE",
"7 8 LINE",
"7 9 LINE",
"5 9 LINE"
);
}
);
width = 7;
}
);
unicode = 00F0;
},
{
glyphname = dcroat;
lastChange = "2018-09-28 20:39:36 +0000";
layers = (
{
components = (
{
name = d;
}
);
layerId = "F9C0524F-BD24-452A-96F1-149BC18AF880";
paths = (
{
closed = 1;
nodes = (
"3 9 LINE",
"7 9 LINE",
"7 10 LINE",
"3 10 LINE"
);
}
);
width = 7;
}
);
unicode = 0111;
},
{
glyphname = e;
lastChange = "2018-09-28 00:48:16 +0000";
layers = (
{
layerId = "F9C0524F-BD24-452A-96F1-149BC18AF880";
paths = (
{
closed = 1;
nodes = (
"2 6 LINE",
"3 6 LINE",
"3 7 LINE",
"2 7 LINE"
);
},
{
closed = 1;
nodes = (
"3 7 LINE",
"5 7 LINE",
"5 8 LINE",
"3 8 LINE"
);
},
{
closed = 1;
nodes = (
"5 5 LINE",
"6 5 LINE",
"6 7 LINE",
"5 7 LINE"
);
},
{
closed = 1;
nodes = (
"1 2 LINE",
"2 2 LINE",
"2 6 LINE",
"1 6 LINE"
);
},
{
closed = 1;
nodes = (
"3 1 LINE",
"3 2 LINE",
"2 2 LINE",
"2 1 LINE"
);
},
{
closed = 1;
nodes = (
"6 0 LINE",
"6 1 LINE",
"3 1 LINE",
"3 0 LINE"
);
},
{
closed = 1;
nodes = (
"2 3 LINE",
"4 3 LINE",
"4 4 LINE",
"2 4 LINE"
);
},
{
closed = 1;
nodes = (
"4 4 LINE",
"5 4 LINE",
"5 5 LINE",
"4 5 LINE"
);
}
);
width = 7;
}
);
unicode = 0065;
},
{
glyphname = eacute;
lastChange = "2018-09-28 18:09:58 +0000";
layers = (
{
layerId = "F9C0524F-BD24-452A-96F1-149BC18AF880";
paths = (
{
closed = 1;
nodes = (
"2 6 LINE",
"3 6 LINE",
"3 7 LINE",
"2 7 LINE"
);
},
{
closed = 1;
nodes = (
"3 7 LINE",
"5 7 LINE",
"5 8 LINE",
"3 8 LINE"
);
},
{
closed = 1;
nodes = (
"5 5 LINE",
"6 5 LINE",
"6 7 LINE",
"5 7 LINE"
);
},
{
closed = 1;
nodes = (
"1 2 LINE",
"2 2 LINE",
"2 6 LINE",
"1 6 LINE"
);
},
{
closed = 1;
nodes = (
"3 1 LINE",
"3 2 LINE",
"2 2 LINE",
"2 1 LINE"
);
},
{
closed = 1;
nodes = (
"6 0 LINE",
"6 1 LINE",
"3 1 LINE",
"3 0 LINE"
);
},
{
closed = 1;
nodes = (
"2 3 LINE",
"4 3 LINE",
"4 4 LINE",
"2 4 LINE"
);
},
{
closed = 1;
nodes = (
"4 4 LINE",
"5 4 LINE",
"5 5 LINE",
"4 5 LINE"
);
},
{
closed = 1;
nodes = (
"4 12 LINE",
"4 11 LINE",
"5 11 LINE",
"5 12 LINE"
);
},
{
closed = 1;
nodes = (
"3 11 LINE",
"3 10 LINE",
"4 10 LINE",
"4 11 LINE"
);
},
{
closed = 1;
nodes = (
"2 10 LINE",
"2 9 LINE",
"3 9 LINE",
"3 10 LINE"
);
}
);
width = 7;
}
);
unicode = 00E9;
},
{
glyphname = ecircumflex;
lastChange = "2018-09-28 18:20:37 +0000";
layers = (
{
layerId = "F9C0524F-BD24-452A-96F1-149BC18AF880";
paths = (
{
closed = 1;
nodes = (
"2 2 LINE",
"2 3 LINE",
"4 3 LINE",
"4 4 LINE",
"2 4 LINE",
"2 6 LINE",
"1 6 LINE",
"1 2 LINE"
);
},
{
closed = 1;
nodes = (
"3 1 LINE",
"3 2 LINE",
"2 2 LINE",
"2 1 LINE"
);
},
{
closed = 1;
nodes = (
"3 6 LINE",
"3 7 LINE",
"2 7 LINE",
"2 6 LINE"
);
},
{
closed = 1;
nodes = (
"3 9 LINE",
"3 10 LINE",
"2 10 LINE",
"2 9 LINE"
);
},
{
closed = 1;
nodes = (
"6 0 LINE",
"6 1 LINE",
"3 1 LINE",
"3 0 LINE"
);
},
{
closed = 1;
nodes = (
"5 7 LINE",
"5 8 LINE",
"3 8 LINE",
"3 7 LINE"
);
},
{
closed = 1;
nodes = (
"4 10 LINE",
"4 11 LINE",
"3 11 LINE",
"3 10 LINE"
);
},
{
closed = 1;
nodes = (
"5 4 LINE",
"5 5 LINE",
"4 5 LINE",
"4 4 LINE"
);
},
{
closed = 1;
nodes = (
"5 9 LINE",
"5 10 LINE",
"4 10 LINE",
"4 9 LINE"
);
},
{
closed = 1;
nodes = (
"6 5 LINE",
"6 7 LINE",
"5 7 LINE",
"5 5 LINE"
);
}
);
width = 7;
}
);
unicode = 00EA;
},
{
glyphname = edieresis;
lastChange = "2018-09-28 18:21:27 +0000";
layers = (
{
layerId = "F9C0524F-BD24-452A-96F1-149BC18AF880";
paths = (
{
closed = 1;
nodes = (
"2 2 LINE",
"2 3 LINE",
"4 3 LINE",
"4 4 LINE",
"2 4 LINE",
"2 6 LINE",
"1 6 LINE",
"1 2 LINE"
);
},
{
closed = 1;
nodes = (
"3 1 LINE",
"3 2 LINE",
"2 2 LINE",
"2 1 LINE"
);
},
{
closed = 1;
nodes = (
"3 6 LINE",
"3 7 LINE",
"2 7 LINE",
"2 6 LINE"
);
},
{
closed = 1;
nodes = (
"3 9 LINE",
"3 11 LINE",
"2 11 LINE",
"2 9 LINE"
);
},
{
closed = 1;
nodes = (
"6 0 LINE",
"6 1 LINE",
"3 1 LINE",
"3 0 LINE"
);
},
{
closed = 1;
nodes = (
"5 7 LINE",
"5 8 LINE",
"3 8 LINE",
"3 7 LINE"
);
},
{
closed = 1;
nodes = (
"5 4 LINE",
"5 5 LINE",
"4 5 LINE",
"4 4 LINE"
);
},
{
closed = 1;
nodes = (
"5 9 LINE",
"5 11 LINE",
"4 11 LINE",
"4 9 LINE"
);
},
{
closed = 1;
nodes = (
"6 5 LINE",
"6 7 LINE",
"5 7 LINE",
"5 5 LINE"
);
}
);
width = 7;
}
);
unicode = 00EB;
},
{
glyphname = egrave;
lastChange = "2018-09-28 18:09:49 +0000";
layers = (
{
layerId = "F9C0524F-BD24-452A-96F1-149BC18AF880";
paths = (
{
closed = 1;
nodes = (
"2 6 LINE",
"3 6 LINE",
"3 7 LINE",
"2 7 LINE"
);
},
{
closed = 1;
nodes = (
"3 7 LINE",
"5 7 LINE",
"5 8 LINE",
"3 8 LINE"
);
},
{
closed = 1;
nodes = (
"5 5 LINE",
"6 5 LINE",
"6 7 LINE",
"5 7 LINE"
);
},
{
closed = 1;
nodes = (
"1 2 LINE",
"2 2 LINE",
"2 6 LINE",
"1 6 LINE"
);
},
{
closed = 1;
nodes = (
"3 1 LINE",
"3 2 LINE",
"2 2 LINE",
"2 1 LINE"
);
},
{
closed = 1;
nodes = (
"6 0 LINE",
"6 1 LINE",
"3 1 LINE",
"3 0 LINE"
);
},
{
closed = 1;
nodes = (
"2 3 LINE",
"4 3 LINE",
"4 4 LINE",
"2 4 LINE"
);
},
{
closed = 1;
nodes = (
"4 4 LINE",
"5 4 LINE",
"5 5 LINE",
"4 5 LINE"
);
},
{
closed = 1;
nodes = (
"2 11 LINE",
"3 11 LINE",
"3 12 LINE",
"2 12 LINE"
);
},
{
closed = 1;
nodes = (
"3 10 LINE",
"4 10 LINE",
"4 11 LINE",
"3 11 LINE"
);
},
{
closed = 1;
nodes = (
"4 9 LINE",
"5 9 LINE",
"5 10 LINE",
"4 10 LINE"
);
}
);
width = 7;
}
);
unicode = 00E8;
},
{
glyphname = f;
lastChange = "2018-09-27 22:07:13 +0000";
layers = (
{
layerId = "F9C0524F-BD24-452A-96F1-149BC18AF880";
paths = (
{
closed = 1;
nodes = (
"3 0 LINE",
"3 11 LINE",
"2 11 LINE",
"2 0 LINE"
);
},
{
closed = 1;
nodes = (
"6 11 LINE",
"6 12 LINE",
"3 12 LINE",
"3 11 LINE"
);
},
{
closed = 1;
nodes = (
"5 7 LINE",
"5 8 LINE",
"1 8 LINE",
"1 7 LINE"
);
},
{
closed = 1;
nodes = (
"6 10 LINE",
"7 10 LINE",
"7 11 LINE",
"6 11 LINE"
);
}
);
width = 5;
}
);
unicode = 0066;
},
{
glyphname = g;
lastChange = "2018-09-28 20:08:44 +0000";
layers = (
{
layerId = "F9C0524F-BD24-452A-96F1-149BC18AF880";
paths = (
{
closed = 1;
nodes = (
"2 7 LINE",
"5 7 LINE",
"5 8 LINE",
"2 8 LINE"
);
},
{
closed = 1;
nodes = (
"5 7 LINE",
"5 4 LINE",
"6 4 LINE",
"6 7 LINE"
);
},
{
closed = 1;
nodes = (
"4 9 LINE",
"4 8 LINE",
"5 8 LINE",
"5 9 LINE"
);
},
{
closed = 1;
nodes = (
"5 3 LINE",
"5 4 LINE",
"2 4 LINE",
"2 3 LINE"
);
},
{
closed = 1;
nodes = (
"1 1 LINE",
"2 1 LINE",
"2 3 LINE",
"1 3 LINE"
);
},
{
closed = 1;
nodes = (
"5 0 LINE",
"5 1 LINE",
"2 1 LINE",
"2 0 LINE"
);
},
{
closed = 1;
nodes = (
"5 -3 LINE",
"6 -3 LINE",
"6 0 LINE",
"5 0 LINE"
);
},
{
closed = 1;
nodes = (
"5 -4 LINE",
"5 -3 LINE",
"1 -3 LINE",
"1 -4 LINE"
);
},
{
closed = 1;
nodes = (
"0 -1 LINE",
"0 -3 LINE",
"1 -3 LINE",
"1 -1 LINE"
);
},
{
closed = 1;
nodes = (
"1 0 LINE",
"1 -1 LINE",
"2 -1 LINE",
"2 0 LINE"
);
},
{
closed = 1;
nodes = (
"1 7 LINE",
"1 4 LINE",
"2 4 LINE",
"2 7 LINE"
);
}
);
width = 7;
}
);
unicode = 0067;
},
{
glyphname = h;
lastChange = "2018-09-28 15:03:14 +0000";
layers = (
{
layerId = "F9C0524F-BD24-452A-96F1-149BC18AF880";
paths = (
{
closed = 1;
nodes = (
"1 0 LINE",
"2 0 LINE",
"2 12 LINE",
"1 12 LINE"
);
},
{
closed = 1;
nodes = (
"2 6 LINE",
"3 6 LINE",
"3 7 LINE",
"2 7 LINE"
);
},
{
closed = 1;
nodes = (
"3 7 LINE",
"5 7 LINE",
"5 8 LINE",
"3 8 LINE"
);
},
{
closed = 1;
nodes = (
"5 0 LINE",
"6 0 LINE",
"6 7 LINE",
"5 7 LINE"
);
}
);
width = 7;
}
);
unicode = 0068;
},
{
glyphname = hbar;
lastChange = "2018-09-28 20:43:59 +0000";
layers = (
{
layerId = "F9C0524F-BD24-452A-96F1-149BC18AF880";
paths = (
{
closed = 1;
nodes = (
"1 9 LINE",
"1 0 LINE",
"2 0 LINE",
"2 6 LINE",
"3 6 LINE",
"3 7 LINE",
"2 7 LINE",
"2 9 LINE",
"4 9 LINE",
"4 10 LINE",
"2 10 LINE",
"2 12 LINE",
"1 12 LINE",
"1 10 LINE",
"0 10 LINE",
"0 9 LINE"
);
},
{
closed = 1;
nodes = (
"5 7 LINE",
"5 8 LINE",
"3 8 LINE",
"3 7 LINE"
);
},
{
closed = 1;
nodes = (
"6 0 LINE",
"6 7 LINE",
"5 7 LINE",
"5 0 LINE"
);
}
);
width = 7;
}
);
unicode = 0127;
},
{
glyphname = i;
lastChange = "2018-09-27 21:59:44 +0000";
layers = (
{
layerId = "F9C0524F-BD24-452A-96F1-149BC18AF880";
paths = (
{
closed = 1;
nodes = (
"2 9 LINE",
"2 11 LINE",
"1 11 LINE",
"1 9 LINE"
);
},
{
closed = 1;
nodes = (
"1 0 LINE",
"2 0 LINE",
"2 8 LINE",
"1 8 LINE"
);
}
);
width = 3;
}
);
unicode = 0069;
},
{
glyphname = idotless;
lastChange = "2018-09-28 15:21:46 +0000";
layers = (
{
layerId = "F9C0524F-BD24-452A-96F1-149BC18AF880";
paths = (
{
closed = 1;
nodes = (
"1 0 LINE",
"2 0 LINE",
"2 8 LINE",
"1 8 LINE"
);
}
);
width = 3;
}
);
unicode = 0131;
},
{
glyphname = iacute;
lastChange = "2018-09-28 18:22:39 +0000";
layers = (
{
layerId = "F9C0524F-BD24-452A-96F1-149BC18AF880";
paths = (
{
closed = 1;
nodes = (
"3 12 LINE",
"3 11 LINE",
"4 11 LINE",
"4 12 LINE"
);
},
{
closed = 1;
nodes = (
"2 11 LINE",
"2 10 LINE",
"3 10 LINE",
"3 11 LINE"
);
},
{
closed = 1;
nodes = (
"1 10 LINE",
"1 9 LINE",
"2 9 LINE",
"2 10 LINE"
);
},
{
closed = 1;
nodes = (
"1 0 LINE",
"2 0 LINE",
"2 8 LINE",
"1 8 LINE"
);
}
);
width = 3;
}
);
unicode = 00ED;
},
{
glyphname = icircumflex;
lastChange = "2018-09-28 18:23:04 +0000";
layers = (
{
components = (
{
name = circumflex;
transform = "{1, 0, 0, 1, -1, 0}";
}
);
layerId = "F9C0524F-BD24-452A-96F1-149BC18AF880";
paths = (
{
closed = 1;
nodes = (
"1 8 LINE",
"1 0 LINE",
"2 0 LINE",
"2 8 LINE"
);
}
);
width = 3;
}
);
unicode = 00EE;
},
{
glyphname = idieresis;
lastChange = "2018-09-28 18:23:23 +0000";
layers = (
{
layerId = "F9C0524F-BD24-452A-96F1-149BC18AF880";
paths = (
{
closed = 1;
nodes = (
"1 8 LINE",
"1 0 LINE",
"2 0 LINE",
"2 8 LINE"
);
},
{
closed = 1;
nodes = (
"1 9 LINE",
"1 11 LINE",
"0 11 LINE",
"0 9 LINE"
);
},
{
closed = 1;
nodes = (
"3 9 LINE",
"3 11 LINE",
"2 11 LINE",
"2 9 LINE"
);
}
);
width = 3;
}
);
unicode = 00EF;
},
{
glyphname = igrave;
lastChange = "2018-09-28 18:22:35 +0000";
layers = (
{
layerId = "F9C0524F-BD24-452A-96F1-149BC18AF880";
paths = (
{
closed = 1;
nodes = (
"-1 11 LINE",
"0 11 LINE",
"0 12 LINE",
"-1 12 LINE"
);
},
{
closed = 1;
nodes = (
"0 10 LINE",
"1 10 LINE",
"1 11 LINE",
"0 11 LINE"
);
},
{
closed = 1;
nodes = (
"1 9 LINE",
"2 9 LINE",
"2 10 LINE",
"1 10 LINE"
);
},
{
closed = 1;
nodes = (
"1 8 LINE",
"1 0 LINE",
"2 0 LINE",
"2 8 LINE"
);
}
);
width = 3;
}
);
unicode = 00EC;
},
{
glyphname = imacron;
lastChange = "2018-09-28 20:36:14 +0000";
layers = (
{
components = (
{
name = idotless;
}
);
layerId = "F9C0524F-BD24-452A-96F1-149BC18AF880";
paths = (
{
closed = 1;
nodes = (
"0 9 LINE",
"3 9 LINE",
"3 10 LINE",
"0 10 LINE"
);
}
);
width = 3;
}
);
unicode = 012B;
},
{
glyphname = j;
lastChange = "2018-09-27 22:05:51 +0000";
layers = (
{
layerId = "F9C0524F-BD24-452A-96F1-149BC18AF880";
paths = (
{
closed = 1;
nodes = (
"0 -4 LINE",
"0 -3 LINE",
"-1 -3 LINE",
"-1 -4 LINE"
);
},
{
closed = 1;
nodes = (
"1 -5 LINE",
"1 -4 LINE",
"0 -4 LINE",
"0 -5 LINE"
);
},
{
closed = 1;
nodes = (
"2 -4 LINE",
"2 8 LINE",
"1 8 LINE",
"1 -4 LINE"
);
},
{
closed = 1;
nodes = (
"2 9 LINE",
"2 11 LINE",
"1 11 LINE",
"1 9 LINE"
);
}
);
width = 3;
}
);
unicode = 006A;
},
{
glyphname = k;
lastChange = "2018-09-27 22:03:53 +0000";
layers = (
{
layerId = "F9C0524F-BD24-452A-96F1-149BC18AF880";
paths = (
{
closed = 1;
nodes = (
"1 0 LINE",
"2 0 LINE",
"2 12 LINE",
"1 12 LINE"
);
},
{
closed = 1;
nodes = (
"2 4 LINE",
"3 4 LINE",
"3 5 LINE",
"2 5 LINE"
);
},
{
closed = 1;
nodes = (
"3 5 LINE",
"4 5 LINE",
"4 6 LINE",
"3 6 LINE"
);
},
{
closed = 1;
nodes = (
"4 2 LINE",
"5 2 LINE",
"5 3 LINE",
"4 3 LINE"
);
},
{
closed = 1;
nodes = (
"4 6 LINE",
"5 6 LINE",
"5 7 LINE",
"4 7 LINE"
);
},
{
closed = 1;
nodes = (
"3 3 LINE",
"4 3 LINE",
"4 4 LINE",
"3 4 LINE"
);
},
{
closed = 1;
nodes = (
"5 0 LINE",
"6 0 LINE",
"6 2 LINE",
"5 2 LINE"
);
},
{
closed = 1;
nodes = (
"5 7 LINE",
"6 7 LINE",
"6 8 LINE",
"5 8 LINE"
);
}
);
width = 7;
}
);
unicode = 006B;
},
{
glyphname = l;
lastChange = "2018-09-28 15:03:56 +0000";
layers = (
{
layerId = "F9C0524F-BD24-452A-96F1-149BC18AF880";
paths = (
{
closed = 1;
nodes = (
"1 0 LINE",
"2 0 LINE",
"2 12 LINE",
"1 12 LINE"
);
},
{
closed = 1;
nodes = (
"2 0 LINE",
"3 0 LINE",
"3 1 LINE",
"2 1 LINE"
);
}
);
width = 3;
}
);
unicode = 006C;
},
{
glyphname = lslash;
lastChange = "2018-09-28 15:17:00 +0000";
layers = (
{
layerId = "F9C0524F-BD24-452A-96F1-149BC18AF880";
paths = (
{
closed = 1;
nodes = (
"1 0 LINE",
"2 0 LINE",
"2 12 LINE",
"1 12 LINE"
);
},
{
closed = 1;
nodes = (
"2 0 LINE",
"3 0 LINE",
"3 1 LINE",
"2 1 LINE"
);
},
{
closed = 1;
nodes = (
"0 5 LINE",
"1 5 LINE",
"1 6 LINE",
"0 6 LINE"
);
},
{
closed = 1;
nodes = (
"2 6 LINE",
"3 6 LINE",
"3 7 LINE",
"2 7 LINE"
);
}
);
width = 3;
}
);
unicode = 0142;
},
{
glyphname = m;
lastChange = "2019-02-11 17:19:48 +0000";
layers = (
{
layerId = "F9C0524F-BD24-452A-96F1-149BC18AF880";
paths = (
{
closed = 1;
nodes = (
"1 0 LINE",
"2 0 LINE",
"2 7 LINE",
"1 7 LINE"
);
},
{
closed = 1;
nodes = (
"2 6 LINE",
"3 6 LINE",
"3 7 LINE",
"2 7 LINE"
);
},
{
closed = 1;
nodes = (
"3 7 LINE",
"5 7 LINE",
"5 8 LINE",
"3 8 LINE"
);
},
{
closed = 1;
nodes = (
"5 0 LINE",
"6 0 LINE",
"6 7 LINE",
"5 7 LINE"
);
},
{
closed = 1;
nodes = (
"6 6 LINE",
"7 6 LINE",
"7 7 LINE",
"6 7 LINE"
);
},
{
closed = 1;
nodes = (
"7 7 LINE",
"9 7 LINE",
"9 8 LINE",
"7 8 LINE"
);
},
{
closed = 1;
nodes = (
"9 0 LINE",
"10 0 LINE",
"10 7 LINE",
"9 7 LINE"
);
}
);
width = 11;
}
);
unicode = 006D;
},
{
glyphname = n;
lastChange = "2018-09-28 00:48:00 +0000";
layers = (
{
layerId = "F9C0524F-BD24-452A-96F1-149BC18AF880";
paths = (
{
closed = 1;
nodes = (
"2 6 LINE",
"3 6 LINE",
"3 7 LINE",
"2 7 LINE"
);
},
{
closed = 1;
nodes = (
"3 7 LINE",
"5 7 LINE",
"5 8 LINE",
"3 8 LINE"
);
},
{
closed = 1;
nodes = (
"5 0 LINE",
"6 0 LINE",
"6 7 LINE",
"5 7 LINE"
);
},
{
closed = 1;
nodes = (
"1 0 LINE",
"2 0 LINE",
"2 8 LINE",
"1 8 LINE"
);
}
);
width = 7;
}
);
unicode = 006E;
},
{
glyphname = eng;
lastChange = "2018-09-28 20:40:12 +0000";
layers = (
{
layerId = "F9C0524F-BD24-452A-96F1-149BC18AF880";
paths = (
{
closed = 1;
nodes = (
"2 0 LINE",
"2 6 LINE",
"3 6 LINE",
"3 7 LINE",
"2 7 LINE",
"2 8 LINE",
"1 8 LINE",
"1 0 LINE"
);
},
{
closed = 1;
nodes = (
"4 -3 LINE",
"4 -2 LINE",
"3 -2 LINE",
"3 -3 LINE"
);
},
{
closed = 1;
nodes = (
"5 7 LINE",
"5 8 LINE",
"3 8 LINE",
"3 7 LINE"
);
},
{
closed = 1;
nodes = (
"5 -4 LINE",
"5 -3 LINE",
"4 -3 LINE",
"4 -4 LINE"
);
},
{
closed = 1;
nodes = (
"6 -3 LINE",
"6 7 LINE",
"5 7 LINE",
"5 -3 LINE"
);
}
);
width = 7;
}
);
unicode = 014B;
},
{
glyphname = o;
lastChange = "2018-09-27 22:25:46 +0000";
layers = (
{
layerId = "F9C0524F-BD24-452A-96F1-149BC18AF880";
paths = (
{
closed = 1;
nodes = (
"2 7 LINE",
"5 7 LINE",
"5 8 LINE",
"2 8 LINE"
);
},
{
closed = 1;
nodes = (
"2 0 LINE",
"5 0 LINE",
"5 1 LINE",
"2 1 LINE"
);
},
{
closed = 1;
nodes = (
"1 1 LINE",
"2 1 LINE",
"2 7 LINE",
"1 7 LINE"
);
},
{
closed = 1;
nodes = (
"5 1 LINE",
"6 1 LINE",
"6 7 LINE",
"5 7 LINE"
);
}
);
width = 7;
}
);
unicode = 006F;
},
{
glyphname = oacute;
lastChange = "2018-09-28 18:10:22 +0000";
layers = (
{
layerId = "F9C0524F-BD24-452A-96F1-149BC18AF880";
paths = (
{
closed = 1;
nodes = (
"2 1 LINE",
"2 7 LINE",
"1 7 LINE",
"1 1 LINE"
);
},
{
closed = 1;
nodes = (
"5 0 LINE",
"5 1 LINE",
"2 1 LINE",
"2 0 LINE"
);
},
{
closed = 1;
nodes = (
"5 7 LINE",
"5 8 LINE",
"2 8 LINE",
"2 7 LINE"
);
},
{
closed = 1;
nodes = (
"3 9 LINE",
"3 10 LINE",
"2 10 LINE",
"2 9 LINE"
);
},
{
closed = 1;
nodes = (
"4 10 LINE",
"4 11 LINE",
"3 11 LINE",
"3 10 LINE"
);
},
{
closed = 1;
nodes = (
"5 11 LINE",
"5 12 LINE",
"4 12 LINE",
"4 11 LINE"
);
},
{
closed = 1;
nodes = (
"6 1 LINE",
"6 7 LINE",
"5 7 LINE",
"5 1 LINE"
);
}
);
width = 7;
}
);
unicode = 00F3;
},
{
glyphname = ograve;
lastChange = "2018-09-28 18:10:27 +0000";
layers = (
{
layerId = "F9C0524F-BD24-452A-96F1-149BC18AF880";
paths = (
{
closed = 1;
nodes = (
"2 1 LINE",
"2 7 LINE",
"1 7 LINE",
"1 1 LINE"
);
},
{
closed = 1;
nodes = (
"5 0 LINE",
"5 1 LINE",
"2 1 LINE",
"2 0 LINE"
);
},
{
closed = 1;
nodes = (
"5 7 LINE",
"5 8 LINE",
"2 8 LINE",
"2 7 LINE"
);
},
{
closed = 1;
nodes = (
"3 11 LINE",
"3 12 LINE",
"2 12 LINE",
"2 11 LINE"
);
},
{
closed = 1;
nodes = (
"4 10 LINE",
"4 11 LINE",
"3 11 LINE",
"3 10 LINE"
);
},
{
closed = 1;
nodes = (
"5 9 LINE",
"5 10 LINE",
"4 10 LINE",
"4 9 LINE"
);
},
{
closed = 1;
nodes = (
"6 1 LINE",
"6 7 LINE",
"5 7 LINE",
"5 1 LINE"
);
}
);
width = 7;
}
);
unicode = 00F2;
},
{
glyphname = oslash;
lastChange = "2018-09-28 19:50:04 +0000";
layers = (
{
layerId = "F9C0524F-BD24-452A-96F1-149BC18AF880";
paths = (
{
closed = 1;
nodes = (
"1 0 LINE",
"1 1 LINE",
"0 1 LINE",
"0 0 LINE"
);
},
{
closed = 1;
nodes = (
"2 1 LINE",
"2 2 LINE",
"3 2 LINE",
"3 3 LINE",
"2 3 LINE",
"2 7 LINE",
"1 7 LINE",
"1 1 LINE"
);
},
{
closed = 1;
nodes = (
"5 0 LINE",
"5 1 LINE",
"2 1 LINE",
"2 0 LINE"
);
},
{
closed = 1;
nodes = (
"5 7 LINE",
"5 8 LINE",
"2 8 LINE",
"2 7 LINE"
);
},
{
closed = 1;
nodes = (
"4 3 LINE",
"4 5 LINE",
"3 5 LINE",
"3 3 LINE"
);
},
{
closed = 1;
nodes = (
"5 5 LINE",
"5 1 LINE",
"6 1 LINE",
"6 7 LINE",
"5 7 LINE",
"5 6 LINE",
"4 6 LINE",
"4 5 LINE"
);
},
{
closed = 1;
nodes = (
"7 7 LINE",
"7 8 LINE",
"6 8 LINE",
"6 7 LINE"
);
}
);
width = 7;
}
);
unicode = 00F8;
},
{
glyphname = oe;
lastChange = "2018-09-28 19:46:38 +0000";
layers = (
{
layerId = "F9C0524F-BD24-452A-96F1-149BC18AF880";
paths = (
{
closed = 1;
nodes = (
"2 7 LINE",
"5 7 LINE",
"5 8 LINE",
"2 8 LINE"
);
},
{
closed = 1;
nodes = (
"2 0 LINE",
"5 0 LINE",
"5 1 LINE",
"2 1 LINE"
);
},
{
closed = 1;
nodes = (
"1 1 LINE",
"2 1 LINE",
"2 7 LINE",
"1 7 LINE"
);
},
{
closed = 1;
nodes = (
"5 6 LINE",
"6 6 LINE",
"6 7 LINE",
"5 7 LINE"
);
},
{
closed = 1;
nodes = (
"6 7 LINE",
"7 7 LINE",
"7 8 LINE",
"6 8 LINE"
);
},
{
closed = 1;
nodes = (
"7 5 LINE",
"8 5 LINE",
"8 7 LINE",
"7 7 LINE"
);
},
{
closed = 1;
nodes = (
"4 2 LINE",
"5 2 LINE",
"5 6 LINE",
"4 6 LINE"
);
},
{
closed = 1;
nodes = (
"6 1 LINE",
"6 2 LINE",
"5 2 LINE",
"5 1 LINE"
);
},
{
closed = 1;
nodes = (
"8 0 LINE",
"8 1 LINE",
"6 1 LINE",
"6 0 LINE"
);
},
{
closed = 1;
nodes = (
"5 3 LINE",
"6 3 LINE",
"6 4 LINE",
"5 4 LINE"
);
},
{
closed = 1;
nodes = (
"6 4 LINE",
"7 4 LINE",
"7 5 LINE",
"6 5 LINE"
);
}
);
width = 9;
}
);
unicode = 0153;
},
{
glyphname = p;
lastChange = "2018-09-27 21:58:52 +0000";
layers = (
{
layerId = "F9C0524F-BD24-452A-96F1-149BC18AF880";
paths = (
{
closed = 1;
nodes = (
"2 -4 LINE",
"2 7 LINE",
"1 7 LINE",
"1 -4 LINE"
);
},
{
closed = 1;
nodes = (
"3 1 LINE",
"3 2 LINE",
"2 2 LINE",
"2 1 LINE"
);
},
{
closed = 1;
nodes = (
"5 0 LINE",
"5 1 LINE",
"3 1 LINE",
"3 0 LINE"
);
},
{
closed = 1;
nodes = (
"6 1 LINE",
"6 7 LINE",
"5 7 LINE",
"5 1 LINE"
);
},
{
closed = 1;
nodes = (
"5 7 LINE",
"5 8 LINE",
"2 8 LINE",
"2 7 LINE"
);
}
);
width = 7;
}
);
unicode = 0070;
},
{
glyphname = thorn;
lastChange = "2018-09-28 18:38:16 +0000";
layers = (
{
layerId = "F9C0524F-BD24-452A-96F1-149BC18AF880";
paths = (
{
closed = 1;
nodes = (
"2 -4 LINE",
"2 10 LINE",
"1 10 LINE",
"1 -4 LINE"
);
},
{
closed = 1;
nodes = (
"3 2 LINE",
"3 3 LINE",
"2 3 LINE",
"2 2 LINE"
);
},
{
closed = 1;
nodes = (
"5 1 LINE",
"5 2 LINE",
"3 2 LINE",
"3 1 LINE"
);
},
{
closed = 1;
nodes = (
"6 2 LINE",
"6 6 LINE",
"5 6 LINE",
"5 2 LINE"
);
},
{
closed = 1;
nodes = (
"5 6 LINE",
"5 7 LINE",
"2 7 LINE",
"2 6 LINE"
);
}
);
width = 7;
}
);
unicode = 00FE;
},
{
glyphname = q;
lastChange = "2018-09-27 22:05:25 +0000";
layers = (
{
layerId = "F9C0524F-BD24-452A-96F1-149BC18AF880";
paths = (
{
closed = 1;
nodes = (
"6 7 LINE",
"5 7 LINE",
"5 -4 LINE",
"6 -4 LINE"
);
},
{
closed = 1;
nodes = (
"5 2 LINE",
"4 2 LINE",
"4 1 LINE",
"5 1 LINE"
);
},
{
closed = 1;
nodes = (
"4 1 LINE",
"2 1 LINE",
"2 0 LINE",
"4 0 LINE"
);
},
{
closed = 1;
nodes = (
"2 7 LINE",
"1 7 LINE",
"1 1 LINE",
"2 1 LINE"
);
},
{
closed = 1;
nodes = (
"5 8 LINE",
"2 8 LINE",
"2 7 LINE",
"5 7 LINE"
);
}
);
width = 7;
}
);
unicode = 0071;
},
{
glyphname = r;
lastChange = "2018-09-28 20:09:15 +0000";
layers = (
{
layerId = "F9C0524F-BD24-452A-96F1-149BC18AF880";
paths = (
{
closed = 1;
nodes = (
"1 0 LINE",
"2 0 LINE",
"2 8 LINE",
"1 8 LINE"
);
},
{
closed = 1;
nodes = (
"2 6 LINE",
"3 6 LINE",
"3 7 LINE",
"2 7 LINE"
);
},
{
closed = 1;
nodes = (
"3 7 LINE",
"5 7 LINE",
"5 8 LINE",
"3 8 LINE"
);
}
);
width = 5;
}
);
unicode = 0072;
},
{
glyphname = s;
lastChange = "2018-09-27 21:59:31 +0000";
layers = (
{
layerId = "F9C0524F-BD24-452A-96F1-149BC18AF880";
paths = (
{
closed = 1;
nodes = (
"3 8 LINE",
"3 7 LINE",
"6 7 LINE",
"6 8 LINE"
);
},
{
closed = 1;
nodes = (
"2 7 LINE",
"2 6 LINE",
"3 6 LINE",
"3 7 LINE"
);
},
{
closed = 1;
nodes = (
"1 6 LINE",
"1 5 LINE",
"2 5 LINE",
"2 6 LINE"
);
},
{
closed = 1;
nodes = (
"2 5 LINE",
"2 4 LINE",
"4 4 LINE",
"4 5 LINE"
);
},
{
closed = 1;
nodes = (
"5 0 LINE",
"5 1 LINE",
"1 1 LINE",
"1 0 LINE"
);
},
{
closed = 1;
nodes = (
"6 1 LINE",
"6 3 LINE",
"5 3 LINE",
"5 1 LINE"
);
},
{
closed = 1;
nodes = (
"4 4 LINE",
"4 3 LINE",
"5 3 LINE",
"5 4 LINE"
);
}
);
width = 7;
}
);
unicode = 0073;
},
{
glyphname = scaron;
lastChange = "2018-09-28 18:26:46 +0000";
layers = (
{
components = (
{
name = caron;
transform = "{1, 0, 0, 1, 1, 0}";
}
);
layerId = "F9C0524F-BD24-452A-96F1-149BC18AF880";
paths = (
{
closed = 1;
nodes = (
"3 8 LINE",
"3 7 LINE",
"6 7 LINE",
"6 8 LINE"
);
},
{
closed = 1;
nodes = (
"2 7 LINE",
"2 6 LINE",
"3 6 LINE",
"3 7 LINE"
);
},
{
closed = 1;
nodes = (
"1 6 LINE",
"1 5 LINE",
"2 5 LINE",
"2 6 LINE"
);
},
{
closed = 1;
nodes = (
"2 5 LINE",
"2 4 LINE",
"4 4 LINE",
"4 5 LINE"
);
},
{
closed = 1;
nodes = (
"5 0 LINE",
"5 1 LINE",
"1 1 LINE",
"1 0 LINE"
);
},
{
closed = 1;
nodes = (
"6 1 LINE",
"6 3 LINE",
"5 3 LINE",
"5 1 LINE"
);
},
{
closed = 1;
nodes = (
"4 4 LINE",
"4 3 LINE",
"5 3 LINE",
"5 4 LINE"
);
}
);
width = 7;
}
);
unicode = 0161;
},
{
glyphname = germandbls;
lastChange = "2018-09-28 19:23:01 +0000";
layers = (
{
layerId = "F9C0524F-BD24-452A-96F1-149BC18AF880";
paths = (
{
closed = 1;
nodes = (
"4 8 LINE",
"4 7 LINE",
"5 7 LINE",
"5 8 LINE"
);
},
{
closed = 1;
nodes = (
"3 7 LINE",
"3 5 LINE",
"4 5 LINE",
"4 7 LINE"
);
},
{
closed = 1;
nodes = (
"4 5 LINE",
"4 4 LINE",
"5 4 LINE",
"5 5 LINE"
);
},
{
closed = 1;
nodes = (
"6 0 LINE",
"6 1 LINE",
"3 1 LINE",
"3 0 LINE"
);
},
{
closed = 1;
nodes = (
"7 1 LINE",
"7 3 LINE",
"6 3 LINE",
"6 1 LINE"
);
},
{
closed = 1;
nodes = (
"5 4 LINE",
"5 3 LINE",
"6 3 LINE",
"6 4 LINE"
);
},
{
closed = 1;
nodes = (
"2 0 LINE",
"2 11 LINE",
"1 11 LINE",
"1 0 LINE"
);
},
{
closed = 1;
nodes = (
"4 11 LINE",
"4 12 LINE",
"2 12 LINE",
"2 11 LINE"
);
},
{
closed = 1;
nodes = (
"4 10 LINE",
"5 10 LINE",
"5 11 LINE",
"4 11 LINE"
);
},
{
closed = 1;
nodes = (
"5 8 LINE",
"6 8 LINE",
"6 10 LINE",
"5 10 LINE"
);
}
);
width = 8;
}
);
unicode = 00DF;
},
{
glyphname = t;
lastChange = "2018-09-28 15:02:50 +0000";
layers = (
{
layerId = "F9C0524F-BD24-452A-96F1-149BC18AF880";
paths = (
{
closed = 1;
nodes = (
"2 1 LINE",
"3 1 LINE",
"3 7 LINE",
"2 7 LINE"
);
},
{
closed = 1;
nodes = (
"3 0 LINE",
"6 0 LINE",
"6 1 LINE",
"3 1 LINE"
);
},
{
closed = 1;
nodes = (
"1 7 LINE",
"6 7 LINE",
"6 8 LINE",
"1 8 LINE"
);
},
{
closed = 1;
nodes = (
"2 8 LINE",
"3 8 LINE",
"3 11 LINE",
"2 11 LINE"
);
}
);
width = 7;
}
);
unicode = 0074;
},
{
glyphname = tbar;
lastChange = "2018-09-28 20:40:38 +0000";
layers = (
{
layerId = "F9C0524F-BD24-452A-96F1-149BC18AF880";
paths = (
{
closed = 1;
nodes = (
"2 5 LINE",
"2 1 LINE",
"3 1 LINE",
"3 5 LINE",
"5 5 LINE",
"5 6 LINE",
"3 6 LINE",
"3 7 LINE",
"6 7 LINE",
"6 8 LINE",
"3 8 LINE",
"3 11 LINE",
"2 11 LINE",
"2 8 LINE",
"1 8 LINE",
"1 7 LINE",
"2 7 LINE",
"2 6 LINE",
"1 6 LINE",
"1 5 LINE"
);
},
{
closed = 1;
nodes = (
"6 0 LINE",
"6 1 LINE",
"3 1 LINE",
"3 0 LINE"
);
}
);
width = 7;
}
);
unicode = 0167;
},
{
glyphname = u;
lastChange = "2018-09-27 22:00:10 +0000";
layers = (
{
layerId = "F9C0524F-BD24-452A-96F1-149BC18AF880";
paths = (
{
closed = 1;
nodes = (
"6 8 LINE",
"5 8 LINE",
"5 0 LINE",
"6 0 LINE"
);
},
{
closed = 1;
nodes = (
"5 2 LINE",
"4 2 LINE",
"4 1 LINE",
"5 1 LINE"
);
},
{
closed = 1;
nodes = (
"4 1 LINE",
"2 1 LINE",
"2 0 LINE",
"4 0 LINE"
);
},
{
closed = 1;
nodes = (
"2 8 LINE",
"1 8 LINE",
"1 1 LINE",
"2 1 LINE"
);
}
);
width = 7;
}
);
unicode = 0075;
},
{
glyphname = uacute;
lastChange = "2018-09-28 18:10:46 +0000";
layers = (
{
layerId = "F9C0524F-BD24-452A-96F1-149BC18AF880";
paths = (
{
closed = 1;
nodes = (
"2 1 LINE",
"2 8 LINE",
"1 8 LINE",
"1 1 LINE"
);
},
{
closed = 1;
nodes = (
"4 0 LINE",
"4 1 LINE",
"2 1 LINE",
"2 0 LINE"
);
},
{
closed = 1;
nodes = (
"3 9 LINE",
"3 10 LINE",
"2 10 LINE",
"2 9 LINE"
);
},
{
closed = 1;
nodes = (
"4 10 LINE",
"4 11 LINE",
"3 11 LINE",
"3 10 LINE"
);
},
{
closed = 1;
nodes = (
"5 1 LINE",
"5 0 LINE",
"6 0 LINE",
"6 8 LINE",
"5 8 LINE",
"5 2 LINE",
"4 2 LINE",
"4 1 LINE"
);
},
{
closed = 1;
nodes = (
"5 11 LINE",
"5 12 LINE",
"4 12 LINE",
"4 11 LINE"
);
}
);
width = 7;
}
);
unicode = 00FA;
},
{
glyphname = ucircumflex;
lastChange = "2018-09-28 18:11:54 +0000";
layers = (
{
layerId = "F9C0524F-BD24-452A-96F1-149BC18AF880";
paths = (
{
closed = 1;
nodes = (
"2 9 LINE",
"3 9 LINE",
"3 10 LINE",
"2 10 LINE"
);
},
{
closed = 1;
nodes = (
"3 10 LINE",
"4 10 LINE",
"4 11 LINE",
"3 11 LINE"
);
},
{
closed = 1;
nodes = (
"4 9 LINE",
"5 9 LINE",
"5 10 LINE",
"4 10 LINE"
);
},
{
closed = 1;
nodes = (
"6 8 LINE",
"5 8 LINE",
"5 0 LINE",
"6 0 LINE"
);
},
{
closed = 1;
nodes = (
"5 2 LINE",
"4 2 LINE",
"4 1 LINE",
"5 1 LINE"
);
},
{
closed = 1;
nodes = (
"4 1 LINE",
"2 1 LINE",
"2 0 LINE",
"4 0 LINE"
);
},
{
closed = 1;
nodes = (
"2 8 LINE",
"1 8 LINE",
"1 1 LINE",
"2 1 LINE"
);
}
);
width = 7;
}
);
unicode = 00FB;
},
{
glyphname = udieresis;
lastChange = "2018-09-28 18:11:19 +0000";
layers = (
{
layerId = "F9C0524F-BD24-452A-96F1-149BC18AF880";
paths = (
{
closed = 1;
nodes = (
"2 9 LINE",
"3 9 LINE",
"3 11 LINE",
"2 11 LINE"
);
},
{
closed = 1;
nodes = (
"4 9 LINE",
"5 9 LINE",
"5 11 LINE",
"4 11 LINE"
);
},
{
closed = 1;
nodes = (
"6 8 LINE",
"5 8 LINE",
"5 0 LINE",
"6 0 LINE"
);
},
{
closed = 1;
nodes = (
"5 2 LINE",
"4 2 LINE",
"4 1 LINE",
"5 1 LINE"
);
},
{
closed = 1;
nodes = (
"4 1 LINE",
"2 1 LINE",
"2 0 LINE",
"4 0 LINE"
);
},
{
closed = 1;
nodes = (
"2 8 LINE",
"1 8 LINE",
"1 1 LINE",
"2 1 LINE"
);
}
);
width = 7;
}
);
unicode = 00FC;
},
{
glyphname = ugrave;
lastChange = "2018-09-28 18:10:50 +0000";
layers = (
{
layerId = "F9C0524F-BD24-452A-96F1-149BC18AF880";
paths = (
{
closed = 1;
nodes = (
"2 1 LINE",
"2 8 LINE",
"1 8 LINE",
"1 1 LINE"
);
},
{
closed = 1;
nodes = (
"4 0 LINE",
"4 1 LINE",
"2 1 LINE",
"2 0 LINE"
);
},
{
closed = 1;
nodes = (
"3 11 LINE",
"3 12 LINE",
"2 12 LINE",
"2 11 LINE"
);
},
{
closed = 1;
nodes = (
"4 10 LINE",
"4 11 LINE",
"3 11 LINE",
"3 10 LINE"
);
},
{
closed = 1;
nodes = (
"5 1 LINE",
"5 0 LINE",
"6 0 LINE",
"6 8 LINE",
"5 8 LINE",
"5 2 LINE",
"4 2 LINE",
"4 1 LINE"
);
},
{
closed = 1;
nodes = (
"5 9 LINE",
"5 10 LINE",
"4 10 LINE",
"4 9 LINE"
);
}
);
width = 7;
}
);
unicode = 00F9;
},
{
glyphname = v;
lastChange = "2018-09-27 22:00:33 +0000";
layers = (
{
layerId = "F9C0524F-BD24-452A-96F1-149BC18AF880";
paths = (
{
closed = 1;
nodes = (
"3 0 LINE",
"4 0 LINE",
"4 2 LINE",
"3 2 LINE"
);
},
{
closed = 1;
nodes = (
"2 2 LINE",
"3 2 LINE",
"3 4 LINE",
"2 4 LINE"
);
},
{
closed = 1;
nodes = (
"4 2 LINE",
"5 2 LINE",
"5 4 LINE",
"4 4 LINE"
);
},
{
closed = 1;
nodes = (
"5 4 LINE",
"6 4 LINE",
"6 8 LINE",
"5 8 LINE"
);
},
{
closed = 1;
nodes = (
"1 4 LINE",
"2 4 LINE",
"2 8 LINE",
"1 8 LINE"
);
}
);
width = 7;
}
);
unicode = 0076;
},
{
glyphname = w;
lastChange = "2018-09-27 22:00:44 +0000";
layers = (
{
layerId = "F9C0524F-BD24-452A-96F1-149BC18AF880";
paths = (
{
closed = 1;
nodes = (
"3 0 LINE",
"4 0 LINE",
"4 2 LINE",
"3 2 LINE"
);
},
{
closed = 1;
nodes = (
"2 2 LINE",
"3 2 LINE",
"3 4 LINE",
"2 4 LINE"
);
},
{
closed = 1;
nodes = (
"4 2 LINE",
"5 2 LINE",
"5 4 LINE",
"4 4 LINE"
);
},
{
closed = 1;
nodes = (
"5 4 LINE",
"6 4 LINE",
"6 8 LINE",
"5 8 LINE"
);
},
{
closed = 1;
nodes = (
"1 4 LINE",
"2 4 LINE",
"2 8 LINE",
"1 8 LINE"
);
},
{
closed = 1;
nodes = (
"7 0 LINE",
"8 0 LINE",
"8 2 LINE",
"7 2 LINE"
);
},
{
closed = 1;
nodes = (
"6 2 LINE",
"7 2 LINE",
"7 4 LINE",
"6 4 LINE"
);
},
{
closed = 1;
nodes = (
"8 2 LINE",
"9 2 LINE",
"9 4 LINE",
"8 4 LINE"
);
},
{
closed = 1;
nodes = (
"9 4 LINE",
"10 4 LINE",
"10 8 LINE",
"9 8 LINE"
);
}
);
width = 11;
}
);
unicode = 0077;
},
{
glyphname = x;
lastChange = "2018-09-27 22:04:56 +0000";
layers = (
{
layerId = "F9C0524F-BD24-452A-96F1-149BC18AF880";
paths = (
{
closed = 1;
nodes = (
"3 3 LINE",
"4 3 LINE",
"4 5 LINE",
"3 5 LINE"
);
},
{
closed = 1;
nodes = (
"2 5 LINE",
"3 5 LINE",
"3 6 LINE",
"2 6 LINE"
);
},
{
closed = 1;
nodes = (
"4 5 LINE",
"5 5 LINE",
"5 6 LINE",
"4 6 LINE"
);
},
{
closed = 1;
nodes = (
"5 6 LINE",
"6 6 LINE",
"6 8 LINE",
"5 8 LINE"
);
},
{
closed = 1;
nodes = (
"1 6 LINE",
"2 6 LINE",
"2 8 LINE",
"1 8 LINE"
);
},
{
closed = 1;
nodes = (
"3 2 LINE",
"3 3 LINE",
"2 3 LINE",
"2 2 LINE"
);
},
{
closed = 1;
nodes = (
"5 2 LINE",
"5 3 LINE",
"4 3 LINE",
"4 2 LINE"
);
},
{
closed = 1;
nodes = (
"6 0 LINE",
"6 2 LINE",
"5 2 LINE",
"5 0 LINE"
);
},
{
closed = 1;
nodes = (
"2 0 LINE",
"2 2 LINE",
"1 2 LINE",
"1 0 LINE"
);
}
);
width = 7;
}
);
unicode = 0078;
},
{
glyphname = y;
lastChange = "2018-09-27 22:40:54 +0000";
layers = (
{
layerId = "F9C0524F-BD24-452A-96F1-149BC18AF880";
paths = (
{
closed = 1;
nodes = (
"3 0 LINE",
"4 0 LINE",
"4 2 LINE",
"3 2 LINE"
);
},
{
closed = 1;
nodes = (
"2 2 LINE",
"3 2 LINE",
"3 4 LINE",
"2 4 LINE"
);
},
{
closed = 1;
nodes = (
"4 2 LINE",
"5 2 LINE",
"5 4 LINE",
"4 4 LINE"
);
},
{
closed = 1;
nodes = (
"5 4 LINE",
"6 4 LINE",
"6 7 LINE",
"5 7 LINE"
);
},
{
closed = 1;
nodes = (
"1 4 LINE",
"2 4 LINE",
"2 8 LINE",
"1 8 LINE"
);
},
{
closed = 1;
nodes = (
"-1 -3 LINE",
"1 -3 LINE",
"1 -2 LINE",
"-1 -2 LINE"
);
},
{
closed = 1;
nodes = (
"2 -1 LINE",
"3 -1 LINE",
"3 0 LINE",
"2 0 LINE"
);
},
{
closed = 1;
nodes = (
"1 -2 LINE",
"2 -2 LINE",
"2 -1 LINE",
"1 -1 LINE"
);
},
{
closed = 1;
nodes = (
"4 7 LINE",
"5 7 LINE",
"5 8 LINE",
"4 8 LINE"
);
}
);
width = 7;
}
);
unicode = 0079;
},
{
glyphname = yacute;
lastChange = "2018-09-28 16:57:40 +0000";
layers = (
{
layerId = "F9C0524F-BD24-452A-96F1-149BC18AF880";
paths = (
{
closed = 1;
nodes = (
"3 0 LINE",
"4 0 LINE",
"4 2 LINE",
"3 2 LINE"
);
},
{
closed = 1;
nodes = (
"2 2 LINE",
"3 2 LINE",
"3 4 LINE",
"2 4 LINE"
);
},
{
closed = 1;
nodes = (
"4 2 LINE",
"5 2 LINE",
"5 4 LINE",
"4 4 LINE"
);
},
{
closed = 1;
nodes = (
"5 4 LINE",
"6 4 LINE",
"6 7 LINE",
"5 7 LINE"
);
},
{
closed = 1;
nodes = (
"1 4 LINE",
"2 4 LINE",
"2 8 LINE",
"1 8 LINE"
);
},
{
closed = 1;
nodes = (
"-1 -3 LINE",
"1 -3 LINE",
"1 -2 LINE",
"-1 -2 LINE"
);
},
{
closed = 1;
nodes = (
"2 -1 LINE",
"3 -1 LINE",
"3 0 LINE",
"2 0 LINE"
);
},
{
closed = 1;
nodes = (
"1 -2 LINE",
"2 -2 LINE",
"2 -1 LINE",
"1 -1 LINE"
);
},
{
closed = 1;
nodes = (
"4 7 LINE",
"5 7 LINE",
"5 8 LINE",
"4 8 LINE"
);
},
{
closed = 1;
nodes = (
"5 12 LINE",
"5 11 LINE",
"6 11 LINE",
"6 12 LINE"
);
},
{
closed = 1;
nodes = (
"4 11 LINE",
"4 10 LINE",
"5 10 LINE",
"5 11 LINE"
);
},
{
closed = 1;
nodes = (
"3 10 LINE",
"3 9 LINE",
"4 9 LINE",
"4 10 LINE"
);
}
);
width = 7;
}
);
unicode = 00FD;
},
{
glyphname = ydieresis;
lastChange = "2018-09-28 19:00:08 +0000";
layers = (
{
layerId = "F9C0524F-BD24-452A-96F1-149BC18AF880";
paths = (
{
closed = 1;
nodes = (
"1 9 LINE",
"2 9 LINE",
"2 11 LINE",
"1 11 LINE"
);
},
{
closed = 1;
nodes = (
"3 9 LINE",
"4 9 LINE",
"4 11 LINE",
"3 11 LINE"
);
},
{
closed = 1;
nodes = (
"3 0 LINE",
"4 0 LINE",
"4 2 LINE",
"3 2 LINE"
);
},
{
closed = 1;
nodes = (
"2 2 LINE",
"3 2 LINE",
"3 4 LINE",
"2 4 LINE"
);
},
{
closed = 1;
nodes = (
"4 2 LINE",
"5 2 LINE",
"5 4 LINE",
"4 4 LINE"
);
},
{
closed = 1;
nodes = (
"5 4 LINE",
"6 4 LINE",
"6 7 LINE",
"5 7 LINE"
);
},
{
closed = 1;
nodes = (
"1 4 LINE",
"2 4 LINE",
"2 8 LINE",
"1 8 LINE"
);
},
{
closed = 1;
nodes = (
"-1 -3 LINE",
"1 -3 LINE",
"1 -2 LINE",
"-1 -2 LINE"
);
},
{
closed = 1;
nodes = (
"2 -1 LINE",
"3 -1 LINE",
"3 0 LINE",
"2 0 LINE"
);
},
{
closed = 1;
nodes = (
"1 -2 LINE",
"2 -2 LINE",
"2 -1 LINE",
"1 -1 LINE"
);
},
{
closed = 1;
nodes = (
"4 7 LINE",
"5 7 LINE",
"5 8 LINE",
"4 8 LINE"
);
}
);
width = 7;
}
);
unicode = 00FF;
},
{
glyphname = z;
lastChange = "2018-09-27 22:21:17 +0000";
layers = (
{
layerId = "F9C0524F-BD24-452A-96F1-149BC18AF880";
paths = (
{
closed = 1;
nodes = (
"4 5 LINE",
"5 5 LINE",
"5 4 LINE",
"4 4 LINE"
);
},
{
closed = 1;
nodes = (
"3 4 LINE",
"4 4 LINE",
"4 6 LINE",
"3 6 LINE"
);
},
{
closed = 1;
nodes = (
"4 6 LINE",
"5 6 LINE",
"5 7 LINE",
"4 7 LINE"
);
},
{
closed = 1;
nodes = (
"1 7 LINE",
"6 7 LINE",
"6 8 LINE",
"1 8 LINE"
);
},
{
closed = 1;
nodes = (
"5 0 LINE",
"6 0 LINE",
"6 4 LINE",
"5 4 LINE"
);
},
{
closed = 1;
nodes = (
"4 -1 LINE",
"5 -1 LINE",
"5 0 LINE",
"4 0 LINE"
);
},
{
closed = 1;
nodes = (
"2 -2 LINE",
"4 -2 LINE",
"4 -1 LINE",
"2 -1 LINE"
);
},
{
closed = 1;
nodes = (
"1 -1 LINE",
"2 -1 LINE",
"2 0 LINE",
"1 0 LINE"
);
}
);
width = 7;
}
);
unicode = 007A;
},
{
glyphname = ordfeminine;
lastChange = "2018-09-28 19:33:14 +0000";
layers = (
{
layerId = "F9C0524F-BD24-452A-96F1-149BC18AF880";
paths = (
{
closed = 1;
nodes = (
"2 8 LINE",
"2 9 LINE",
"1 9 LINE",
"1 8 LINE"
);
},
{
closed = 1;
nodes = (
"3 11 LINE",
"3 12 LINE",
"1 12 LINE",
"1 11 LINE"
);
},
{
closed = 1;
nodes = (
"4 7 LINE",
"4 11 LINE",
"3 11 LINE",
"3 10 LINE",
"2 10 LINE",
"2 9 LINE",
"3 9 LINE",
"3 8 LINE",
"2 8 LINE",
"2 7 LINE"
);
}
);
width = 5;
}
);
unicode = 00AA;
},
{
glyphname = ordmasculine;
lastChange = "2018-09-28 19:33:35 +0000";
layers = (
{
layerId = "F9C0524F-BD24-452A-96F1-149BC18AF880";
paths = (
{
closed = 1;
nodes = (
"2 11 LINE",
"3 11 LINE",
"3 12 LINE",
"2 12 LINE"
);
},
{
closed = 1;
nodes = (
"2 7 LINE",
"3 7 LINE",
"3 8 LINE",
"2 8 LINE"
);
},
{
closed = 1;
nodes = (
"1 8 LINE",
"2 8 LINE",
"2 11 LINE",
"1 11 LINE"
);
},
{
closed = 1;
nodes = (
"3 8 LINE",
"4 8 LINE",
"4 11 LINE",
"3 11 LINE"
);
}
);
width = 5;
}
);
unicode = 00BA;
},
{
glyphname = Delta;
lastChange = "2018-09-28 19:13:25 +0000";
layers = (
{
layerId = "F9C0524F-BD24-452A-96F1-149BC18AF880";
paths = (
{
closed = 1;
nodes = (
"9 0 LINE",
"9 3 LINE",
"8 3 LINE",
"8 1 LINE",
"1 1 LINE",
"1 3 LINE",
"0 3 LINE",
"0 0 LINE"
);
},
{
closed = 1;
nodes = (
"2 3 LINE",
"2 6 LINE",
"1 6 LINE",
"1 3 LINE"
);
},
{
closed = 1;
nodes = (
"3 6 LINE",
"3 9 LINE",
"2 9 LINE",
"2 6 LINE"
);
},
{
closed = 1;
nodes = (
"4 9 LINE",
"4 11 LINE",
"3 11 LINE",
"3 9 LINE"
);
},
{
closed = 1;
nodes = (
"7 6 LINE",
"7 9 LINE",
"6 9 LINE",
"6 6 LINE"
);
},
{
closed = 1;
nodes = (
"8 3 LINE",
"8 6 LINE",
"7 6 LINE",
"7 3 LINE"
);
},
{
closed = 1;
nodes = (
"5 11 LINE",
"5 12 LINE",
"4 12 LINE",
"4 11 LINE"
);
},
{
closed = 1;
nodes = (
"6 9 LINE",
"6 11 LINE",
"5 11 LINE",
"5 9 LINE"
);
}
);
width = 9;
}
);
unicode = 0394;
},
{
glyphname = Omega;
lastChange = "2018-09-28 19:53:07 +0000";
layers = (
{
layerId = "F9C0524F-BD24-452A-96F1-149BC18AF880";
paths = (
{
closed = 1;
nodes = (
"2 0 LINE",
"2 1 LINE",
"1 1 LINE",
"1 0 LINE"
);
},
{
closed = 1;
nodes = (
"3 1 LINE",
"3 3 LINE",
"2 3 LINE",
"2 1 LINE"
);
},
{
closed = 1;
nodes = (
"6 1 LINE",
"6 3 LINE",
"5 3 LINE",
"5 1 LINE"
);
},
{
closed = 1;
nodes = (
"7 0 LINE",
"7 1 LINE",
"6 1 LINE",
"6 0 LINE"
);
},
{
closed = 1;
nodes = (
"2 3 LINE",
"2 6 LINE",
"1 6 LINE",
"1 3 LINE"
);
},
{
closed = 1;
nodes = (
"3 6 LINE",
"3 7 LINE",
"2 7 LINE",
"2 6 LINE"
);
},
{
closed = 1;
nodes = (
"5 7 LINE",
"5 8 LINE",
"3 8 LINE",
"3 7 LINE"
);
},
{
closed = 1;
nodes = (
"6 6 LINE",
"6 7 LINE",
"5 7 LINE",
"5 6 LINE"
);
},
{
closed = 1;
nodes = (
"7 3 LINE",
"7 6 LINE",
"6 6 LINE",
"6 3 LINE"
);
}
);
width = 8;
}
);
unicode = 03A9;
},
{
glyphname = mu;
lastChange = "2018-09-28 19:36:02 +0000";
layers = (
{
layerId = "F9C0524F-BD24-452A-96F1-149BC18AF880";
paths = (
{
closed = 1;
nodes = (
"2 -4 LINE",
"2 0 LINE",
"4 0 LINE",
"4 1 LINE",
"2 1 LINE",
"2 8 LINE",
"1 8 LINE",
"1 -4 LINE"
);
},
{
closed = 1;
nodes = (
"5 1 LINE",
"5 0 LINE",
"6 0 LINE",
"6 8 LINE",
"5 8 LINE",
"5 2 LINE",
"4 2 LINE",
"4 1 LINE"
);
}
);
width = 7;
}
);
unicode = 03BC;
},
{
glyphname = pi;
lastChange = "2018-09-28 19:55:47 +0000";
layers = (
{
layerId = "F9C0524F-BD24-452A-96F1-149BC18AF880";
paths = (
{
closed = 1;
nodes = (
"1 6 LINE",
"6 6 LINE",
"6 7 LINE",
"1 7 LINE"
);
},
{
closed = 1;
nodes = (
"2 1 LINE",
"3 1 LINE",
"3 6 LINE",
"2 6 LINE"
);
},
{
closed = 1;
nodes = (
"4 2 LINE",
"5 2 LINE",
"5 6 LINE",
"4 6 LINE"
);
},
{
closed = 1;
nodes = (
"5 1 LINE",
"6 1 LINE",
"6 2 LINE",
"5 2 LINE"
);
}
);
width = 7;
}
);
unicode = 03C0;
},
{
glyphname = zero;
lastChange = "2018-09-28 01:13:03 +0000";
layers = (
{
layerId = "F9C0524F-BD24-452A-96F1-149BC18AF880";
paths = (
{
closed = 1;
nodes = (
"3 9 LINE",
"6 9 LINE",
"6 10 LINE",
"3 10 LINE"
);
},
{
closed = 1;
nodes = (
"2 8 LINE",
"3 8 LINE",
"3 9 LINE",
"2 9 LINE"
);
},
{
closed = 1;
nodes = (
"6 8 LINE",
"7 8 LINE",
"7 9 LINE",
"6 9 LINE"
);
},
{
closed = 1;
nodes = (
"1 2 LINE",
"2 2 LINE",
"2 8 LINE",
"1 8 LINE"
);
},
{
closed = 1;
nodes = (
"7 2 LINE",
"8 2 LINE",
"8 8 LINE",
"7 8 LINE"
);
},
{
closed = 1;
nodes = (
"6 0 LINE",
"6 1 LINE",
"3 1 LINE",
"3 0 LINE"
);
},
{
closed = 1;
nodes = (
"3 1 LINE",
"3 2 LINE",
"2 2 LINE",
"2 1 LINE"
);
},
{
closed = 1;
nodes = (
"7 1 LINE",
"7 2 LINE",
"6 2 LINE",
"6 1 LINE"
);
},
{
closed = 1;
nodes = (
"4 3 LINE",
"5 3 LINE",
"5 7 LINE",
"4 7 LINE"
);
}
);
width = 9;
}
);
unicode = 0030;
},
{
glyphname = one;
lastChange = "2018-09-28 01:46:29 +0000";
layers = (
{
layerId = "F9C0524F-BD24-452A-96F1-149BC18AF880";
paths = (
{
closed = 1;
nodes = (
"4 0 LINE",
"5 0 LINE",
"5 9 LINE",
"4 9 LINE"
);
},
{
closed = 1;
nodes = (
"1 0 LINE",
"8 0 LINE",
"8 1 LINE",
"1 1 LINE"
);
},
{
closed = 1;
nodes = (
"1 9 LINE",
"4 9 LINE",
"4 10 LINE",
"1 10 LINE"
);
}
);
width = 9;
}
);
unicode = 0031;
},
{
glyphname = two;
lastChange = "2018-09-28 01:11:49 +0000";
layers = (
{
layerId = "F9C0524F-BD24-452A-96F1-149BC18AF880";
paths = (
{
closed = 1;
nodes = (
"2 9 LINE",
"6 9 LINE",
"6 10 LINE",
"2 10 LINE"
);
},
{
closed = 1;
nodes = (
"6 8 LINE",
"7 8 LINE",
"7 9 LINE",
"6 9 LINE"
);
},
{
closed = 1;
nodes = (
"7 7 LINE",
"8 7 LINE",
"8 8 LINE",
"7 8 LINE"
);
},
{
closed = 1;
nodes = (
"6 5 LINE",
"6 6 LINE",
"5 6 LINE",
"5 5 LINE"
);
},
{
closed = 1;
nodes = (
"4 3 LINE",
"4 4 LINE",
"3 4 LINE",
"3 3 LINE"
);
},
{
closed = 1;
nodes = (
"2 1 LINE",
"2 2 LINE",
"1 2 LINE",
"1 1 LINE"
);
},
{
closed = 1;
nodes = (
"8 0 LINE",
"8 1 LINE",
"2 1 LINE",
"2 0 LINE"
);
},
{
closed = 1;
nodes = (
"1 8 LINE",
"2 8 LINE",
"2 9 LINE",
"1 9 LINE"
);
},
{
closed = 1;
nodes = (
"3 2 LINE",
"3 3 LINE",
"2 3 LINE",
"2 2 LINE"
);
},
{
closed = 1;
nodes = (
"5 4 LINE",
"5 5 LINE",
"4 5 LINE",
"4 4 LINE"
);
},
{
closed = 1;
nodes = (
"7 6 LINE",
"7 7 LINE",
"6 7 LINE",
"6 6 LINE"
);
}
);
width = 9;
}
);
unicode = 0032;
},
{
glyphname = three;
lastChange = "2018-09-28 01:35:04 +0000";
layers = (
{
layerId = "F9C0524F-BD24-452A-96F1-149BC18AF880";
paths = (
{
closed = 1;
nodes = (
"2 9 LINE",
"6 9 LINE",
"6 10 LINE",
"2 10 LINE"
);
},
{
closed = 1;
nodes = (
"6 8 LINE",
"7 8 LINE",
"7 9 LINE",
"6 9 LINE"
);
},
{
closed = 1;
nodes = (
"7 7 LINE",
"8 7 LINE",
"8 8 LINE",
"7 8 LINE"
);
},
{
closed = 1;
nodes = (
"5 5 LINE",
"5 6 LINE",
"3 6 LINE",
"3 5 LINE"
);
},
{
closed = 1;
nodes = (
"1 8 LINE",
"2 8 LINE",
"2 9 LINE",
"1 9 LINE"
);
},
{
closed = 1;
nodes = (
"7 6 LINE",
"7 7 LINE",
"5 7 LINE",
"5 6 LINE"
);
},
{
closed = 1;
nodes = (
"6 0 LINE",
"6 1 LINE",
"2 1 LINE",
"2 0 LINE"
);
},
{
closed = 1;
nodes = (
"7 1 LINE",
"7 2 LINE",
"6 2 LINE",
"6 1 LINE"
);
},
{
closed = 1;
nodes = (
"8 2 LINE",
"8 4 LINE",
"7 4 LINE",
"7 2 LINE"
);
},
{
closed = 1;
nodes = (
"5 4 LINE",
"7 4 LINE",
"7 5 LINE",
"5 5 LINE"
);
},
{
closed = 1;
nodes = (
"2 1 LINE",
"2 2 LINE",
"1 2 LINE",
"1 1 LINE"
);
}
);
width = 9;
}
);
unicode = 0033;
},
{
glyphname = four;
lastChange = "2018-09-28 01:46:06 +0000";
layers = (
{
layerId = "F9C0524F-BD24-452A-96F1-149BC18AF880";
paths = (
{
closed = 1;
nodes = (
"5 0 LINE",
"6 0 LINE",
"6 10 LINE",
"5 10 LINE"
);
},
{
closed = 1;
nodes = (
"3 8 LINE",
"4 8 LINE",
"4 9 LINE",
"3 9 LINE"
);
},
{
closed = 1;
nodes = (
"2 6 LINE",
"3 6 LINE",
"3 8 LINE",
"2 8 LINE"
);
},
{
closed = 1;
nodes = (
"1 4 LINE",
"2 4 LINE",
"2 6 LINE",
"1 6 LINE"
);
},
{
closed = 1;
nodes = (
"1 3 LINE",
"8 3 LINE",
"8 4 LINE",
"1 4 LINE"
);
},
{
closed = 1;
nodes = (
"4 9 LINE",
"5 9 LINE",
"5 10 LINE",
"4 10 LINE"
);
},
{
closed = 1;
nodes = (
"4 0 LINE",
"7 0 LINE",
"7 1 LINE",
"4 1 LINE"
);
}
);
width = 9;
}
);
unicode = 0034;
},
{
glyphname = five;
lastChange = "2018-09-28 01:38:54 +0000";
layers = (
{
layerId = "F9C0524F-BD24-452A-96F1-149BC18AF880";
paths = (
{
closed = 1;
nodes = (
"2 9 LINE",
"7 9 LINE",
"7 10 LINE",
"2 10 LINE"
);
},
{
closed = 1;
nodes = (
"6 5 LINE",
"6 6 LINE",
"2 6 LINE",
"2 5 LINE"
);
},
{
closed = 1;
nodes = (
"1 6 LINE",
"2 6 LINE",
"2 9 LINE",
"1 9 LINE"
);
},
{
closed = 1;
nodes = (
"6 0 LINE",
"6 1 LINE",
"2 1 LINE",
"2 0 LINE"
);
},
{
closed = 1;
nodes = (
"7 1 LINE",
"7 2 LINE",
"6 2 LINE",
"6 1 LINE"
);
},
{
closed = 1;
nodes = (
"8 2 LINE",
"8 4 LINE",
"7 4 LINE",
"7 2 LINE"
);
},
{
closed = 1;
nodes = (
"6 4 LINE",
"7 4 LINE",
"7 5 LINE",
"6 5 LINE"
);
},
{
closed = 1;
nodes = (
"2 1 LINE",
"2 2 LINE",
"1 2 LINE",
"1 1 LINE"
);
}
);
width = 9;
}
);
unicode = 0035;
},
{
glyphname = six;
lastChange = "2018-09-28 01:42:38 +0000";
layers = (
{
layerId = "F9C0524F-BD24-452A-96F1-149BC18AF880";
paths = (
{
closed = 1;
nodes = (
"3 9 LINE",
"7 9 LINE",
"7 10 LINE",
"3 10 LINE"
);
},
{
closed = 1;
nodes = (
"6 5 LINE",
"6 6 LINE",
"4 6 LINE",
"4 5 LINE"
);
},
{
closed = 1;
nodes = (
"3 4 LINE",
"4 4 LINE",
"4 5 LINE",
"3 5 LINE"
);
},
{
closed = 1;
nodes = (
"6 0 LINE",
"6 1 LINE",
"3 1 LINE",
"3 0 LINE"
);
},
{
closed = 1;
nodes = (
"7 1 LINE",
"7 2 LINE",
"6 2 LINE",
"6 1 LINE"
);
},
{
closed = 1;
nodes = (
"8 2 LINE",
"8 4 LINE",
"7 4 LINE",
"7 2 LINE"
);
},
{
closed = 1;
nodes = (
"6 4 LINE",
"7 4 LINE",
"7 5 LINE",
"6 5 LINE"
);
},
{
closed = 1;
nodes = (
"3 1 LINE",
"3 2 LINE",
"2 2 LINE",
"2 1 LINE"
);
},
{
closed = 1;
nodes = (
"2 2 LINE",
"2 7 LINE",
"1 7 LINE",
"1 2 LINE"
);
},
{
closed = 1;
nodes = (
"2 7 LINE",
"3 7 LINE",
"3 9 LINE",
"2 9 LINE"
);
}
);
width = 9;
}
);
unicode = 0036;
},
{
glyphname = seven;
lastChange = "2018-09-28 01:47:01 +0000";
layers = (
{
layerId = "F9C0524F-BD24-452A-96F1-149BC18AF880";
paths = (
{
closed = 1;
nodes = (
"1 9 LINE",
"6 9 LINE",
"6 10 LINE",
"1 10 LINE"
);
},
{
closed = 1;
nodes = (
"6 8 LINE",
"7 8 LINE",
"7 9 LINE",
"6 9 LINE"
);
},
{
closed = 1;
nodes = (
"7 6 LINE",
"8 6 LINE",
"8 8 LINE",
"7 8 LINE"
);
},
{
closed = 1;
nodes = (
"6 4 LINE",
"6 5 LINE",
"5 5 LINE",
"5 4 LINE"
);
},
{
closed = 1;
nodes = (
"4 0 LINE",
"4 3 LINE",
"3 3 LINE",
"3 0 LINE"
);
},
{
closed = 1;
nodes = (
"5 3 LINE",
"5 4 LINE",
"4 4 LINE",
"4 3 LINE"
);
},
{
closed = 1;
nodes = (
"7 5 LINE",
"7 6 LINE",
"6 6 LINE",
"6 5 LINE"
);
},
{
closed = 1;
nodes = (
"1 8 LINE",
"2 8 LINE",
"2 9 LINE",
"1 9 LINE"
);
}
);
width = 9;
}
);
unicode = 0037;
},
{
glyphname = eight;
lastChange = "2018-09-28 01:44:32 +0000";
layers = (
{
layerId = "F9C0524F-BD24-452A-96F1-149BC18AF880";
paths = (
{
closed = 1;
nodes = (
"3 9 LINE",
"6 9 LINE",
"6 10 LINE",
"3 10 LINE"
);
},
{
closed = 1;
nodes = (
"6 5 LINE",
"6 6 LINE",
"3 6 LINE",
"3 5 LINE"
);
},
{
closed = 1;
nodes = (
"2 6 LINE",
"3 6 LINE",
"3 9 LINE",
"2 9 LINE"
);
},
{
closed = 1;
nodes = (
"6 0 LINE",
"6 1 LINE",
"3 1 LINE",
"3 0 LINE"
);
},
{
closed = 1;
nodes = (
"7 1 LINE",
"7 2 LINE",
"6 2 LINE",
"6 1 LINE"
);
},
{
closed = 1;
nodes = (
"8 2 LINE",
"8 4 LINE",
"7 4 LINE",
"7 2 LINE"
);
},
{
closed = 1;
nodes = (
"6 4 LINE",
"7 4 LINE",
"7 5 LINE",
"6 5 LINE"
);
},
{
closed = 1;
nodes = (
"3 1 LINE",
"3 2 LINE",
"2 2 LINE",
"2 1 LINE"
);
},
{
closed = 1;
nodes = (
"2 4 LINE",
"1 4 LINE",
"1 2 LINE",
"2 2 LINE"
);
},
{
closed = 1;
nodes = (
"2 5 LINE",
"2 4 LINE",
"3 4 LINE",
"3 5 LINE"
);
},
{
closed = 1;
nodes = (
"6 6 LINE",
"7 6 LINE",
"7 9 LINE",
"6 9 LINE"
);
}
);
width = 9;
}
);
unicode = 0038;
},
{
glyphname = nine;
lastChange = "2018-09-28 01:42:47 +0000";
layers = (
{
layerId = "F9C0524F-BD24-452A-96F1-149BC18AF880";
paths = (
{
closed = 1;
nodes = (
"6 1 LINE",
"2 1 LINE",
"2 0 LINE",
"6 0 LINE"
);
},
{
closed = 1;
nodes = (
"3 5 LINE",
"3 4 LINE",
"5 4 LINE",
"5 5 LINE"
);
},
{
closed = 1;
nodes = (
"6 6 LINE",
"5 6 LINE",
"5 5 LINE",
"6 5 LINE"
);
},
{
closed = 1;
nodes = (
"3 10 LINE",
"3 9 LINE",
"6 9 LINE",
"6 10 LINE"
);
},
{
closed = 1;
nodes = (
"2 9 LINE",
"2 8 LINE",
"3 8 LINE",
"3 9 LINE"
);
},
{
closed = 1;
nodes = (
"1 8 LINE",
"1 6 LINE",
"2 6 LINE",
"2 8 LINE"
);
},
{
closed = 1;
nodes = (
"3 6 LINE",
"2 6 LINE",
"2 5 LINE",
"3 5 LINE"
);
},
{
closed = 1;
nodes = (
"6 9 LINE",
"6 8 LINE",
"7 8 LINE",
"7 9 LINE"
);
},
{
closed = 1;
nodes = (
"7 8 LINE",
"7 3 LINE",
"8 3 LINE",
"8 8 LINE"
);
},
{
closed = 1;
nodes = (
"7 3 LINE",
"6 3 LINE",
"6 1 LINE",
"7 1 LINE"
);
}
);
width = 9;
}
);
unicode = 0039;
},
{
glyphname = onesuperior;
lastChange = "2018-09-28 18:50:30 +0000";
layers = (
{
layerId = "F9C0524F-BD24-452A-96F1-149BC18AF880";
paths = (
{
closed = 1;
nodes = (
"4 7 LINE",
"4 8 LINE",
"3 8 LINE",
"3 11 LINE",
"2 11 LINE",
"2 8 LINE",
"1 8 LINE",
"1 7 LINE"
);
},
{
closed = 1;
nodes = (
"2 11 LINE",
"2 12 LINE",
"1 12 LINE",
"1 11 LINE"
);
}
);
width = 5;
}
);
unicode = 00B9;
},
{
glyphname = twosuperior;
lastChange = "2018-09-28 18:53:11 +0000";
layers = (
{
layerId = "F9C0524F-BD24-452A-96F1-149BC18AF880";
paths = (
{
closed = 1;
nodes = (
"4 7 LINE",
"4 8 LINE",
"2 8 LINE",
"2 9 LINE",
"1 9 LINE",
"1 7 LINE"
);
},
{
closed = 1;
nodes = (
"3 11 LINE",
"3 12 LINE",
"1 12 LINE",
"1 11 LINE"
);
},
{
closed = 1;
nodes = (
"3 9 LINE",
"3 10 LINE",
"2 10 LINE",
"2 9 LINE"
);
},
{
closed = 1;
nodes = (
"4 10 LINE",
"4 11 LINE",
"3 11 LINE",
"3 10 LINE"
);
}
);
width = 5;
}
);
leftMetricsKey = two;
unicode = 00B2;
},
{
glyphname = threesuperior;
lastChange = "2018-09-28 18:50:21 +0000";
layers = (
{
layerId = "F9C0524F-BD24-452A-96F1-149BC18AF880";
paths = (
{
closed = 1;
nodes = (
"1 11 LINE",
"3 11 LINE",
"3 12 LINE",
"1 12 LINE"
);
},
{
closed = 1;
nodes = (
"2 9 LINE",
"3 9 LINE",
"3 10 LINE",
"2 10 LINE"
);
},
{
closed = 1;
nodes = (
"1 7 LINE",
"3 7 LINE",
"3 8 LINE",
"1 8 LINE"
);
},
{
closed = 1;
nodes = (
"3 8 LINE",
"4 8 LINE",
"4 11 LINE",
"3 11 LINE"
);
}
);
width = 5;
}
);
unicode = 00B3;
},
{
glyphname = fraction;
lastChange = "2018-09-28 02:00:21 +0000";
layers = (
{
layerId = "F9C0524F-BD24-452A-96F1-149BC18AF880";
paths = (
{
closed = 1;
nodes = (
"1 1 LINE",
"2 1 LINE",
"2 3 LINE",
"1 3 LINE"
);
},
{
closed = 1;
nodes = (
"2 3 LINE",
"4 3 LINE",
"4 4 LINE",
"2 4 LINE"
);
},
{
closed = 1;
nodes = (
"4 4 LINE",
"5 4 LINE",
"5 5 LINE",
"4 5 LINE"
);
},
{
closed = 1;
nodes = (
"7 7 LINE",
"9 7 LINE",
"9 8 LINE",
"7 8 LINE"
);
},
{
closed = 1;
nodes = (
"9 8 LINE",
"10 8 LINE",
"10 10 LINE",
"9 10 LINE"
);
},
{
closed = 1;
nodes = (
"6 6 LINE",
"7 6 LINE",
"7 7 LINE",
"6 7 LINE"
);
},
{
closed = 1;
nodes = (
"5 5 LINE",
"6 5 LINE",
"6 6 LINE",
"5 6 LINE"
);
}
);
width = 11;
}
);
unicode = 2044;
},
{
glyphname = onehalf;
lastChange = "2018-09-28 18:43:30 +0000";
layers = (
{
layerId = "F9C0524F-BD24-452A-96F1-149BC18AF880";
paths = (
{
closed = 1;
nodes = (
"3 0 LINE",
"4 0 LINE",
"4 2 LINE",
"3 2 LINE"
);
},
{
closed = 1;
nodes = (
"4 2 LINE",
"5 2 LINE",
"5 5 LINE",
"4 5 LINE"
);
},
{
closed = 1;
nodes = (
"5 5 LINE",
"6 5 LINE",
"6 7 LINE",
"5 7 LINE"
);
},
{
closed = 1;
nodes = (
"6 7 LINE",
"7 7 LINE",
"7 10 LINE",
"6 10 LINE"
);
},
{
closed = 1;
nodes = (
"7 10 LINE",
"8 10 LINE",
"8 12 LINE",
"7 12 LINE"
);
},
{
closed = 1;
nodes = (
"2 6 LINE",
"3 6 LINE",
"3 11 LINE",
"2 11 LINE"
);
},
{
closed = 1;
nodes = (
"1 6 LINE",
"4 6 LINE",
"4 7 LINE",
"1 7 LINE"
);
},
{
closed = 1;
nodes = (
"1 11 LINE",
"2 11 LINE",
"2 12 LINE",
"1 12 LINE"
);
},
{
closed = 1;
nodes = (
"7 5 LINE",
"8 5 LINE",
"8 6 LINE",
"7 6 LINE"
);
},
{
closed = 1;
nodes = (
"8 4 LINE",
"9 4 LINE",
"9 5 LINE",
"8 5 LINE"
);
},
{
closed = 1;
nodes = (
"9 3 LINE",
"10 3 LINE",
"10 4 LINE",
"9 4 LINE"
);
},
{
closed = 1;
nodes = (
"6 4 LINE",
"7 4 LINE",
"7 5 LINE",
"6 5 LINE"
);
},
{
closed = 1;
nodes = (
"10 0 LINE",
"10 1 LINE",
"7 1 LINE",
"7 0 LINE"
);
},
{
closed = 1;
nodes = (
"9 2 LINE",
"9 3 LINE",
"7 3 LINE",
"7 2 LINE"
);
},
{
closed = 1;
nodes = (
"7 1 LINE",
"7 2 LINE",
"6 2 LINE",
"6 1 LINE"
);
}
);
width = 11;
}
);
unicode = 00BD;
},
{
glyphname = onequarter;
lastChange = "2018-09-28 18:44:57 +0000";
layers = (
{
layerId = "F9C0524F-BD24-452A-96F1-149BC18AF880";
paths = (
{
closed = 1;
nodes = (
"3 0 LINE",
"4 0 LINE",
"4 2 LINE",
"3 2 LINE"
);
},
{
closed = 1;
nodes = (
"4 2 LINE",
"5 2 LINE",
"5 5 LINE",
"4 5 LINE"
);
},
{
closed = 1;
nodes = (
"5 5 LINE",
"6 5 LINE",
"6 7 LINE",
"5 7 LINE"
);
},
{
closed = 1;
nodes = (
"6 7 LINE",
"7 7 LINE",
"7 10 LINE",
"6 10 LINE"
);
},
{
closed = 1;
nodes = (
"7 10 LINE",
"8 10 LINE",
"8 12 LINE",
"7 12 LINE"
);
},
{
closed = 1;
nodes = (
"2 6 LINE",
"3 6 LINE",
"3 11 LINE",
"2 11 LINE"
);
},
{
closed = 1;
nodes = (
"1 6 LINE",
"4 6 LINE",
"4 7 LINE",
"1 7 LINE"
);
},
{
closed = 1;
nodes = (
"1 11 LINE",
"2 11 LINE",
"2 12 LINE",
"1 12 LINE"
);
},
{
closed = 1;
nodes = (
"9 2 LINE",
"9 1 LINE",
"8 1 LINE",
"8 0 LINE",
"11 0 LINE",
"11 1 LINE",
"10 1 LINE",
"10 6 LINE",
"9 6 LINE",
"9 3 LINE",
"8 3 LINE",
"8 6 LINE",
"7 6 LINE",
"7 2 LINE"
);
}
);
width = 11;
}
);
unicode = 00BC;
},
{
glyphname = threequarters;
lastChange = "2018-09-28 18:47:03 +0000";
layers = (
{
layerId = "F9C0524F-BD24-452A-96F1-149BC18AF880";
paths = (
{
closed = 1;
nodes = (
"3 0 LINE",
"4 0 LINE",
"4 2 LINE",
"3 2 LINE"
);
},
{
closed = 1;
nodes = (
"4 2 LINE",
"5 2 LINE",
"5 5 LINE",
"4 5 LINE"
);
},
{
closed = 1;
nodes = (
"5 5 LINE",
"6 5 LINE",
"6 7 LINE",
"5 7 LINE"
);
},
{
closed = 1;
nodes = (
"6 7 LINE",
"7 7 LINE",
"7 10 LINE",
"6 10 LINE"
);
},
{
closed = 1;
nodes = (
"7 10 LINE",
"8 10 LINE",
"8 12 LINE",
"7 12 LINE"
);
},
{
closed = 1;
nodes = (
"9 2 LINE",
"9 1 LINE",
"8 1 LINE",
"8 0 LINE",
"11 0 LINE",
"11 1 LINE",
"10 1 LINE",
"10 6 LINE",
"9 6 LINE",
"9 3 LINE",
"8 3 LINE",
"8 6 LINE",
"7 6 LINE",
"7 2 LINE"
);
},
{
closed = 1;
nodes = (
"1 10 LINE",
"3 10 LINE",
"3 11 LINE",
"1 11 LINE"
);
},
{
closed = 1;
nodes = (
"3 7 LINE",
"4 7 LINE",
"4 10 LINE",
"3 10 LINE"
);
},
{
closed = 1;
nodes = (
"3 8 LINE",
"3 9 LINE",
"1 9 LINE",
"1 8 LINE"
);
},
{
closed = 1;
nodes = (
"3 6 LINE",
"3 7 LINE",
"1 7 LINE",
"1 6 LINE"
);
}
);
width = 12;
}
);
unicode = 00BE;
},
{
glyphname = period;
lastChange = "2018-09-28 00:50:03 +0000";
layers = (
{
layerId = "F9C0524F-BD24-452A-96F1-149BC18AF880";
paths = (
{
closed = 1;
nodes = (
"1 0 LINE",
"2 0 LINE",
"2 1 LINE",
"1 1 LINE"
);
}
);
width = 3;
}
);
unicode = 002E;
},
{
glyphname = comma;
lastChange = "2018-09-28 00:59:01 +0000";
layers = (
{
layerId = "F9C0524F-BD24-452A-96F1-149BC18AF880";
paths = (
{
closed = 1;
nodes = (
"1 0 LINE",
"2 0 LINE",
"2 2 LINE",
"1 2 LINE"
);
},
{
closed = 1;
nodes = (
"0 -1 LINE",
"1 -1 LINE",
"1 0 LINE",
"0 0 LINE"
);
}
);
width = 3;
}
);
unicode = 002C;
},
{
glyphname = colon;
lastChange = "2018-09-28 00:50:36 +0000";
layers = (
{
layerId = "F9C0524F-BD24-452A-96F1-149BC18AF880";
paths = (
{
closed = 1;
nodes = (
"1 1 LINE",
"2 1 LINE",
"2 2 LINE",
"1 2 LINE"
);
},
{
closed = 1;
nodes = (
"1 6 LINE",
"2 6 LINE",
"2 7 LINE",
"1 7 LINE"
);
}
);
width = 3;
}
);
unicode = 003A;
},
{
glyphname = semicolon;
lastChange = "2018-09-28 00:51:12 +0000";
layers = (
{
layerId = "F9C0524F-BD24-452A-96F1-149BC18AF880";
paths = (
{
closed = 1;
nodes = (
"1 0 LINE",
"2 0 LINE",
"2 2 LINE",
"1 2 LINE"
);
},
{
closed = 1;
nodes = (
"1 6 LINE",
"2 6 LINE",
"2 7 LINE",
"1 7 LINE"
);
},
{
closed = 1;
nodes = (
"0 -1 LINE",
"1 -1 LINE",
"1 0 LINE",
"0 0 LINE"
);
}
);
width = 3;
}
);
unicode = 003B;
},
{
glyphname = exclam;
lastChange = "2018-09-28 14:54:49 +0000";
layers = (
{
layerId = "F9C0524F-BD24-452A-96F1-149BC18AF880";
paths = (
{
closed = 1;
nodes = (
"1 0 LINE",
"2 0 LINE",
"2 2 LINE",
"1 2 LINE"
);
},
{
closed = 1;
nodes = (
"1 3 LINE",
"2 3 LINE",
"2 12 LINE",
"1 12 LINE"
);
}
);
width = 3;
}
);
unicode = 0021;
},
{
glyphname = exclamdown;
lastChange = "2018-09-28 19:51:09 +0000";
layers = (
{
layerId = "F9C0524F-BD24-452A-96F1-149BC18AF880";
paths = (
{
closed = 1;
nodes = (
"2 6 LINE",
"2 8 LINE",
"1 8 LINE",
"1 6 LINE"
);
},
{
closed = 1;
nodes = (
"2 -4 LINE",
"2 5 LINE",
"1 5 LINE",
"1 -4 LINE"
);
}
);
width = 3;
}
);
unicode = 00A1;
},
{
glyphname = question;
lastChange = "2018-09-28 18:55:09 +0000";
layers = (
{
layerId = "F9C0524F-BD24-452A-96F1-149BC18AF880";
paths = (
{
closed = 1;
nodes = (
"2 9 LINE",
"6 9 LINE",
"6 10 LINE",
"2 10 LINE"
);
},
{
closed = 1;
nodes = (
"6 8 LINE",
"7 8 LINE",
"7 9 LINE",
"6 9 LINE"
);
},
{
closed = 1;
nodes = (
"7 6 LINE",
"8 6 LINE",
"8 8 LINE",
"7 8 LINE"
);
},
{
closed = 1;
nodes = (
"5 4 LINE",
"5 5 LINE",
"3 5 LINE",
"3 4 LINE"
);
},
{
closed = 1;
nodes = (
"1 8 LINE",
"2 8 LINE",
"2 9 LINE",
"1 9 LINE"
);
},
{
closed = 1;
nodes = (
"7 5 LINE",
"7 6 LINE",
"5 6 LINE",
"5 5 LINE"
);
},
{
closed = 1;
nodes = (
"4 3 LINE",
"4 4 LINE",
"3 4 LINE",
"3 3 LINE"
);
},
{
closed = 1;
nodes = (
"3 0 LINE",
"4 0 LINE",
"4 2 LINE",
"3 2 LINE"
);
}
);
width = 9;
}
);
unicode = 003F;
},
{
glyphname = questiondown;
lastChange = "2018-09-28 19:50:30 +0000";
layers = (
{
layerId = "F9C0524F-BD24-452A-96F1-149BC18AF880";
paths = (
{
closed = 1;
nodes = (
"7 -1 LINE",
"3 -1 LINE",
"3 -2 LINE",
"7 -2 LINE"
);
},
{
closed = 1;
nodes = (
"3 0 LINE",
"2 0 LINE",
"2 -1 LINE",
"3 -1 LINE"
);
},
{
closed = 1;
nodes = (
"2 2 LINE",
"1 2 LINE",
"1 0 LINE",
"2 0 LINE"
);
},
{
closed = 1;
nodes = (
"4 4 LINE",
"4 3 LINE",
"6 3 LINE",
"6 4 LINE"
);
},
{
closed = 1;
nodes = (
"8 0 LINE",
"7 0 LINE",
"7 -1 LINE",
"8 -1 LINE"
);
},
{
closed = 1;
nodes = (
"2 3 LINE",
"2 2 LINE",
"4 2 LINE",
"4 3 LINE"
);
},
{
closed = 1;
nodes = (
"5 5 LINE",
"5 4 LINE",
"6 4 LINE",
"6 5 LINE"
);
},
{
closed = 1;
nodes = (
"6 8 LINE",
"5 8 LINE",
"5 6 LINE",
"6 6 LINE"
);
}
);
width = 9;
}
);
unicode = 00BF;
},
{
glyphname = periodcentered;
lastChange = "2018-09-28 15:00:29 +0000";
layers = (
{
layerId = "F9C0524F-BD24-452A-96F1-149BC18AF880";
paths = (
{
closed = 1;
nodes = (
"1 4 LINE",
"2 4 LINE",
"2 5 LINE",
"1 5 LINE"
);
}
);
width = 3;
}
);
unicode = 00B7;
},
{
glyphname = bullet;
lastChange = "2018-09-28 00:56:53 +0000";
layers = (
{
layerId = "F9C0524F-BD24-452A-96F1-149BC18AF880";
paths = (
{
closed = 1;
nodes = (
"2 4 LINE",
"2 3 LINE",
"3 3 LINE",
"3 2 LINE",
"4 2 LINE",
"4 3 LINE",
"5 3 LINE",
"5 4 LINE",
"6 4 LINE",
"6 5 LINE",
"5 5 LINE",
"5 6 LINE",
"4 6 LINE",
"4 7 LINE",
"3 7 LINE",
"3 6 LINE",
"2 6 LINE",
"2 5 LINE",
"1 5 LINE",
"1 4 LINE"
);
}
);
width = 7;
}
);
unicode = 2022;
},
{
glyphname = asterisk;
lastChange = "2018-09-28 01:49:42 +0000";
layers = (
{
layerId = "F9C0524F-BD24-452A-96F1-149BC18AF880";
paths = (
{
closed = 1;
nodes = (
"4 10 LINE",
"4 9 LINE",
"5 9 LINE",
"5 10 LINE"
);
},
{
closed = 1;
nodes = (
"5 9 LINE",
"5 8 LINE",
"6 8 LINE",
"6 9 LINE"
);
},
{
closed = 1;
nodes = (
"5 11 LINE",
"5 10 LINE",
"6 10 LINE",
"6 11 LINE"
);
},
{
closed = 1;
nodes = (
"3 12 LINE",
"3 10 LINE",
"4 10 LINE",
"4 12 LINE"
);
},
{
closed = 1;
nodes = (
"3 9 LINE",
"3 7 LINE",
"4 7 LINE",
"4 9 LINE"
);
},
{
closed = 1;
nodes = (
"1 9 LINE",
"1 8 LINE",
"2 8 LINE",
"2 9 LINE"
);
},
{
closed = 1;
nodes = (
"1 11 LINE",
"1 10 LINE",
"2 10 LINE",
"2 11 LINE"
);
},
{
closed = 1;
nodes = (
"2 10 LINE",
"2 9 LINE",
"3 9 LINE",
"3 10 LINE"
);
}
);
width = 7;
}
);
unicode = 002A;
},
{
glyphname = numbersign;
lastChange = "2018-09-28 14:53:28 +0000";
layers = (
{
layerId = "F9C0524F-BD24-452A-96F1-149BC18AF880";
paths = (
{
closed = 1;
nodes = (
"2 9 LINE",
"2 8 LINE",
"4 8 LINE",
"4 9 LINE"
);
},
{
closed = 1;
nodes = (
"4 8 LINE",
"4 7 LINE",
"6 7 LINE",
"6 8 LINE"
);
},
{
closed = 1;
nodes = (
"6 7 LINE",
"6 6 LINE",
"8 6 LINE",
"8 7 LINE"
);
},
{
closed = 1;
nodes = (
"1 5 LINE",
"1 4 LINE",
"3 4 LINE",
"3 5 LINE"
);
},
{
closed = 1;
nodes = (
"3 4 LINE",
"3 3 LINE",
"5 3 LINE",
"5 4 LINE"
);
},
{
closed = 1;
nodes = (
"5 3 LINE",
"5 2 LINE",
"7 2 LINE",
"7 3 LINE"
);
},
{
closed = 1;
nodes = (
"5 6 LINE",
"5 4 LINE",
"6 4 LINE",
"6 6 LINE"
);
},
{
closed = 1;
nodes = (
"3 7 LINE",
"3 5 LINE",
"4 5 LINE",
"4 7 LINE"
);
},
{
closed = 1;
nodes = (
"2 3 LINE",
"2 2 LINE",
"3 2 LINE",
"3 3 LINE"
);
},
{
closed = 1;
nodes = (
"4 2 LINE",
"4 1 LINE",
"5 1 LINE",
"5 2 LINE"
);
},
{
closed = 1;
nodes = (
"6 9 LINE",
"6 8 LINE",
"7 8 LINE",
"7 9 LINE"
);
},
{
closed = 1;
nodes = (
"4 10 LINE",
"4 9 LINE",
"5 9 LINE",
"5 10 LINE"
);
}
);
width = 9;
}
);
unicode = 0023;
},
{
glyphname = slash;
lastChange = "2018-09-28 14:51:27 +0000";
layers = (
{
layerId = "F9C0524F-BD24-452A-96F1-149BC18AF880";
paths = (
{
closed = 1;
nodes = (
"0 0 LINE",
"1 0 LINE",
"1 2 LINE",
"0 2 LINE"
);
},
{
closed = 1;
nodes = (
"1 2 LINE",
"2 2 LINE",
"2 5 LINE",
"1 5 LINE"
);
},
{
closed = 1;
nodes = (
"2 5 LINE",
"3 5 LINE",
"3 7 LINE",
"2 7 LINE"
);
},
{
closed = 1;
nodes = (
"3 7 LINE",
"4 7 LINE",
"4 10 LINE",
"3 10 LINE"
);
},
{
closed = 1;
nodes = (
"4 10 LINE",
"5 10 LINE",
"5 12 LINE",
"4 12 LINE"
);
}
);
width = 5;
}
);
unicode = 002F;
},
{
glyphname = backslash;
lastChange = "2018-09-28 18:25:42 +0000";
layers = (
{
layerId = "F9C0524F-BD24-452A-96F1-149BC18AF880";
paths = (
{
closed = 1;
nodes = (
"4 2 LINE",
"4 0 LINE",
"5 0 LINE",
"5 2 LINE"
);
},
{
closed = 1;
nodes = (
"3 5 LINE",
"3 2 LINE",
"4 2 LINE",
"4 5 LINE"
);
},
{
closed = 1;
nodes = (
"2 7 LINE",
"2 5 LINE",
"3 5 LINE",
"3 7 LINE"
);
},
{
closed = 1;
nodes = (
"1 10 LINE",
"1 7 LINE",
"2 7 LINE",
"2 10 LINE"
);
},
{
closed = 1;
nodes = (
"0 12 LINE",
"0 10 LINE",
"1 10 LINE",
"1 12 LINE"
);
}
);
width = 5;
}
);
unicode = 005C;
},
{
glyphname = parenleft;
lastChange = "2018-09-28 14:57:04 +0000";
layers = (
{
layerId = "F9C0524F-BD24-452A-96F1-149BC18AF880";
paths = (
{
closed = 1;
nodes = (
"1 0 LINE",
"2 0 LINE",
"2 9 LINE",
"1 9 LINE"
);
},
{
closed = 1;
nodes = (
"2 -2 LINE",
"3 -2 LINE",
"3 0 LINE",
"2 0 LINE"
);
},
{
closed = 1;
nodes = (
"3 -3 LINE",
"4 -3 LINE",
"4 -2 LINE",
"3 -2 LINE"
);
},
{
closed = 1;
nodes = (
"3 9 LINE",
"3 11 LINE",
"2 11 LINE",
"2 9 LINE"
);
},
{
closed = 1;
nodes = (
"4 11 LINE",
"4 12 LINE",
"3 12 LINE",
"3 11 LINE"
);
}
);
width = 5;
}
);
unicode = 0028;
},
{
glyphname = parenright;
lastChange = "2018-09-28 14:57:15 +0000";
layers = (
{
layerId = "F9C0524F-BD24-452A-96F1-149BC18AF880";
paths = (
{
closed = 1;
nodes = (
"3 9 LINE",
"3 0 LINE",
"4 0 LINE",
"4 9 LINE"
);
},
{
closed = 1;
nodes = (
"2 0 LINE",
"2 -2 LINE",
"3 -2 LINE",
"3 0 LINE"
);
},
{
closed = 1;
nodes = (
"1 -2 LINE",
"1 -3 LINE",
"2 -3 LINE",
"2 -2 LINE"
);
},
{
closed = 1;
nodes = (
"3 11 LINE",
"2 11 LINE",
"2 9 LINE",
"3 9 LINE"
);
},
{
closed = 1;
nodes = (
"2 12 LINE",
"1 12 LINE",
"1 11 LINE",
"2 11 LINE"
);
}
);
width = 5;
}
);
unicode = 0029;
},
{
glyphname = braceleft;
lastChange = "2018-09-28 18:58:09 +0000";
layers = (
{
layerId = "F9C0524F-BD24-452A-96F1-149BC18AF880";
paths = (
{
closed = 1;
nodes = (
"4 7 LINE",
"5 7 LINE",
"5 9 LINE",
"4 9 LINE"
);
},
{
closed = 1;
nodes = (
"5 -2 LINE",
"6 -2 LINE",
"6 0 LINE",
"5 0 LINE"
);
},
{
closed = 1;
nodes = (
"6 -3 LINE",
"7 -3 LINE",
"7 -2 LINE",
"6 -2 LINE"
);
},
{
closed = 1;
nodes = (
"6 9 LINE",
"6 11 LINE",
"5 11 LINE",
"5 9 LINE"
);
},
{
closed = 1;
nodes = (
"7 11 LINE",
"7 12 LINE",
"6 12 LINE",
"6 11 LINE"
);
},
{
closed = 1;
nodes = (
"3 7 LINE",
"3 5 LINE",
"4 5 LINE",
"4 7 LINE"
);
},
{
closed = 1;
nodes = (
"1 5 LINE",
"1 4 LINE",
"3 4 LINE",
"3 5 LINE"
);
},
{
closed = 1;
nodes = (
"3 4 LINE",
"3 2 LINE",
"4 2 LINE",
"4 4 LINE"
);
},
{
closed = 1;
nodes = (
"4 0 LINE",
"5 0 LINE",
"5 2 LINE",
"4 2 LINE"
);
}
);
width = 8;
}
);
unicode = 007B;
},
{
glyphname = braceright;
lastChange = "2018-09-28 18:57:49 +0000";
layers = (
{
layerId = "F9C0524F-BD24-452A-96F1-149BC18AF880";
paths = (
{
closed = 1;
nodes = (
"3 9 LINE",
"3 7 LINE",
"4 7 LINE",
"4 9 LINE"
);
},
{
closed = 1;
nodes = (
"2 0 LINE",
"2 -2 LINE",
"3 -2 LINE",
"3 0 LINE"
);
},
{
closed = 1;
nodes = (
"1 -2 LINE",
"1 -3 LINE",
"2 -3 LINE",
"2 -2 LINE"
);
},
{
closed = 1;
nodes = (
"3 11 LINE",
"2 11 LINE",
"2 9 LINE",
"3 9 LINE"
);
},
{
closed = 1;
nodes = (
"2 12 LINE",
"1 12 LINE",
"1 11 LINE",
"2 11 LINE"
);
},
{
closed = 1;
nodes = (
"4 5 LINE",
"5 5 LINE",
"5 7 LINE",
"4 7 LINE"
);
},
{
closed = 1;
nodes = (
"5 4 LINE",
"7 4 LINE",
"7 5 LINE",
"5 5 LINE"
);
},
{
closed = 1;
nodes = (
"4 2 LINE",
"5 2 LINE",
"5 4 LINE",
"4 4 LINE"
);
},
{
closed = 1;
nodes = (
"3 2 LINE",
"3 0 LINE",
"4 0 LINE",
"4 2 LINE"
);
}
);
width = 8;
}
);
unicode = 007D;
},
{
glyphname = bracketleft;
lastChange = "2018-09-28 18:57:00 +0000";
layers = (
{
layerId = "F9C0524F-BD24-452A-96F1-149BC18AF880";
paths = (
{
closed = 1;
nodes = (
"3 -3 LINE",
"2 -3 LINE",
"2 11 LINE",
"3 11 LINE",
"3 12 LINE",
"1 12 LINE",
"1 -4 LINE",
"3 -4 LINE"
);
}
);
width = 4;
}
);
unicode = 005B;
},
{
glyphname = bracketright;
lastChange = "2018-09-28 18:56:43 +0000";
layers = (
{
layerId = "F9C0524F-BD24-452A-96F1-149BC18AF880";
paths = (
{
closed = 1;
nodes = (
"3 -4 LINE",
"3 12 LINE",
"1 12 LINE",
"1 11 LINE",
"2 11 LINE",
"2 -3 LINE",
"1 -3 LINE",
"1 -4 LINE"
);
}
);
width = 4;
}
);
unicode = 005D;
},
{
glyphname = hyphen;
lastChange = "2018-09-28 00:51:45 +0000";
layers = (
{
layerId = "F9C0524F-BD24-452A-96F1-149BC18AF880";
paths = (
{
closed = 1;
nodes = (
"1 4 LINE",
"5 4 LINE",
"5 5 LINE",
"1 5 LINE"
);
}
);
width = 6;
}
);
unicode = 002D;
},
{
glyphname = endash;
lastChange = "2018-09-28 19:47:06 +0000";
layers = (
{
layerId = "F9C0524F-BD24-452A-96F1-149BC18AF880";
paths = (
{
closed = 1;
nodes = (
"1 4 LINE",
"7 4 LINE",
"7 5 LINE",
"1 5 LINE"
);
}
);
width = 8;
}
);
unicode = 2013;
},
{
glyphname = emdash;
lastChange = "2018-09-28 19:47:29 +0000";
layers = (
{
layerId = "F9C0524F-BD24-452A-96F1-149BC18AF880";
paths = (
{
closed = 1;
nodes = (
"1 4 LINE",
"9 4 LINE",
"9 5 LINE",
"1 5 LINE"
);
}
);
width = 10;
}
);
unicode = 2014;
},
{
glyphname = underscore;
lastChange = "2018-09-28 00:52:37 +0000";
layers = (
{
layerId = "F9C0524F-BD24-452A-96F1-149BC18AF880";
paths = (
{
closed = 1;
nodes = (
"1 0 LINE",
"6 0 LINE",
"6 1 LINE",
"1 1 LINE"
);
}
);
width = 7;
}
);
unicode = 005F;
},
{
glyphname = quotesinglbase;
lastChange = "2018-09-28 18:37:07 +0000";
layers = (
{
layerId = "F9C0524F-BD24-452A-96F1-149BC18AF880";
paths = (
{
closed = 1;
nodes = (
"1 8 LINE",
"2 8 LINE",
"2 10 LINE",
"1 10 LINE"
);
},
{
closed = 1;
nodes = (
"0 7 LINE",
"1 7 LINE",
"1 8 LINE",
"0 8 LINE"
);
}
);
width = 2;
}
);
unicode = 201A;
},
{
glyphname = quotedblleft;
lastChange = "2018-09-28 19:37:17 +0000";
layers = (
{
layerId = "F9C0524F-BD24-452A-96F1-149BC18AF880";
paths = (
{
closed = 1;
nodes = (
"3 9 LINE",
"2 9 LINE",
"2 7 LINE",
"3 7 LINE"
);
},
{
closed = 1;
nodes = (
"4 10 LINE",
"3 10 LINE",
"3 9 LINE",
"4 9 LINE"
);
},
{
closed = 1;
nodes = (
"1 9 LINE",
"0 9 LINE",
"0 7 LINE",
"1 7 LINE"
);
},
{
closed = 1;
nodes = (
"2 10 LINE",
"1 10 LINE",
"1 9 LINE",
"2 9 LINE"
);
}
);
width = 4;
}
);
unicode = 201C;
},
{
glyphname = quotedblright;
lastChange = "2018-09-28 19:37:04 +0000";
layers = (
{
layerId = "F9C0524F-BD24-452A-96F1-149BC18AF880";
paths = (
{
closed = 1;
nodes = (
"1 8 LINE",
"2 8 LINE",
"2 10 LINE",
"1 10 LINE"
);
},
{
closed = 1;
nodes = (
"0 7 LINE",
"1 7 LINE",
"1 8 LINE",
"0 8 LINE"
);
},
{
closed = 1;
nodes = (
"3 8 LINE",
"4 8 LINE",
"4 10 LINE",
"3 10 LINE"
);
},
{
closed = 1;
nodes = (
"2 7 LINE",
"3 7 LINE",
"3 8 LINE",
"2 8 LINE"
);
}
);
width = 4;
}
);
unicode = 201D;
},
{
glyphname = quoteleft;
lastChange = "2018-09-28 19:36:40 +0000";
layers = (
{
layerId = "F9C0524F-BD24-452A-96F1-149BC18AF880";
paths = (
{
closed = 1;
nodes = (
"1 9 LINE",
"0 9 LINE",
"0 7 LINE",
"1 7 LINE"
);
},
{
closed = 1;
nodes = (
"2 10 LINE",
"1 10 LINE",
"1 9 LINE",
"2 9 LINE"
);
}
);
width = 2;
}
);
unicode = 2018;
},
{
glyphname = quoteright;
lastChange = "2018-09-28 19:36:17 +0000";
layers = (
{
layerId = "F9C0524F-BD24-452A-96F1-149BC18AF880";
paths = (
{
closed = 1;
nodes = (
"1 8 LINE",
"2 8 LINE",
"2 10 LINE",
"1 10 LINE"
);
},
{
closed = 1;
nodes = (
"0 7 LINE",
"1 7 LINE",
"1 8 LINE",
"0 8 LINE"
);
}
);
width = 2;
}
);
unicode = 2019;
},
{
glyphname = guillemetleft;
lastChange = "2018-09-28 19:38:33 +0000";
layers = (
{
layerId = "F9C0524F-BD24-452A-96F1-149BC18AF880";
paths = (
{
closed = 1;
nodes = (
"1 4 LINE",
"2 4 LINE",
"2 5 LINE",
"1 5 LINE"
);
},
{
closed = 1;
nodes = (
"2 5 LINE",
"3 5 LINE",
"3 6 LINE",
"2 6 LINE"
);
},
{
closed = 1;
nodes = (
"3 6 LINE",
"4 6 LINE",
"4 7 LINE",
"3 7 LINE"
);
},
{
closed = 1;
nodes = (
"2 3 LINE",
"3 3 LINE",
"3 4 LINE",
"2 4 LINE"
);
},
{
closed = 1;
nodes = (
"3 2 LINE",
"4 2 LINE",
"4 3 LINE",
"3 3 LINE"
);
},
{
closed = 1;
nodes = (
"4 4 LINE",
"5 4 LINE",
"5 5 LINE",
"4 5 LINE"
);
},
{
closed = 1;
nodes = (
"5 5 LINE",
"6 5 LINE",
"6 6 LINE",
"5 6 LINE"
);
},
{
closed = 1;
nodes = (
"6 6 LINE",
"7 6 LINE",
"7 7 LINE",
"6 7 LINE"
);
},
{
closed = 1;
nodes = (
"5 3 LINE",
"6 3 LINE",
"6 4 LINE",
"5 4 LINE"
);
},
{
closed = 1;
nodes = (
"6 2 LINE",
"7 2 LINE",
"7 3 LINE",
"6 3 LINE"
);
}
);
width = 8;
}
);
unicode = 00AB;
},
{
glyphname = guillemetright;
lastChange = "2018-09-28 19:38:24 +0000";
layers = (
{
layerId = "F9C0524F-BD24-452A-96F1-149BC18AF880";
paths = (
{
closed = 1;
nodes = (
"6 5 LINE",
"6 4 LINE",
"7 4 LINE",
"7 5 LINE"
);
},
{
closed = 1;
nodes = (
"5 6 LINE",
"5 5 LINE",
"6 5 LINE",
"6 6 LINE"
);
},
{
closed = 1;
nodes = (
"4 7 LINE",
"4 6 LINE",
"5 6 LINE",
"5 7 LINE"
);
},
{
closed = 1;
nodes = (
"5 4 LINE",
"5 3 LINE",
"6 3 LINE",
"6 4 LINE"
);
},
{
closed = 1;
nodes = (
"4 3 LINE",
"4 2 LINE",
"5 2 LINE",
"5 3 LINE"
);
},
{
closed = 1;
nodes = (
"3 5 LINE",
"3 4 LINE",
"4 4 LINE",
"4 5 LINE"
);
},
{
closed = 1;
nodes = (
"2 6 LINE",
"2 5 LINE",
"3 5 LINE",
"3 6 LINE"
);
},
{
closed = 1;
nodes = (
"1 7 LINE",
"1 6 LINE",
"2 6 LINE",
"2 7 LINE"
);
},
{
closed = 1;
nodes = (
"2 4 LINE",
"2 3 LINE",
"3 3 LINE",
"3 4 LINE"
);
},
{
closed = 1;
nodes = (
"1 3 LINE",
"1 2 LINE",
"2 2 LINE",
"2 3 LINE"
);
}
);
width = 8;
}
);
unicode = 00BB;
},
{
glyphname = guilsinglleft;
lastChange = "2018-09-28 19:38:56 +0000";
layers = (
{
layerId = "F9C0524F-BD24-452A-96F1-149BC18AF880";
paths = (
{
closed = 1;
nodes = (
"1 4 LINE",
"2 4 LINE",
"2 5 LINE",
"1 5 LINE"
);
},
{
closed = 1;
nodes = (
"2 5 LINE",
"3 5 LINE",
"3 6 LINE",
"2 6 LINE"
);
},
{
closed = 1;
nodes = (
"3 6 LINE",
"4 6 LINE",
"4 7 LINE",
"3 7 LINE"
);
},
{
closed = 1;
nodes = (
"2 3 LINE",
"3 3 LINE",
"3 4 LINE",
"2 4 LINE"
);
},
{
closed = 1;
nodes = (
"3 2 LINE",
"4 2 LINE",
"4 3 LINE",
"3 3 LINE"
);
}
);
width = 5;
}
);
unicode = 2039;
},
{
glyphname = guilsinglright;
lastChange = "2018-09-28 19:38:58 +0000";
layers = (
{
layerId = "F9C0524F-BD24-452A-96F1-149BC18AF880";
paths = (
{
closed = 1;
nodes = (
"3 5 LINE",
"3 4 LINE",
"4 4 LINE",
"4 5 LINE"
);
},
{
closed = 1;
nodes = (
"2 6 LINE",
"2 5 LINE",
"3 5 LINE",
"3 6 LINE"
);
},
{
closed = 1;
nodes = (
"1 7 LINE",
"1 6 LINE",
"2 6 LINE",
"2 7 LINE"
);
},
{
closed = 1;
nodes = (
"2 4 LINE",
"2 3 LINE",
"3 3 LINE",
"3 4 LINE"
);
},
{
closed = 1;
nodes = (
"1 3 LINE",
"1 2 LINE",
"2 2 LINE",
"2 3 LINE"
);
}
);
width = 5;
}
);
unicode = 203A;
},
{
glyphname = quotedbl;
lastChange = "2018-09-28 15:10:25 +0000";
layers = (
{
layerId = "F9C0524F-BD24-452A-96F1-149BC18AF880";
paths = (
{
closed = 1;
nodes = (
"1 7 LINE",
"2 7 LINE",
"2 11 LINE",
"1 11 LINE"
);
},
{
closed = 1;
nodes = (
"3 7 LINE",
"4 7 LINE",
"4 11 LINE",
"3 11 LINE"
);
}
);
width = 5;
}
);
unicode = 0022;
},
{
glyphname = quotesingle;
lastChange = "2018-09-28 01:59:45 +0000";
layers = (
{
layerId = "F9C0524F-BD24-452A-96F1-149BC18AF880";
paths = (
{
closed = 1;
nodes = (
"1 9 LINE",
"2 9 LINE",
"2 12 LINE",
"1 12 LINE"
);
}
);
width = 3;
}
);
unicode = 0027;
},
{
glyphname = cent;
lastChange = "2018-09-28 19:04:01 +0000";
layers = (
{
layerId = "F9C0524F-BD24-452A-96F1-149BC18AF880";
paths = (
{
closed = 1;
nodes = (
"2 2 LINE",
"2 6 LINE",
"1 6 LINE",
"1 2 LINE"
);
},
{
closed = 1;
nodes = (
"3 1 LINE",
"3 2 LINE",
"2 2 LINE",
"2 1 LINE"
);
},
{
closed = 1;
nodes = (
"3 6 LINE",
"3 7 LINE",
"2 7 LINE",
"2 6 LINE"
);
},
{
closed = 1;
nodes = (
"4 -2 LINE",
"4 0 LINE",
"5 0 LINE",
"5 1 LINE",
"3 1 LINE",
"3 -2 LINE"
);
},
{
closed = 1;
nodes = (
"4 2 LINE",
"4 6 LINE",
"3 6 LINE",
"3 2 LINE"
);
},
{
closed = 1;
nodes = (
"5 7 LINE",
"5 8 LINE",
"4 8 LINE",
"4 11 LINE",
"3 11 LINE",
"3 7 LINE"
);
},
{
closed = 1;
nodes = (
"6 1 LINE",
"6 2 LINE",
"5 2 LINE",
"5 1 LINE"
);
},
{
closed = 1;
nodes = (
"6 4 LINE",
"6 7 LINE",
"5 7 LINE",
"5 4 LINE"
);
}
);
width = 7;
}
);
unicode = 00A2;
},
{
glyphname = currency;
lastChange = "2020-10-24 16:27:18 +0000";
layers = (
{
layerId = "F9C0524F-BD24-452A-96F1-149BC18AF880";
paths = (
{
closed = 1;
nodes = (
"6 9 LINE",
"6 10 LINE",
"4 10 LINE",
"4 9 LINE"
);
},
{
closed = 1;
nodes = (
"2 3 LINE",
"2 4 LINE",
"1 4 LINE",
"1 3 LINE"
);
},
{
closed = 1;
nodes = (
"3 4 LINE",
"3 5 LINE",
"2 5 LINE",
"2 4 LINE"
);
},
{
closed = 1;
nodes = (
"3 6 LINE",
"3 8 LINE",
"2 8 LINE",
"2 6 LINE"
);
},
{
closed = 1;
nodes = (
"6 4 LINE",
"6 5 LINE",
"4 5 LINE",
"4 4 LINE"
);
},
{
closed = 1;
nodes = (
"4 5 LINE",
"4 6 LINE",
"3 6 LINE",
"3 5 LINE"
);
},
{
closed = 1;
nodes = (
"4 8 LINE",
"4 9 LINE",
"3 9 LINE",
"3 8 LINE"
);
},
{
closed = 1;
nodes = (
"7 5 LINE",
"7 6 LINE",
"6 6 LINE",
"6 5 LINE"
);
},
{
closed = 1;
nodes = (
"3 9 LINE",
"3 10 LINE",
"2 10 LINE",
"2 9 LINE"
);
},
{
closed = 1;
nodes = (
"2 10 LINE",
"2 11 LINE",
"1 11 LINE",
"1 10 LINE"
);
},
{
closed = 1;
nodes = (
"9 3 LINE",
"9 4 LINE",
"8 4 LINE",
"8 3 LINE"
);
},
{
closed = 1;
nodes = (
"8 4 LINE",
"8 5 LINE",
"7 5 LINE",
"7 4 LINE"
);
},
{
closed = 1;
nodes = (
"8 6 LINE",
"8 8 LINE",
"7 8 LINE",
"7 6 LINE"
);
},
{
closed = 1;
nodes = (
"7 8 LINE",
"7 9 LINE",
"6 9 LINE",
"6 8 LINE"
);
},
{
closed = 1;
nodes = (
"8 9 LINE",
"8 10 LINE",
"7 10 LINE",
"7 9 LINE"
);
},
{
closed = 1;
nodes = (
"9 10 LINE",
"9 11 LINE",
"8 11 LINE",
"8 10 LINE"
);
}
);
width = 10;
}
);
unicode = 00A4;
},
{
glyphname = dollar;
lastChange = "2018-09-28 00:47:37 +0000";
layers = (
{
layerId = "F9C0524F-BD24-452A-96F1-149BC18AF880";
paths = (
{
closed = 1;
nodes = (
"5 6 LINE",
"3 6 LINE",
"3 5 LINE",
"5 5 LINE"
);
},
{
closed = 1;
nodes = (
"2 9 LINE",
"1 9 LINE",
"1 7 LINE",
"2 7 LINE"
);
},
{
closed = 1;
nodes = (
"6 10 LINE",
"2 10 LINE",
"2 9 LINE",
"6 9 LINE"
);
},
{
closed = 1;
nodes = (
"2 7 LINE",
"2 6 LINE",
"3 6 LINE",
"3 7 LINE"
);
},
{
closed = 1;
nodes = (
"6 2 LINE",
"7 2 LINE",
"7 4 LINE",
"6 4 LINE"
);
},
{
closed = 1;
nodes = (
"1 1 LINE",
"6 1 LINE",
"6 2 LINE",
"1 2 LINE"
);
},
{
closed = 1;
nodes = (
"6 4 LINE",
"6 5 LINE",
"5 5 LINE",
"5 4 LINE"
);
},
{
closed = 1;
nodes = (
"6 9 LINE",
"6 8 LINE",
"7 8 LINE",
"7 9 LINE"
);
},
{
closed = 1;
nodes = (
"3 -1 LINE",
"4 -1 LINE",
"4 6 LINE",
"3 6 LINE"
);
},
{
closed = 1;
nodes = (
"4 5 LINE",
"5 5 LINE",
"5 12 LINE",
"4 12 LINE"
);
}
);
width = 8;
}
);
unicode = 0024;
},
{
glyphname = euro;
lastChange = "2018-09-28 19:02:03 +0000";
layers = (
{
layerId = "F9C0524F-BD24-452A-96F1-149BC18AF880";
paths = (
{
closed = 1;
nodes = (
"2 1 LINE",
"3 1 LINE",
"3 10 LINE",
"2 10 LINE"
);
},
{
closed = 1;
nodes = (
"3 0 LINE",
"7 0 LINE",
"7 1 LINE",
"3 1 LINE"
);
},
{
closed = 1;
nodes = (
"3 10 LINE",
"7 10 LINE",
"7 11 LINE",
"3 11 LINE"
);
},
{
closed = 1;
nodes = (
"1 7 LINE",
"6 7 LINE",
"6 8 LINE",
"1 8 LINE"
);
},
{
closed = 1;
nodes = (
"1 4 LINE",
"6 4 LINE",
"6 5 LINE",
"1 5 LINE"
);
}
);
width = 8;
}
);
unicode = 20AC;
},
{
glyphname = florin;
lastChange = "2018-09-28 00:49:37 +0000";
layers = (
{
layerId = "F9C0524F-BD24-452A-96F1-149BC18AF880";
paths = (
{
closed = 1;
nodes = (
"4 -3 LINE",
"4 11 LINE",
"3 11 LINE",
"3 -3 LINE"
);
},
{
closed = 1;
nodes = (
"6 11 LINE",
"6 12 LINE",
"4 12 LINE",
"4 11 LINE"
);
},
{
closed = 1;
nodes = (
"6 6 LINE",
"6 7 LINE",
"2 7 LINE",
"2 6 LINE"
);
},
{
closed = 1;
nodes = (
"6 10 LINE",
"7 10 LINE",
"7 11 LINE",
"6 11 LINE"
);
},
{
closed = 1;
nodes = (
"2 -3 LINE",
"2 -4 LINE",
"3 -4 LINE",
"3 -3 LINE"
);
},
{
closed = 1;
nodes = (
"2 -2 LINE",
"1 -2 LINE",
"1 -3 LINE",
"2 -3 LINE"
);
}
);
width = 8;
}
);
unicode = 0192;
},
{
glyphname = sterling;
lastChange = "2018-09-28 19:21:04 +0000";
layers = (
{
layerId = "F9C0524F-BD24-452A-96F1-149BC18AF880";
paths = (
{
closed = 1;
nodes = (
"4 11 LINE",
"7 11 LINE",
"7 12 LINE",
"4 12 LINE"
);
},
{
closed = 1;
nodes = (
"7 9 LINE",
"8 9 LINE",
"8 11 LINE",
"7 11 LINE"
);
},
{
closed = 1;
nodes = (
"3 8 LINE",
"4 8 LINE",
"4 11 LINE",
"3 11 LINE"
);
},
{
closed = 1;
nodes = (
"2 4 LINE",
"3 4 LINE",
"3 8 LINE",
"2 8 LINE"
);
},
{
closed = 1;
nodes = (
"1 1 LINE",
"2 1 LINE",
"2 4 LINE",
"1 4 LINE"
);
},
{
closed = 1;
nodes = (
"2 0 LINE",
"4 0 LINE",
"4 1 LINE",
"2 1 LINE"
);
},
{
closed = 1;
nodes = (
"4 1 LINE",
"6 1 LINE",
"6 2 LINE",
"4 2 LINE"
);
},
{
closed = 1;
nodes = (
"6 0 LINE",
"7 0 LINE",
"7 1 LINE",
"6 1 LINE"
);
},
{
closed = 1;
nodes = (
"7 1 LINE",
"8 1 LINE",
"8 3 LINE",
"7 3 LINE"
);
},
{
closed = 1;
nodes = (
"1 6 LINE",
"7 6 LINE",
"7 7 LINE",
"1 7 LINE"
);
}
);
width = 9;
}
);
unicode = 00A3;
},
{
glyphname = yen;
lastChange = "2018-09-28 19:09:33 +0000";
layers = (
{
layerId = "F9C0524F-BD24-452A-96F1-149BC18AF880";
paths = (
{
closed = 1;
nodes = (
"3 1 LINE",
"3 0 LINE",
"4 0 LINE",
"4 1 LINE",
"6 1 LINE",
"6 2 LINE",
"4 2 LINE",
"4 3 LINE",
"6 3 LINE",
"6 4 LINE",
"4 4 LINE",
"4 5 LINE",
"3 5 LINE",
"3 4 LINE",
"1 4 LINE",
"1 3 LINE",
"3 3 LINE",
"3 2 LINE",
"1 2 LINE",
"1 1 LINE"
);
},
{
closed = 1;
nodes = (
"2 8 LINE",
"2 11 LINE",
"1 11 LINE",
"1 8 LINE"
);
},
{
closed = 1;
nodes = (
"3 5 LINE",
"3 8 LINE",
"2 8 LINE",
"2 5 LINE"
);
},
{
closed = 1;
nodes = (
"5 5 LINE",
"5 8 LINE",
"4 8 LINE",
"4 5 LINE"
);
},
{
closed = 1;
nodes = (
"6 8 LINE",
"6 11 LINE",
"5 11 LINE",
"5 8 LINE"
);
}
);
width = 7;
}
);
unicode = 00A5;
},
{
glyphname = plus;
lastChange = "2018-09-28 00:59:39 +0000";
layers = (
{
layerId = "F9C0524F-BD24-452A-96F1-149BC18AF880";
paths = (
{
closed = 1;
nodes = (
"1 4 LINE",
"6 4 LINE",
"6 5 LINE",
"1 5 LINE"
);
},
{
closed = 1;
nodes = (
"3 7 LINE",
"3 2 LINE",
"4 2 LINE",
"4 7 LINE"
);
}
);
width = 7;
}
);
unicode = 002B;
},
{
glyphname = minus;
lastChange = "2018-09-28 15:13:36 +0000";
layers = (
{
layerId = "F9C0524F-BD24-452A-96F1-149BC18AF880";
paths = (
{
closed = 1;
nodes = (
"1 4 LINE",
"6 4 LINE",
"6 5 LINE",
"1 5 LINE"
);
}
);
width = 7;
}
);
unicode = 2212;
},
{
glyphname = multiply;
lastChange = "2018-09-28 15:14:57 +0000";
layers = (
{
layerId = "F9C0524F-BD24-452A-96F1-149BC18AF880";
paths = (
{
closed = 1;
nodes = (
"3 4 LINE",
"4 4 LINE",
"4 5 LINE",
"3 5 LINE"
);
},
{
closed = 1;
nodes = (
"4 5 LINE",
"5 5 LINE",
"5 6 LINE",
"4 6 LINE"
);
},
{
closed = 1;
nodes = (
"5 6 LINE",
"6 6 LINE",
"6 7 LINE",
"5 7 LINE"
);
},
{
closed = 1;
nodes = (
"1 6 LINE",
"2 6 LINE",
"2 7 LINE",
"1 7 LINE"
);
},
{
closed = 1;
nodes = (
"2 5 LINE",
"3 5 LINE",
"3 6 LINE",
"2 6 LINE"
);
},
{
closed = 1;
nodes = (
"2 3 LINE",
"3 3 LINE",
"3 4 LINE",
"2 4 LINE"
);
},
{
closed = 1;
nodes = (
"1 2 LINE",
"2 2 LINE",
"2 3 LINE",
"1 3 LINE"
);
},
{
closed = 1;
nodes = (
"4 3 LINE",
"5 3 LINE",
"5 4 LINE",
"4 4 LINE"
);
},
{
closed = 1;
nodes = (
"5 2 LINE",
"6 2 LINE",
"6 3 LINE",
"5 3 LINE"
);
}
);
width = 7;
}
);
unicode = 00D7;
},
{
glyphname = divide;
lastChange = "2018-09-28 19:03:08 +0000";
layers = (
{
layerId = "F9C0524F-BD24-452A-96F1-149BC18AF880";
paths = (
{
closed = 1;
nodes = (
"1 4 LINE",
"5 4 LINE",
"5 5 LINE",
"1 5 LINE"
);
},
{
closed = 1;
nodes = (
"3 7 LINE",
"3 6 LINE",
"4 6 LINE",
"4 7 LINE"
);
},
{
closed = 1;
nodes = (
"2 3 LINE",
"2 2 LINE",
"3 2 LINE",
"3 3 LINE"
);
}
);
width = 6;
}
);
unicode = 00F7;
},
{
glyphname = equal;
lastChange = "2018-09-28 14:55:56 +0000";
layers = (
{
layerId = "F9C0524F-BD24-452A-96F1-149BC18AF880";
paths = (
{
closed = 1;
nodes = (
"1 5 LINE",
"6 5 LINE",
"6 6 LINE",
"1 6 LINE"
);
},
{
closed = 1;
nodes = (
"1 3 LINE",
"6 3 LINE",
"6 4 LINE",
"1 4 LINE"
);
}
);
width = 7;
}
);
unicode = 003D;
},
{
glyphname = notequal;
lastChange = "2018-09-28 15:13:23 +0000";
layers = (
{
layerId = "F9C0524F-BD24-452A-96F1-149BC18AF880";
paths = (
{
closed = 1;
nodes = (
"1 5 LINE",
"6 5 LINE",
"6 6 LINE",
"1 6 LINE"
);
},
{
closed = 1;
nodes = (
"1 3 LINE",
"6 3 LINE",
"6 4 LINE",
"1 4 LINE"
);
},
{
closed = 1;
nodes = (
"4 6 LINE",
"5 6 LINE",
"5 8 LINE",
"4 8 LINE"
);
},
{
closed = 1;
nodes = (
"3 4 LINE",
"4 4 LINE",
"4 5 LINE",
"3 5 LINE"
);
},
{
closed = 1;
nodes = (
"2 1 LINE",
"3 1 LINE",
"3 3 LINE",
"2 3 LINE"
);
}
);
width = 7;
}
);
unicode = 2260;
},
{
glyphname = greater;
lastChange = "2018-09-28 16:22:15 +0000";
layers = (
{
layerId = "F9C0524F-BD24-452A-96F1-149BC18AF880";
paths = (
{
closed = 1;
nodes = (
"3 5 LINE",
"3 4 LINE",
"4 4 LINE",
"4 5 LINE"
);
},
{
closed = 1;
nodes = (
"2 6 LINE",
"2 5 LINE",
"3 5 LINE",
"3 6 LINE"
);
},
{
closed = 1;
nodes = (
"1 7 LINE",
"1 6 LINE",
"2 6 LINE",
"2 7 LINE"
);
},
{
closed = 1;
nodes = (
"2 4 LINE",
"2 3 LINE",
"3 3 LINE",
"3 4 LINE"
);
},
{
closed = 1;
nodes = (
"1 3 LINE",
"1 2 LINE",
"2 2 LINE",
"2 3 LINE"
);
}
);
width = 5;
}
);
unicode = 003E;
},
{
glyphname = less;
lastChange = "2018-09-28 16:21:46 +0000";
layers = (
{
layerId = "F9C0524F-BD24-452A-96F1-149BC18AF880";
paths = (
{
closed = 1;
nodes = (
"1 4 LINE",
"2 4 LINE",
"2 5 LINE",
"1 5 LINE"
);
},
{
closed = 1;
nodes = (
"2 5 LINE",
"3 5 LINE",
"3 6 LINE",
"2 6 LINE"
);
},
{
closed = 1;
nodes = (
"3 6 LINE",
"4 6 LINE",
"4 7 LINE",
"3 7 LINE"
);
},
{
closed = 1;
nodes = (
"2 3 LINE",
"3 3 LINE",
"3 4 LINE",
"2 4 LINE"
);
},
{
closed = 1;
nodes = (
"3 2 LINE",
"4 2 LINE",
"4 3 LINE",
"3 3 LINE"
);
}
);
width = 5;
}
);
unicode = 003C;
},
{
glyphname = greaterequal;
lastChange = "2018-09-28 19:41:19 +0000";
layers = (
{
layerId = "F9C0524F-BD24-452A-96F1-149BC18AF880";
paths = (
{
closed = 1;
nodes = (
"4 6 LINE",
"4 5 LINE",
"6 5 LINE",
"6 6 LINE"
);
},
{
closed = 1;
nodes = (
"1 7 LINE",
"1 6 LINE",
"4 6 LINE",
"4 7 LINE"
);
},
{
closed = 1;
nodes = (
"1 5 LINE",
"1 4 LINE",
"4 4 LINE",
"4 5 LINE"
);
},
{
closed = 1;
nodes = (
"1 3 LINE",
"1 2 LINE",
"6 2 LINE",
"6 3 LINE"
);
}
);
width = 7;
}
);
unicode = 2265;
},
{
glyphname = lessequal;
lastChange = "2018-09-28 19:41:00 +0000";
layers = (
{
layerId = "F9C0524F-BD24-452A-96F1-149BC18AF880";
paths = (
{
closed = 1;
nodes = (
"1 5 LINE",
"3 5 LINE",
"3 6 LINE",
"1 6 LINE"
);
},
{
closed = 1;
nodes = (
"3 6 LINE",
"6 6 LINE",
"6 7 LINE",
"3 7 LINE"
);
},
{
closed = 1;
nodes = (
"3 4 LINE",
"6 4 LINE",
"6 5 LINE",
"3 5 LINE"
);
},
{
closed = 1;
nodes = (
"1 2 LINE",
"6 2 LINE",
"6 3 LINE",
"1 3 LINE"
);
}
);
width = 7;
}
);
unicode = 2264;
},
{
glyphname = plusminus;
lastChange = "2018-09-28 19:30:56 +0000";
layers = (
{
layerId = "F9C0524F-BD24-452A-96F1-149BC18AF880";
paths = (
{
closed = 1;
nodes = (
"6 1 LINE",
"6 2 LINE",
"4 2 LINE",
"4 4 LINE",
"6 4 LINE",
"6 5 LINE",
"4 5 LINE",
"4 7 LINE",
"3 7 LINE",
"3 5 LINE",
"1 5 LINE",
"1 4 LINE",
"3 4 LINE",
"3 2 LINE",
"1 2 LINE",
"1 1 LINE"
);
}
);
width = 7;
}
);
unicode = 00B1;
},
{
glyphname = approxequal;
lastChange = "2018-09-28 19:34:26 +0000";
layers = (
{
layerId = "F9C0524F-BD24-452A-96F1-149BC18AF880";
paths = (
{
closed = 1;
nodes = (
"1 4 LINE",
"2 4 LINE",
"2 5 LINE",
"1 5 LINE"
);
},
{
closed = 1;
nodes = (
"2 5 LINE",
"3 5 LINE",
"3 6 LINE",
"2 6 LINE"
);
},
{
closed = 1;
nodes = (
"3 4 LINE",
"4 4 LINE",
"4 5 LINE",
"3 5 LINE"
);
},
{
closed = 1;
nodes = (
"4 5 LINE",
"5 5 LINE",
"5 6 LINE",
"4 6 LINE"
);
},
{
closed = 1;
nodes = (
"1 1 LINE",
"2 1 LINE",
"2 2 LINE",
"1 2 LINE"
);
},
{
closed = 1;
nodes = (
"2 2 LINE",
"3 2 LINE",
"3 3 LINE",
"2 3 LINE"
);
},
{
closed = 1;
nodes = (
"3 1 LINE",
"4 1 LINE",
"4 2 LINE",
"3 2 LINE"
);
},
{
closed = 1;
nodes = (
"4 2 LINE",
"5 2 LINE",
"5 3 LINE",
"4 3 LINE"
);
}
);
width = 6;
}
);
unicode = 2248;
},
{
glyphname = asciitilde;
lastChange = "2018-09-28 19:08:08 +0000";
layers = (
{
layerId = "F9C0524F-BD24-452A-96F1-149BC18AF880";
paths = (
{
closed = 1;
nodes = (
"0 9 LINE",
"1 9 LINE",
"1 10 LINE",
"0 10 LINE"
);
},
{
closed = 1;
nodes = (
"1 10 LINE",
"3 10 LINE",
"3 11 LINE",
"1 11 LINE"
);
},
{
closed = 1;
nodes = (
"3 9 LINE",
"4 9 LINE",
"4 10 LINE",
"3 10 LINE"
);
},
{
closed = 1;
nodes = (
"4 10 LINE",
"5 10 LINE",
"5 11 LINE",
"4 11 LINE"
);
}
);
width = 5;
}
);
unicode = 007E;
},
{
glyphname = logicalnot;
lastChange = "2018-09-28 19:53:56 +0000";
layers = (
{
layerId = "F9C0524F-BD24-452A-96F1-149BC18AF880";
paths = (
{
closed = 1;
nodes = (
"5 4 LINE",
"5 2 LINE",
"6 2 LINE",
"6 5 LINE",
"1 5 LINE",
"1 4 LINE"
);
}
);
width = 7;
}
);
unicode = 00AC;
},
{
glyphname = asciicircum;
lastChange = "2018-09-28 14:55:16 +0000";
layers = (
{
layerId = "F9C0524F-BD24-452A-96F1-149BC18AF880";
paths = (
{
closed = 1;
nodes = (
"1 9 LINE",
"2 9 LINE",
"2 10 LINE",
"1 10 LINE"
);
},
{
closed = 1;
nodes = (
"2 10 LINE",
"3 10 LINE",
"3 11 LINE",
"2 11 LINE"
);
},
{
closed = 1;
nodes = (
"3 9 LINE",
"4 9 LINE",
"4 10 LINE",
"3 10 LINE"
);
}
);
width = 5;
}
);
unicode = 005E;
},
{
glyphname = infinity;
lastChange = "2018-09-28 02:02:28 +0000";
layers = (
{
layerId = "F9C0524F-BD24-452A-96F1-149BC18AF880";
paths = (
{
closed = 1;
nodes = (
"3 7 LINE",
"3 6 LINE",
"5 6 LINE",
"5 7 LINE"
);
},
{
closed = 1;
nodes = (
"7 4 LINE",
"7 5 LINE",
"6 5 LINE",
"6 4 LINE"
);
},
{
closed = 1;
nodes = (
"5 6 LINE",
"5 5 LINE",
"6 5 LINE",
"6 6 LINE"
);
},
{
closed = 1;
nodes = (
"2 6 LINE",
"2 5 LINE",
"3 5 LINE",
"3 6 LINE"
);
},
{
closed = 1;
nodes = (
"1 5 LINE",
"1 4 LINE",
"2 4 LINE",
"2 5 LINE"
);
},
{
closed = 1;
nodes = (
"2 4 LINE",
"2 3 LINE",
"3 3 LINE",
"3 4 LINE"
);
},
{
closed = 1;
nodes = (
"3 3 LINE",
"3 2 LINE",
"5 2 LINE",
"5 3 LINE"
);
},
{
closed = 1;
nodes = (
"6 3 LINE",
"6 4 LINE",
"5 4 LINE",
"5 3 LINE"
);
},
{
closed = 1;
nodes = (
"9 6 LINE",
"9 5 LINE",
"11 5 LINE",
"11 6 LINE"
);
},
{
closed = 1;
nodes = (
"13 3 LINE",
"13 4 LINE",
"12 4 LINE",
"12 3 LINE"
);
},
{
closed = 1;
nodes = (
"11 5 LINE",
"11 4 LINE",
"12 4 LINE",
"12 5 LINE"
);
},
{
closed = 1;
nodes = (
"8 5 LINE",
"8 4 LINE",
"9 4 LINE",
"9 5 LINE"
);
},
{
closed = 1;
nodes = (
"7 4 LINE",
"7 3 LINE",
"8 3 LINE",
"8 4 LINE"
);
},
{
closed = 1;
nodes = (
"8 3 LINE",
"8 2 LINE",
"9 2 LINE",
"9 3 LINE"
);
},
{
closed = 1;
nodes = (
"9 2 LINE",
"9 1 LINE",
"11 1 LINE",
"11 2 LINE"
);
},
{
closed = 1;
nodes = (
"12 2 LINE",
"12 3 LINE",
"11 3 LINE",
"11 2 LINE"
);
}
);
width = 14;
}
);
unicode = 221E;
},
{
glyphname = integral;
lastChange = "2018-09-28 01:00:06 +0000";
layers = (
{
layerId = "F9C0524F-BD24-452A-96F1-149BC18AF880";
paths = (
{
closed = 1;
nodes = (
"4 -3 LINE",
"4 11 LINE",
"3 11 LINE",
"3 -3 LINE"
);
},
{
closed = 1;
nodes = (
"6 11 LINE",
"6 12 LINE",
"4 12 LINE",
"4 11 LINE"
);
},
{
closed = 1;
nodes = (
"6 10 LINE",
"7 10 LINE",
"7 11 LINE",
"6 11 LINE"
);
},
{
closed = 1;
nodes = (
"2 -3 LINE",
"2 -4 LINE",
"3 -4 LINE",
"3 -3 LINE"
);
},
{
closed = 1;
nodes = (
"2 -2 LINE",
"1 -2 LINE",
"1 -3 LINE",
"2 -3 LINE"
);
}
);
width = 8;
}
);
unicode = 222B;
},
{
glyphname = product;
lastChange = "2018-09-28 19:54:38 +0000";
layers = (
{
layerId = "F9C0524F-BD24-452A-96F1-149BC18AF880";
paths = (
{
closed = 1;
nodes = (
"0 11 LINE",
"6 11 LINE",
"6 12 LINE",
"0 12 LINE"
);
},
{
closed = 1;
nodes = (
"1 0 LINE",
"2 0 LINE",
"2 11 LINE",
"1 11 LINE"
);
},
{
closed = 1;
nodes = (
"4 0 LINE",
"5 0 LINE",
"5 11 LINE",
"4 11 LINE"
);
}
);
width = 6;
}
);
unicode = 220F;
},
{
glyphname = summation;
lastChange = "2018-09-28 19:59:42 +0000";
layers = (
{
layerId = "F9C0524F-BD24-452A-96F1-149BC18AF880";
paths = (
{
closed = 1;
nodes = (
"1 11 LINE",
"7 11 LINE",
"7 12 LINE",
"1 12 LINE"
);
},
{
closed = 1;
nodes = (
"1 0 LINE",
"7 0 LINE",
"7 1 LINE",
"1 1 LINE"
);
},
{
closed = 1;
nodes = (
"2 2 LINE",
"3 2 LINE",
"3 3 LINE",
"2 3 LINE"
);
},
{
closed = 1;
nodes = (
"3 3 LINE",
"4 3 LINE",
"4 4 LINE",
"3 4 LINE"
);
},
{
closed = 1;
nodes = (
"4 4 LINE",
"5 4 LINE",
"5 5 LINE",
"4 5 LINE"
);
},
{
closed = 1;
nodes = (
"1 1 LINE",
"2 1 LINE",
"2 2 LINE",
"1 2 LINE"
);
},
{
closed = 1;
nodes = (
"3 9 LINE",
"3 10 LINE",
"2 10 LINE",
"2 9 LINE"
);
},
{
closed = 1;
nodes = (
"4 8 LINE",
"4 9 LINE",
"3 9 LINE",
"3 8 LINE"
);
},
{
closed = 1;
nodes = (
"5 7 LINE",
"5 8 LINE",
"4 8 LINE",
"4 7 LINE"
);
},
{
closed = 1;
nodes = (
"2 10 LINE",
"2 11 LINE",
"1 11 LINE",
"1 10 LINE"
);
},
{
closed = 1;
nodes = (
"5 5 LINE",
"6 5 LINE",
"6 7 LINE",
"5 7 LINE"
);
}
);
width = 8;
}
);
unicode = 2211;
},
{
glyphname = radical;
lastChange = "2018-09-28 19:57:55 +0000";
layers = (
{
layerId = "F9C0524F-BD24-452A-96F1-149BC18AF880";
paths = (
{
closed = 1;
nodes = (
"2 2 LINE",
"2 3 LINE",
"1 3 LINE",
"1 2 LINE"
);
},
{
closed = 1;
nodes = (
"3 1 LINE",
"3 2 LINE",
"2 2 LINE",
"2 1 LINE"
);
},
{
closed = 1;
nodes = (
"4 0 LINE",
"4 1 LINE",
"3 1 LINE",
"3 0 LINE"
);
},
{
closed = 1;
nodes = (
"5 1 LINE",
"5 6 LINE",
"4 6 LINE",
"4 1 LINE"
);
},
{
closed = 1;
nodes = (
"6 6 LINE",
"6 8 LINE",
"5 8 LINE",
"5 6 LINE"
);
},
{
closed = 1;
nodes = (
"10 8 LINE",
"10 9 LINE",
"6 9 LINE",
"6 8 LINE"
);
}
);
width = 11;
}
);
unicode = 221A;
},
{
glyphname = micro;
lastChange = "2018-09-28 19:31:58 +0000";
layers = (
{
layerId = "F9C0524F-BD24-452A-96F1-149BC18AF880";
paths = (
{
closed = 1;
nodes = (
"2 -4 LINE",
"2 0 LINE",
"4 0 LINE",
"4 1 LINE",
"2 1 LINE",
"2 8 LINE",
"1 8 LINE",
"1 -4 LINE"
);
},
{
closed = 1;
nodes = (
"5 1 LINE",
"5 0 LINE",
"6 0 LINE",
"6 8 LINE",
"5 8 LINE",
"5 2 LINE",
"4 2 LINE",
"4 1 LINE"
);
}
);
width = 7;
}
);
unicode = 00B5;
},
{
glyphname = partialdiff;
lastChange = "2018-09-28 19:30:10 +0000";
layers = (
{
layerId = "F9C0524F-BD24-452A-96F1-149BC18AF880";
paths = (
{
closed = 1;
nodes = (
"2 10 LINE",
"2 9 LINE",
"6 9 LINE",
"6 10 LINE"
);
},
{
closed = 1;
nodes = (
"7 6 LINE",
"3 6 LINE",
"3 5 LINE",
"7 5 LINE"
);
},
{
closed = 1;
nodes = (
"6 1 LINE",
"3 1 LINE",
"3 0 LINE",
"6 0 LINE"
);
},
{
closed = 1;
nodes = (
"3 2 LINE",
"2 2 LINE",
"2 1 LINE",
"3 1 LINE"
);
},
{
closed = 1;
nodes = (
"2 4 LINE",
"1 4 LINE",
"1 2 LINE",
"2 2 LINE"
);
},
{
closed = 1;
nodes = (
"2 5 LINE",
"2 4 LINE",
"3 4 LINE",
"3 5 LINE"
);
},
{
closed = 1;
nodes = (
"7 2 LINE",
"6 2 LINE",
"6 1 LINE",
"7 1 LINE"
);
},
{
closed = 1;
nodes = (
"8 7 LINE",
"7 7 LINE",
"7 2 LINE",
"8 2 LINE"
);
},
{
closed = 1;
nodes = (
"6 9 LINE",
"6 7 LINE",
"7 7 LINE",
"7 9 LINE"
);
}
);
width = 9;
}
);
unicode = 2202;
},
{
glyphname = percent;
lastChange = "2018-09-28 01:59:09 +0000";
layers = (
{
layerId = "F9C0524F-BD24-452A-96F1-149BC18AF880";
paths = (
{
closed = 1;
nodes = (
"2 7 LINE",
"2 9 LINE",
"1 9 LINE",
"1 7 LINE"
);
},
{
closed = 1;
nodes = (
"3 6 LINE",
"3 7 LINE",
"2 7 LINE",
"2 6 LINE"
);
},
{
closed = 1;
nodes = (
"3 9 LINE",
"3 10 LINE",
"2 10 LINE",
"2 9 LINE"
);
},
{
closed = 1;
nodes = (
"4 7 LINE",
"4 9 LINE",
"3 9 LINE",
"3 7 LINE"
);
},
{
closed = 1;
nodes = (
"8 2 LINE",
"8 4 LINE",
"7 4 LINE",
"7 2 LINE"
);
},
{
closed = 1;
nodes = (
"9 1 LINE",
"9 2 LINE",
"8 2 LINE",
"8 1 LINE"
);
},
{
closed = 1;
nodes = (
"9 4 LINE",
"9 5 LINE",
"8 5 LINE",
"8 4 LINE"
);
},
{
closed = 1;
nodes = (
"10 2 LINE",
"10 4 LINE",
"9 4 LINE",
"9 2 LINE"
);
},
{
closed = 1;
nodes = (
"1 1 LINE",
"2 1 LINE",
"2 3 LINE",
"1 3 LINE"
);
},
{
closed = 1;
nodes = (
"2 3 LINE",
"4 3 LINE",
"4 4 LINE",
"2 4 LINE"
);
},
{
closed = 1;
nodes = (
"4 4 LINE",
"5 4 LINE",
"5 5 LINE",
"4 5 LINE"
);
},
{
closed = 1;
nodes = (
"7 7 LINE",
"9 7 LINE",
"9 8 LINE",
"7 8 LINE"
);
},
{
closed = 1;
nodes = (
"9 8 LINE",
"10 8 LINE",
"10 10 LINE",
"9 10 LINE"
);
},
{
closed = 1;
nodes = (
"6 6 LINE",
"7 6 LINE",
"7 7 LINE",
"6 7 LINE"
);
},
{
closed = 1;
nodes = (
"5 5 LINE",
"6 5 LINE",
"6 6 LINE",
"5 6 LINE"
);
}
);
width = 11;
}
);
unicode = 0025;
},
{
glyphname = perthousand;
lastChange = "2018-09-28 18:36:18 +0000";
layers = (
{
layerId = "F9C0524F-BD24-452A-96F1-149BC18AF880";
paths = (
{
closed = 1;
nodes = (
"2 7 LINE",
"2 9 LINE",
"1 9 LINE",
"1 7 LINE"
);
},
{
closed = 1;
nodes = (
"3 6 LINE",
"3 7 LINE",
"2 7 LINE",
"2 6 LINE"
);
},
{
closed = 1;
nodes = (
"3 9 LINE",
"3 10 LINE",
"2 10 LINE",
"2 9 LINE"
);
},
{
closed = 1;
nodes = (
"4 7 LINE",
"4 9 LINE",
"3 9 LINE",
"3 7 LINE"
);
},
{
closed = 1;
nodes = (
"7 2 LINE",
"7 3 LINE",
"6 3 LINE",
"6 2 LINE"
);
},
{
closed = 1;
nodes = (
"8 1 LINE",
"8 2 LINE",
"7 2 LINE",
"7 1 LINE"
);
},
{
closed = 1;
nodes = (
"8 3 LINE",
"8 4 LINE",
"7 4 LINE",
"7 3 LINE"
);
},
{
closed = 1;
nodes = (
"9 2 LINE",
"9 3 LINE",
"8 3 LINE",
"8 2 LINE"
);
},
{
closed = 1;
nodes = (
"1 1 LINE",
"2 1 LINE",
"2 3 LINE",
"1 3 LINE"
);
},
{
closed = 1;
nodes = (
"2 3 LINE",
"4 3 LINE",
"4 4 LINE",
"2 4 LINE"
);
},
{
closed = 1;
nodes = (
"4 4 LINE",
"5 4 LINE",
"5 5 LINE",
"4 5 LINE"
);
},
{
closed = 1;
nodes = (
"7 7 LINE",
"9 7 LINE",
"9 8 LINE",
"7 8 LINE"
);
},
{
closed = 1;
nodes = (
"9 8 LINE",
"10 8 LINE",
"10 10 LINE",
"9 10 LINE"
);
},
{
closed = 1;
nodes = (
"6 6 LINE",
"7 6 LINE",
"7 7 LINE",
"6 7 LINE"
);
},
{
closed = 1;
nodes = (
"5 5 LINE",
"6 5 LINE",
"6 6 LINE",
"5 6 LINE"
);
},
{
closed = 1;
nodes = (
"10 5 LINE",
"10 6 LINE",
"9 6 LINE",
"9 5 LINE"
);
},
{
closed = 1;
nodes = (
"11 4 LINE",
"11 5 LINE",
"10 5 LINE",
"10 4 LINE"
);
},
{
closed = 1;
nodes = (
"11 6 LINE",
"11 7 LINE",
"10 7 LINE",
"10 6 LINE"
);
},
{
closed = 1;
nodes = (
"12 5 LINE",
"12 6 LINE",
"11 6 LINE",
"11 5 LINE"
);
}
);
width = 13;
}
);
unicode = 2030;
},
{
glyphname = lozenge;
lastChange = "2018-09-28 19:18:29 +0000";
layers = (
{
layerId = "F9C0524F-BD24-452A-96F1-149BC18AF880";
paths = (
{
closed = 1;
nodes = (
"2 4 LINE",
"2 5 LINE",
"1 5 LINE",
"1 4 LINE"
);
},
{
closed = 1;
nodes = (
"3 5 LINE",
"3 7 LINE",
"2 7 LINE",
"2 5 LINE"
);
},
{
closed = 1;
nodes = (
"4 7 LINE",
"4 9 LINE",
"3 9 LINE",
"3 7 LINE"
);
},
{
closed = 1;
nodes = (
"7 5 LINE",
"7 7 LINE",
"6 7 LINE",
"6 5 LINE"
);
},
{
closed = 1;
nodes = (
"8 4 LINE",
"8 5 LINE",
"7 5 LINE",
"7 4 LINE"
);
},
{
closed = 1;
nodes = (
"5 9 LINE",
"5 10 LINE",
"4 10 LINE",
"4 9 LINE"
);
},
{
closed = 1;
nodes = (
"6 7 LINE",
"6 9 LINE",
"5 9 LINE",
"5 7 LINE"
);
},
{
closed = 1;
nodes = (
"2 2 LINE",
"3 2 LINE",
"3 4 LINE",
"2 4 LINE"
);
},
{
closed = 1;
nodes = (
"3 0 LINE",
"4 0 LINE",
"4 2 LINE",
"3 2 LINE"
);
},
{
closed = 1;
nodes = (
"6 2 LINE",
"7 2 LINE",
"7 4 LINE",
"6 4 LINE"
);
},
{
closed = 1;
nodes = (
"4 -1 LINE",
"5 -1 LINE",
"5 0 LINE",
"4 0 LINE"
);
},
{
closed = 1;
nodes = (
"5 0 LINE",
"6 0 LINE",
"6 2 LINE",
"5 2 LINE"
);
}
);
width = 9;
}
);
unicode = 25CA;
},
{
glyphname = at;
lastChange = "2018-09-28 01:03:15 +0000";
layers = (
{
layerId = "F9C0524F-BD24-452A-96F1-149BC18AF880";
paths = (
{
closed = 1;
nodes = (
"2 2 LINE",
"2 6 LINE",
"1 6 LINE",
"1 2 LINE"
);
},
{
closed = 1;
nodes = (
"7 0 LINE",
"7 1 LINE",
"3 1 LINE",
"3 0 LINE"
);
},
{
closed = 1;
nodes = (
"7 7 LINE",
"7 8 LINE",
"3 8 LINE",
"3 7 LINE"
);
},
{
closed = 1;
nodes = (
"4 3 LINE",
"4 5 LINE",
"3 5 LINE",
"3 3 LINE"
);
},
{
closed = 1;
nodes = (
"5 2 LINE",
"5 3 LINE",
"4 3 LINE",
"4 2 LINE"
);
},
{
closed = 1;
nodes = (
"5 5 LINE",
"5 3 LINE",
"6 3 LINE",
"6 6 LINE",
"4 6 LINE",
"4 5 LINE"
);
},
{
closed = 1;
nodes = (
"7 2 LINE",
"7 3 LINE",
"6 3 LINE",
"6 2 LINE"
);
},
{
closed = 1;
nodes = (
"8 3 LINE",
"8 7 LINE",
"7 7 LINE",
"7 3 LINE"
);
},
{
closed = 1;
nodes = (
"3 1 LINE",
"3 2 LINE",
"2 2 LINE",
"2 1 LINE"
);
},
{
closed = 1;
nodes = (
"3 6 LINE",
"3 7 LINE",
"2 7 LINE",
"2 6 LINE"
);
}
);
width = 9;
}
);
unicode = 0040;
},
{
glyphname = ampersand;
lastChange = "2018-09-28 01:54:59 +0000";
layers = (
{
layerId = "F9C0524F-BD24-452A-96F1-149BC18AF880";
paths = (
{
closed = 1;
nodes = (
"2 1 LINE",
"2 5 LINE",
"4 5 LINE",
"4 6 LINE",
"2 6 LINE",
"2 9 LINE",
"1 9 LINE",
"1 1 LINE"
);
},
{
closed = 1;
nodes = (
"4 0 LINE",
"4 1 LINE",
"2 1 LINE",
"2 0 LINE"
);
},
{
closed = 1;
nodes = (
"3 9 LINE",
"3 10 LINE",
"2 10 LINE",
"2 9 LINE"
);
},
{
closed = 1;
nodes = (
"4 8 LINE",
"4 6 LINE",
"5 6 LINE",
"5 12 LINE",
"4 12 LINE",
"4 9 LINE",
"3 9 LINE",
"3 8 LINE"
);
},
{
closed = 1;
nodes = (
"5 1 LINE",
"5 5 LINE",
"4 5 LINE",
"4 1 LINE"
);
},
{
closed = 1;
nodes = (
"7 0 LINE",
"7 1 LINE",
"5 1 LINE",
"5 0 LINE"
);
},
{
closed = 1;
nodes = (
"7 5 LINE",
"7 6 LINE",
"5 6 LINE",
"5 5 LINE"
);
},
{
closed = 1;
nodes = (
"7 2 LINE",
"7 3 LINE",
"6 3 LINE",
"6 2 LINE"
);
},
{
closed = 1;
nodes = (
"8 1 LINE",
"8 2 LINE",
"7 2 LINE",
"7 1 LINE"
);
},
{
closed = 1;
nodes = (
"8 3 LINE",
"8 4 LINE",
"7 4 LINE",
"7 3 LINE"
);
}
);
width = 9;
}
);
unicode = 0026;
},
{
glyphname = paragraph;
lastChange = "2018-09-28 01:51:26 +0000";
layers = (
{
layerId = "F9C0524F-BD24-452A-96F1-149BC18AF880";
paths = (
{
closed = 1;
nodes = (
"2 6 LINE",
"2 5 LINE",
"4 5 LINE",
"4 -1 LINE",
"5 -1 LINE",
"5 5 LINE",
"6 5 LINE",
"6 -1 LINE",
"7 -1 LINE",
"7 10 LINE",
"6 10 LINE",
"6 6 LINE",
"5 6 LINE",
"5 10 LINE",
"6 10 LINE",
"6 11 LINE",
"2 11 LINE",
"2 10 LINE",
"1 10 LINE",
"1 6 LINE"
);
}
);
width = 8;
}
);
unicode = 00B6;
},
{
glyphname = section;
lastChange = "2018-09-28 00:56:11 +0000";
layers = (
{
layerId = "F9C0524F-BD24-452A-96F1-149BC18AF880";
paths = (
{
closed = 1;
nodes = (
"3 10 LINE",
"3 9 LINE",
"6 9 LINE",
"6 10 LINE"
);
},
{
closed = 1;
nodes = (
"2 9 LINE",
"2 8 LINE",
"3 8 LINE",
"3 9 LINE"
);
},
{
closed = 1;
nodes = (
"1 8 LINE",
"1 6 LINE",
"2 6 LINE",
"2 8 LINE"
);
},
{
closed = 1;
nodes = (
"3 7 LINE",
"3 6 LINE",
"4 6 LINE",
"4 7 LINE"
);
},
{
closed = 1;
nodes = (
"6 4 LINE",
"6 5 LINE",
"5 5 LINE",
"5 4 LINE"
);
},
{
closed = 1;
nodes = (
"4 6 LINE",
"4 5 LINE",
"5 5 LINE",
"5 6 LINE"
);
},
{
closed = 1;
nodes = (
"2 6 LINE",
"2 5 LINE",
"3 5 LINE",
"3 6 LINE"
);
},
{
closed = 1;
nodes = (
"1 5 LINE",
"1 4 LINE",
"2 4 LINE",
"2 5 LINE"
);
},
{
closed = 1;
nodes = (
"2 4 LINE",
"2 3 LINE",
"3 3 LINE",
"3 4 LINE"
);
},
{
closed = 1;
nodes = (
"5 -1 LINE",
"5 0 LINE",
"1 0 LINE",
"1 -1 LINE"
);
},
{
closed = 1;
nodes = (
"6 0 LINE",
"6 3 LINE",
"5 3 LINE",
"5 0 LINE"
);
},
{
closed = 1;
nodes = (
"3 3 LINE",
"3 2 LINE",
"4 2 LINE",
"4 3 LINE"
);
},
{
closed = 1;
nodes = (
"5 3 LINE",
"5 4 LINE",
"4 4 LINE",
"4 3 LINE"
);
}
);
width = 7;
}
);
unicode = 00A7;
},
{
glyphname = copyright;
lastChange = "2018-09-28 19:29:13 +0000";
layers = (
{
layerId = "F9C0524F-BD24-452A-96F1-149BC18AF880";
paths = (
{
closed = 1;
nodes = (
"3 10 LINE",
"7 10 LINE",
"7 11 LINE",
"3 11 LINE"
);
},
{
closed = 1;
nodes = (
"2 9 LINE",
"3 9 LINE",
"3 10 LINE",
"2 10 LINE"
);
},
{
closed = 1;
nodes = (
"7 9 LINE",
"8 9 LINE",
"8 10 LINE",
"7 10 LINE"
);
},
{
closed = 1;
nodes = (
"1 4 LINE",
"2 4 LINE",
"2 9 LINE",
"1 9 LINE"
);
},
{
closed = 1;
nodes = (
"8 4 LINE",
"9 4 LINE",
"9 9 LINE",
"8 9 LINE"
);
},
{
closed = 1;
nodes = (
"7 2 LINE",
"7 3 LINE",
"3 3 LINE",
"3 2 LINE"
);
},
{
closed = 1;
nodes = (
"3 3 LINE",
"3 4 LINE",
"2 4 LINE",
"2 3 LINE"
);
},
{
closed = 1;
nodes = (
"8 3 LINE",
"8 4 LINE",
"7 4 LINE",
"7 3 LINE"
);
},
{
closed = 1;
nodes = (
"4 8 LINE",
"6 8 LINE",
"6 9 LINE",
"4 9 LINE"
);
},
{
closed = 1;
nodes = (
"3 5 LINE",
"4 5 LINE",
"4 8 LINE",
"3 8 LINE"
);
},
{
closed = 1;
nodes = (
"6 4 LINE",
"6 5 LINE",
"4 5 LINE",
"4 4 LINE"
);
}
);
width = 10;
}
);
unicode = 00A9;
},
{
glyphname = registered;
lastChange = "2018-09-28 19:26:57 +0000";
layers = (
{
layerId = "F9C0524F-BD24-452A-96F1-149BC18AF880";
paths = (
{
closed = 1;
nodes = (
"3 10 LINE",
"7 10 LINE",
"7 11 LINE",
"3 11 LINE"
);
},
{
closed = 1;
nodes = (
"2 9 LINE",
"3 9 LINE",
"3 10 LINE",
"2 10 LINE"
);
},
{
closed = 1;
nodes = (
"7 9 LINE",
"8 9 LINE",
"8 10 LINE",
"7 10 LINE"
);
},
{
closed = 1;
nodes = (
"1 4 LINE",
"2 4 LINE",
"2 9 LINE",
"1 9 LINE"
);
},
{
closed = 1;
nodes = (
"8 4 LINE",
"9 4 LINE",
"9 9 LINE",
"8 9 LINE"
);
},
{
closed = 1;
nodes = (
"7 2 LINE",
"7 3 LINE",
"3 3 LINE",
"3 2 LINE"
);
},
{
closed = 1;
nodes = (
"3 3 LINE",
"3 4 LINE",
"2 4 LINE",
"2 3 LINE"
);
},
{
closed = 1;
nodes = (
"8 3 LINE",
"8 4 LINE",
"7 4 LINE",
"7 3 LINE"
);
},
{
closed = 1;
nodes = (
"4 4 LINE",
"4 5 LINE",
"6 5 LINE",
"6 6 LINE",
"4 6 LINE",
"4 8 LINE",
"3 8 LINE",
"3 4 LINE"
);
},
{
closed = 1;
nodes = (
"6 8 LINE",
"6 9 LINE",
"4 9 LINE",
"4 8 LINE"
);
},
{
closed = 1;
nodes = (
"7 4 LINE",
"7 5 LINE",
"6 5 LINE",
"6 4 LINE"
);
},
{
closed = 1;
nodes = (
"7 6 LINE",
"7 8 LINE",
"6 8 LINE",
"6 6 LINE"
);
}
);
width = 10;
}
);
unicode = 00AE;
},
{
glyphname = degree;
lastChange = "2018-09-28 00:58:24 +0000";
layers = (
{
layerId = "F9C0524F-BD24-452A-96F1-149BC18AF880";
paths = (
{
closed = 1;
nodes = (
"2 8 LINE",
"2 11 LINE",
"1 11 LINE",
"1 8 LINE"
);
},
{
closed = 1;
nodes = (
"3 7 LINE",
"3 8 LINE",
"2 8 LINE",
"2 7 LINE"
);
},
{
closed = 1;
nodes = (
"3 11 LINE",
"3 12 LINE",
"2 12 LINE",
"2 11 LINE"
);
},
{
closed = 1;
nodes = (
"4 8 LINE",
"4 11 LINE",
"3 11 LINE",
"3 8 LINE"
);
}
);
width = 5;
}
);
unicode = 00B0;
},
{
glyphname = bar;
lastChange = "2018-09-28 00:57:18 +0000";
layers = (
{
layerId = "F9C0524F-BD24-452A-96F1-149BC18AF880";
paths = (
{
closed = 1;
nodes = (
"1 -4 LINE",
"2 -4 LINE",
"2 12 LINE",
"1 12 LINE"
);
}
);
width = 3;
}
);
unicode = 007C;
},
{
glyphname = brokenbar;
lastChange = "2018-09-28 18:48:18 +0000";
layers = (
{
layerId = "F9C0524F-BD24-452A-96F1-149BC18AF880";
paths = (
{
closed = 1;
nodes = (
"1 6 LINE",
"2 6 LINE",
"2 12 LINE",
"1 12 LINE"
);
},
{
closed = 1;
nodes = (
"1 -4 LINE",
"2 -4 LINE",
"2 2 LINE",
"1 2 LINE"
);
}
);
width = 3;
}
);
unicode = 00A6;
},
{
glyphname = dagger;
lastChange = "2018-09-28 15:05:20 +0000";
layers = (
{
layerId = "F9C0524F-BD24-452A-96F1-149BC18AF880";
paths = (
{
closed = 1;
nodes = (
"2 8 LINE",
"2 7 LINE",
"3 7 LINE",
"3 -4 LINE",
"4 -4 LINE",
"4 7 LINE",
"5 7 LINE",
"5 8 LINE",
"7 8 LINE",
"7 9 LINE",
"5 9 LINE",
"5 10 LINE",
"4 10 LINE",
"4 12 LINE",
"3 12 LINE",
"3 10 LINE",
"2 10 LINE",
"2 9 LINE",
"0 9 LINE",
"0 8 LINE"
);
},
{
closed = 1;
nodes = (
"3 9 LINE",
"4 9 LINE",
"4 8 LINE",
"3 8 LINE"
);
}
);
width = 7;
}
);
unicode = 2020;
},
{
glyphname = daggerdbl;
lastChange = "2018-09-28 15:00:10 +0000";
layers = (
{
layerId = "F9C0524F-BD24-452A-96F1-149BC18AF880";
paths = (
{
closed = 1;
nodes = (
"2 8 LINE",
"2 7 LINE",
"3 7 LINE",
"3 6 LINE",
"2 6 LINE",
"2 5 LINE",
"1 5 LINE",
"1 4 LINE",
"2 4 LINE",
"2 3 LINE",
"3 3 LINE",
"3 -4 LINE",
"4 -4 LINE",
"4 3 LINE",
"5 3 LINE",
"5 4 LINE",
"6 4 LINE",
"6 5 LINE",
"5 5 LINE",
"5 6 LINE",
"4 6 LINE",
"4 7 LINE",
"5 7 LINE",
"5 8 LINE",
"7 8 LINE",
"7 9 LINE",
"5 9 LINE",
"5 10 LINE",
"4 10 LINE",
"4 12 LINE",
"3 12 LINE",
"3 10 LINE",
"2 10 LINE",
"2 9 LINE",
"0 9 LINE",
"0 8 LINE"
);
},
{
closed = 1;
nodes = (
"3 5 LINE",
"4 5 LINE",
"4 4 LINE",
"3 4 LINE"
);
},
{
closed = 1;
nodes = (
"3 9 LINE",
"4 9 LINE",
"4 8 LINE",
"3 8 LINE"
);
}
);
width = 7;
}
);
unicode = 2021;
},
{
glyphname = dotaccentcomb;
lastChange = "2018-09-28 20:19:49 +0000";
layers = (
{
layerId = "F9C0524F-BD24-452A-96F1-149BC18AF880";
paths = (
{
closed = 1;
nodes = (
"1 9 LINE",
"2 9 LINE",
"2 11 LINE",
"1 11 LINE"
);
}
);
width = 3;
}
);
unicode = 0307;
},
{
glyphname = gravecomb;
lastChange = "2018-09-28 20:20:56 +0000";
layers = (
{
layerId = "F9C0524F-BD24-452A-96F1-149BC18AF880";
paths = (
{
closed = 1;
nodes = (
"1 11 LINE",
"2 11 LINE",
"2 12 LINE",
"1 12 LINE"
);
},
{
closed = 1;
nodes = (
"2 10 LINE",
"3 10 LINE",
"3 11 LINE",
"2 11 LINE"
);
},
{
closed = 1;
nodes = (
"3 9 LINE",
"4 9 LINE",
"4 10 LINE",
"3 10 LINE"
);
}
);
width = 5;
}
);
unicode = 0300;
},
{
glyphname = acutecomb;
lastChange = "2018-09-28 20:21:25 +0000";
layers = (
{
layerId = "F9C0524F-BD24-452A-96F1-149BC18AF880";
paths = (
{
closed = 1;
nodes = (
"3 12 LINE",
"3 11 LINE",
"4 11 LINE",
"4 12 LINE"
);
},
{
closed = 1;
nodes = (
"2 11 LINE",
"2 10 LINE",
"3 10 LINE",
"3 11 LINE"
);
},
{
closed = 1;
nodes = (
"1 10 LINE",
"1 9 LINE",
"2 9 LINE",
"2 10 LINE"
);
}
);
width = 5;
}
);
unicode = 0301;
},
{
glyphname = ringcomb;
lastChange = "2018-09-28 20:22:08 +0000";
layers = (
{
layerId = "F9C0524F-BD24-452A-96F1-149BC18AF880";
paths = (
{
closed = 1;
nodes = (
"0 9 LINE",
"1 9 LINE",
"1 11 LINE",
"0 11 LINE"
);
},
{
closed = 1;
nodes = (
"1 8 LINE",
"2 8 LINE",
"2 9 LINE",
"1 9 LINE"
);
},
{
closed = 1;
nodes = (
"2 9 LINE",
"3 9 LINE",
"3 11 LINE",
"2 11 LINE"
);
},
{
closed = 1;
nodes = (
"1 11 LINE",
"2 11 LINE",
"2 12 LINE",
"1 12 LINE"
);
}
);
width = 3;
}
);
unicode = 030A;
},
{
glyphname = tildecomb;
lastChange = "2018-09-28 20:22:20 +0000";
layers = (
{
layerId = "F9C0524F-BD24-452A-96F1-149BC18AF880";
paths = (
{
closed = 1;
nodes = (
"0 9 LINE",
"1 9 LINE",
"1 10 LINE",
"0 10 LINE"
);
},
{
closed = 1;
nodes = (
"1 10 LINE",
"3 10 LINE",
"3 11 LINE",
"1 11 LINE"
);
},
{
closed = 1;
nodes = (
"3 9 LINE",
"4 9 LINE",
"4 10 LINE",
"3 10 LINE"
);
},
{
closed = 1;
nodes = (
"4 10 LINE",
"5 10 LINE",
"5 11 LINE",
"4 11 LINE"
);
}
);
width = 5;
}
);
unicode = 0303;
},
{
glyphname = cedillacomb;
lastChange = "2018-09-28 20:22:37 +0000";
layers = (
{
layerId = "F9C0524F-BD24-452A-96F1-149BC18AF880";
paths = (
{
closed = 1;
nodes = (
"2 -2 LINE",
"3 -2 LINE",
"3 -1 LINE",
"2 -1 LINE"
);
},
{
closed = 1;
nodes = (
"1 -1 LINE",
"2 -1 LINE",
"2 0 LINE",
"1 0 LINE"
);
},
{
closed = 1;
nodes = (
"0 -3 LINE",
"2 -3 LINE",
"2 -2 LINE",
"0 -2 LINE"
);
}
);
width = 4;
}
);
unicode = 0327;
},
{
glyphname = acute;
lastChange = "2018-09-28 16:50:02 +0000";
layers = (
{
layerId = "F9C0524F-BD24-452A-96F1-149BC18AF880";
paths = (
{
closed = 1;
nodes = (
"3 12 LINE",
"3 11 LINE",
"4 11 LINE",
"4 12 LINE"
);
},
{
closed = 1;
nodes = (
"2 11 LINE",
"2 10 LINE",
"3 10 LINE",
"3 11 LINE"
);
},
{
closed = 1;
nodes = (
"1 10 LINE",
"1 9 LINE",
"2 9 LINE",
"2 10 LINE"
);
}
);
width = 5;
}
);
unicode = 00B4;
},
{
glyphname = breve;
lastChange = "2018-09-28 15:25:14 +0000";
layers = (
{
layerId = "F9C0524F-BD24-452A-96F1-149BC18AF880";
paths = (
{
closed = 1;
nodes = (
"0 10 LINE",
"1 10 LINE",
"1 11 LINE",
"0 11 LINE"
);
},
{
closed = 1;
nodes = (
"1 9 LINE",
"3 9 LINE",
"3 10 LINE",
"1 10 LINE"
);
},
{
closed = 1;
nodes = (
"3 10 LINE",
"4 10 LINE",
"4 11 LINE",
"3 11 LINE"
);
}
);
width = 4;
}
);
unicode = 02D8;
},
{
glyphname = caron;
lastChange = "2018-09-28 15:22:27 +0000";
layers = (
{
layerId = "F9C0524F-BD24-452A-96F1-149BC18AF880";
paths = (
{
closed = 1;
nodes = (
"1 10 LINE",
"2 10 LINE",
"2 11 LINE",
"1 11 LINE"
);
},
{
closed = 1;
nodes = (
"2 9 LINE",
"3 9 LINE",
"3 10 LINE",
"2 10 LINE"
);
},
{
closed = 1;
nodes = (
"3 10 LINE",
"4 10 LINE",
"4 11 LINE",
"3 11 LINE"
);
}
);
width = 5;
}
);
unicode = 02C7;
},
{
glyphname = cedilla;
lastChange = "2018-09-28 15:24:11 +0000";
layers = (
{
layerId = "F9C0524F-BD24-452A-96F1-149BC18AF880";
paths = (
{
closed = 1;
nodes = (
"2 -2 LINE",
"3 -2 LINE",
"3 -1 LINE",
"2 -1 LINE"
);
},
{
closed = 1;
nodes = (
"1 -1 LINE",
"2 -1 LINE",
"2 0 LINE",
"1 0 LINE"
);
},
{
closed = 1;
nodes = (
"0 -3 LINE",
"2 -3 LINE",
"2 -2 LINE",
"0 -2 LINE"
);
}
);
width = 4;
}
);
unicode = 00B8;
},
{
glyphname = circumflex;
lastChange = "2018-09-28 15:22:06 +0000";
layers = (
{
layerId = "F9C0524F-BD24-452A-96F1-149BC18AF880";
paths = (
{
closed = 1;
nodes = (
"1 9 LINE",
"2 9 LINE",
"2 10 LINE",
"1 10 LINE"
);
},
{
closed = 1;
nodes = (
"2 10 LINE",
"3 10 LINE",
"3 11 LINE",
"2 11 LINE"
);
},
{
closed = 1;
nodes = (
"3 9 LINE",
"4 9 LINE",
"4 10 LINE",
"3 10 LINE"
);
}
);
width = 5;
}
);
unicode = 02C6;
},
{
glyphname = dieresis;
lastChange = "2018-09-28 16:50:20 +0000";
layers = (
{
layerId = "F9C0524F-BD24-452A-96F1-149BC18AF880";
paths = (
{
closed = 1;
nodes = (
"1 9 LINE",
"2 9 LINE",
"2 11 LINE",
"1 11 LINE"
);
},
{
closed = 1;
nodes = (
"3 9 LINE",
"4 9 LINE",
"4 11 LINE",
"3 11 LINE"
);
}
);
width = 5;
}
);
unicode = 00A8;
},
{
glyphname = dotaccent;
lastChange = "2018-09-28 15:24:30 +0000";
layers = (
{
layerId = "F9C0524F-BD24-452A-96F1-149BC18AF880";
paths = (
{
closed = 1;
nodes = (
"1 9 LINE",
"2 9 LINE",
"2 11 LINE",
"1 11 LINE"
);
}
);
width = 3;
}
);
unicode = 02D9;
},
{
glyphname = grave;
lastChange = "2018-09-28 16:49:52 +0000";
layers = (
{
layerId = "F9C0524F-BD24-452A-96F1-149BC18AF880";
paths = (
{
closed = 1;
nodes = (
"1 11 LINE",
"2 11 LINE",
"2 12 LINE",
"1 12 LINE"
);
},
{
closed = 1;
nodes = (
"2 10 LINE",
"3 10 LINE",
"3 11 LINE",
"2 11 LINE"
);
},
{
closed = 1;
nodes = (
"3 9 LINE",
"4 9 LINE",
"4 10 LINE",
"3 10 LINE"
);
}
);
width = 5;
}
);
unicode = 0060;
},
{
glyphname = hungarumlaut;
lastChange = "2018-09-28 15:23:20 +0000";
layers = (
{
layerId = "F9C0524F-BD24-452A-96F1-149BC18AF880";
paths = (
{
closed = 1;
nodes = (
"0 9 LINE",
"1 9 LINE",
"1 10 LINE",
"0 10 LINE"
);
},
{
closed = 1;
nodes = (
"1 10 LINE",
"2 10 LINE",
"2 12 LINE",
"1 12 LINE"
);
},
{
closed = 1;
nodes = (
"3 9 LINE",
"4 9 LINE",
"4 10 LINE",
"3 10 LINE"
);
},
{
closed = 1;
nodes = (
"4 10 LINE",
"5 10 LINE",
"5 12 LINE",
"4 12 LINE"
);
}
);
width = 5;
}
);
unicode = 02DD;
},
{
glyphname = macron;
lastChange = "2018-09-28 15:25:30 +0000";
layers = (
{
layerId = "F9C0524F-BD24-452A-96F1-149BC18AF880";
paths = (
{
closed = 1;
nodes = (
"1 9 LINE",
"5 9 LINE",
"5 10 LINE",
"1 10 LINE"
);
}
);
width = 6;
}
);
unicode = 00AF;
},
{
glyphname = ogonek;
lastChange = "2018-09-28 15:22:59 +0000";
layers = (
{
layerId = "F9C0524F-BD24-452A-96F1-149BC18AF880";
paths = (
{
closed = 1;
nodes = (
"2 -1 LINE",
"3 -1 LINE",
"3 0 LINE",
"2 0 LINE"
);
},
{
closed = 1;
nodes = (
"1 -2 LINE",
"2 -2 LINE",
"2 -1 LINE",
"1 -1 LINE"
);
},
{
closed = 1;
nodes = (
"2 -3 LINE",
"4 -3 LINE",
"4 -2 LINE",
"2 -2 LINE"
);
}
);
width = 4;
}
);
unicode = 02DB;
},
{
glyphname = ring;
lastChange = "2018-09-28 15:24:50 +0000";
layers = (
{
layerId = "F9C0524F-BD24-452A-96F1-149BC18AF880";
paths = (
{
closed = 1;
nodes = (
"0 9 LINE",
"1 9 LINE",
"1 11 LINE",
"0 11 LINE"
);
},
{
closed = 1;
nodes = (
"1 8 LINE",
"2 8 LINE",
"2 9 LINE",
"1 9 LINE"
);
},
{
closed = 1;
nodes = (
"2 9 LINE",
"3 9 LINE",
"3 11 LINE",
"2 11 LINE"
);
},
{
closed = 1;
nodes = (
"1 11 LINE",
"2 11 LINE",
"2 12 LINE",
"1 12 LINE"
);
}
);
width = 3;
}
);
unicode = 02DA;
},
{
glyphname = tilde;
lastChange = "2018-09-28 15:26:16 +0000";
layers = (
{
layerId = "F9C0524F-BD24-452A-96F1-149BC18AF880";
paths = (
{
closed = 1;
nodes = (
"0 9 LINE",
"1 9 LINE",
"1 10 LINE",
"0 10 LINE"
);
},
{
closed = 1;
nodes = (
"1 10 LINE",
"3 10 LINE",
"3 11 LINE",
"1 11 LINE"
);
},
{
closed = 1;
nodes = (
"3 9 LINE",
"4 9 LINE",
"4 10 LINE",
"3 10 LINE"
);
},
{
closed = 1;
nodes = (
"4 10 LINE",
"5 10 LINE",
"5 11 LINE",
"4 11 LINE"
);
}
